SplineFontDB: 3.0
FontName: Lumean
FullName: Lumean Bold
FamilyName: Lumean
Weight: Medium
Copyright: Created by Coos Baakman,,,, with FontForge 2.0 (http://fontforge.sf.net)
UComments: "2012-11-8: Created."
Version: 001.012
ItalicAngle: 0
UnderlinePosition: -6
UnderlineWidth: 3
Ascent: 50
Descent: 14
InvalidEm: 0
LayerCount: 2
Layer: 0 1 "Back" 1
Layer: 1 1 "Fore" 0
XUID: [1021 803 233822182 8703565]
FSType: 0
OS2Version: 0
OS2_WeightWidthSlopeOnly: 0
OS2_UseTypoMetrics: 0
CreationTime: 1352376986
ModificationTime: 1463991881
PfmFamily: 17
TTFWeight: 700
TTFWidth: 5
LineGap: 6
VLineGap: 6
OS2TypoAscent: 0
OS2TypoAOffset: 1
OS2TypoDescent: 0
OS2TypoDOffset: 1
OS2TypoLinegap: 6
OS2WinAscent: 0
OS2WinAOffset: 1
OS2WinDescent: 0
OS2WinDOffset: 1
HheadAscent: 0
HheadAOffset: 1
HheadDescent: 0
HheadDOffset: 1
OS2Vendor: 'PfEd'
Lookup: 258 0 0 "Horizontal kerning" { "subtable" [8,-30,0] } ['kern' ('DFLT' <'dflt' > 'cyrl' <'dflt' > 'grek' <'dflt' > 'latn' <'dflt' > ) ]
MarkAttachClasses: 1
DEI: 91125
KernClass2: 73 63 "subtable"
 616 exclam one four A E G H I M N U d i l sterling Agrave Aacute Acircumflex Atilde Adieresis Aring AE Egrave Eacute Ecircumflex Edieresis Igrave Iacute Ntilde Ugrave Uacute Ucircumflex Udieresis Amacron Abreve Aogonek Emacron Ebreve Edotaccent Eogonek Ecaron Gcircumflex Gbreve Gdotaccent Gcommaaccent Hcircumflex Hbar Idotaccent Nacute Ncommaaccent Ncaron Eng OE Utilde Umacron Ubreve Uring Uhungarumlaut Uogonek uni019D Alphatonos Epsilontonos Etatonos Delta Lambda Xi Pi uni0400 afii10023 afii10053 uni040D afii10145 afii10021 afii10026 afii10027 afii10029 afii10033 afii10040 afii10041 afii10042 afii10045 afii10049
 132 zero O Q Ograve Oacute Ocircumflex Otilde Odieresis Oslash Omacron Obreve Ohungarumlaut uni019F Omicrontonos Theta uni03F4 afii10048
 7 three B
 1 F
 1 V
 40 L Lacute Lcommaaccent Lcaron Ldot Lslash
 1 R
 34 X Z Zacute Zdotaccent Zcaron Sigma
 32 K Kcommaaccent uni03CF afii10024
 1 P
 17 W Wcircumflex Psi
 11 D afii10047

StartChar: A
Encoding: 65 65 0
AltUni2: 000410.ffffffff.0 000391.ffffffff.0
Width: 44
VWidth: 0
Flags: W
LayerCount: 2
Fore
SplineSet
8 18 m 4,0,1
 8 0 l 29,2,-1
 0 0 l 29,3,-1
 0 19 l 21,4,5
 0 36 0 36 11 44 c 4,6,7
 18 49 18 49 28 50 c 5,8,-1
 36 50 l 5,9,-1
 36 0 l 5,10,-1
 28 0 l 5,11,-1
 28 24 l 5,12,-1
 9 24 l 5,13,14
 8 21 8 21 8 18 c 4,0,1
11 32 m 5,15,-1
 28 32 l 5,16,-1
 28 41 l 5,17,18
 18 41 18 41 11 32 c 5,15,-1
EndSplineSet
Validated: 1
EndChar

StartChar: B
Encoding: 66 66 1
AltUni2: 000412.ffffffff.0 000392.ffffffff.0
Width: 44
VWidth: 0
Flags: W
HStem: -0.000976562 21G<-0.00308681 17.9961> 24.1689 8<8.50195 15.625> 38.5439 9.125<8.50195 12.9997>
VStem: -0.00390625 8.33691<11.667 24.1689 32.1689 38.5439>
LayerCount: 2
Fore
SplineSet
8 24 m 29,0,-1
 8 10 l 5,1,2
 28 15 28 15 28 20 c 4,3,4
 28 23 28 23 24 24 c 5,5,-1
 8 24 l 29,0,-1
8 41 m 13,6,7
 8 32 l 5,8,-1
 16 32 l 5,9,10
 18.0001 34 18.0001 34 18 37 c 4,11,12
 18 41.0002 18 41.0002 8 41 c 13,6,7
0 50 m 5,13,14
 26 50 26 50 26 38 c 4,15,16
 26 35 26 35 24 32 c 5,17,18
 36 28 36 28 36 20 c 4,19,20
 36 6 36 6 0 0 c 5,21,-1
 0 50 l 5,13,14
EndSplineSet
Validated: 1
EndChar

StartChar: a
Encoding: 97 97 2
AltUni2: 000430.ffffffff.0
Width: 37
VWidth: 0
Flags: W
HStem: 0 8<13.7456 22> 12 20G<26 30>
VStem: 0 8<10.6768 16.2263> 22 8<8 23>
LayerCount: 2
Back
SplineSet
-51 24 m 17,0,-1
 -62 24 l 1,1,2
 -64 22 -64 22 -64 20 c 0,3,4
 -64 15 -64 15 -59 12 c 128,-1,5
 -54 9 -54 9 -51 9 c 1,6,-1
 -51 24 l 17,0,-1
-43 32 m 9,7,-1
 -43 0 l 1,8,9
 -57 0 -57 0 -63 5 c 0,10,11
 -72 12 -72 12 -72 20 c 0,12,13
 -72 27 -72 27 -66 32 c 1,14,-1
 -43 32 l 9,7,-1
-36 21.001 m 17,0,-1
 -14.833 21.001 l 1,1,2
 -14.833 24.9941 -14.833 24.9941 -28.001 24.9941 c 2,3,-1
 -36.0039 25.0088 l 1,4,-1
 -36.002 32.0029 l 1,5,-1
 -28.0049 31.998 l 2,6,7
 -7 32.0059 -7 32.0059 -7 21.001 c 2,8,-1
 -7 0.000976562 l 1,9,10
 -22.5 0.000976562 -22.5 0.000976562 -27 2.00098 c 0,11,12
 -36 6.00098 -36 6.00098 -36 14.001 c 2,13,-1
 -36 21.001 l 17,0,-1
-15 14.001 m 17,14,-1
 -28 14.001 l 1,15,16
 -28 12.001 -28 12.001 -24.5 9.50098 c 128,-1,17
 -21 7.00098 -21 7.00098 -15 7.00098 c 1,18,-1
 -15 14.001 l 17,14,-1
21 8 m 9,0,-1
 21 23 l 1,1,2
 18 23 18 23 13 20 c 128,-1,3
 8 17 8 17 8 12 c 0,4,5
 8 9.99999 8 9.99999 10 8 c 1,6,7
 21 8 l 9,0,-1
29 0 m 17,8,9
 6 0 l 1,10,11
 0 5 0 5 0 12 c 0,12,13
 0 20 0 20 9 27 c 0,14,15
 15 32 15 32 29 32 c 1,16,-1
 29 0 l 17,8,9
56 8 m 9,0,-1
 56 23 l 1,1,2
 52 23 52 23 47 19.5 c 128,-1,3
 41.9999 16 41.9999 16 42 13 c 0,4,5
 42 8 42 8 56 8 c 9,0,-1
64 0 m 17,6,7
 34 0 34 0 34 13 c 0,8,9
 34 20 34 20 43 26 c 128,-1,10
 52 32 52 32 64 32 c 1,11,-1
 64 0 l 17,6,7
EndSplineSet
Fore
SplineSet
0 21 m 21,0,-1
 21 21 l 5,1,2
 21 25 21 25 8 25 c 6,3,-1
 -0 25 l 5,4,-1
 -0 32 l 5,5,-1
 8 32 l 6,6,7
 29 32 29 32 29 21 c 6,8,-1
 29 0 l 5,9,10
 14 0 14 0 9 2 c 4,11,12
 0 6 0 6 0 14 c 6,13,-1
 0 21 l 21,0,-1
21 14 m 21,14,-1
 8 14 l 5,15,16
 8 11 8 11 9 10 c 4,17,18
 12 7 12 7 21 7 c 5,19,-1
 21 14 l 21,14,-1
EndSplineSet
Validated: 1
EndChar

StartChar: b
Encoding: 98 98 3
Width: 37
VWidth: 0
Flags: W
HStem: 0 21G<0 11.3333> 0 21G<0 11.3333> 24 8<8 15.793> 30 20G<0 8>
VStem: 0 8<10 24 32 50> 20 8<15.9932 21.0986>
LayerCount: 2
Back
SplineSet
0 50 m 29,0,-1
 8 50 l 1,1,-1
 8 32 l 1,2,3
 28 32 28 32 28 20 c 128,-1,4
 28 8 28 8 3 0 c 1,5,-1
 0 0 l 1,6,-1
 0 50 l 29,0,-1
8 24 m 13,7,-1
 8 10 l 1,8,9
 10 10 10 10 15 13 c 128,-1,10
 20 16 20 16 20 19 c 0,11,12
 20 23 20 23 8 24 c 13,7,-1
EndSplineSet
Fore
SplineSet
0 0 m 5,0,-1
 -0 50 l 1,1,-1
 8 50 l 1,2,-1
 8 32 l 5,3,-1
 23 32 l 5,4,5
 29 27 29 27 29 19 c 4,6,7
 29 8 29 8 8 -0 c 5,8,-1
 0 0 l 5,0,-1
21 19 m 4,9,10
 21 22.0001 21 22.0001 19 24 c 5,11,12
 8 24 l 5,13,-1
 8 10 l 5,14,15
 21 14 21 14 21 19 c 4,9,10
EndSplineSet
Validated: 1
EndChar

StartChar: c
Encoding: 99 99 4
AltUni2: 000441.ffffffff.0
Width: 33
VWidth: 0
Flags: W
HStem: 0 8<15.4373 26.0332> 24 8<19.8228 26.0332>
VStem: 3.0332 8<11.105 17.1875>
LayerCount: 2
Fore
SplineSet
26 32 m 1,0,1
 26 24 l 1,2,3
 15 24 l 1,4,5
 8 23 8 23 8 19 c 128,-1,6
 8 15 8 15 14 11 c 0,7,8
 18 8 18 8 26 8 c 1,9,-1
 26 0 l 1,10,11
 15 0 15 0 7.5 5 c 128,-1,12
 0 10 0 10 0 20 c 128,-1,13
 0 30 0 30 15 32 c 1,14,-1
 26 32 l 1,0,1
EndSplineSet
Validated: 1
EndChar

StartChar: d
Encoding: 100 100 5
Width: 37
VWidth: 0
Flags: W
HStem: 0 21G<14 26> 24 8<11.3869 18> 30 20G<18 26>
VStem: -0 8<13.9967 21.231> 18 8<9 24 32 50>
LayerCount: 2
Fore
SplineSet
8 20 m 4,0,1
 8 12 8 12 21 9 c 5,2,-1
 21 24 l 5,3,4
 10 24 l 5,5,6
 7.99996 22 7.99996 22 8 20 c 4,0,1
29 0 m 13,7,-1
 21 0 l 5,8,9
 0 5 0 5 0 20 c 4,10,11
 0 27 0 27 6 32 c 5,12,-1
 21 32 l 5,13,-1
 21 50 l 5,14,-1
 29 50 l 5,15,-1
 29 0 l 13,7,-1
EndSplineSet
Validated: 1
EndChar

StartChar: C
Encoding: 67 67 6
AltUni2: 000421.ffffffff.0
Width: 44
VWidth: 0
Flags: W
LayerCount: 2
Fore
SplineSet
36 50 m 1,0,-1
 36 42 l 1,1,2
 18 42 l 1,3,4
 8 40 8 40 8 34 c 0,5,6
 8 25 8 25 16 17 c 128,-1,7
 24 9 24 9 36 8 c 1,8,-1
 36 0 l 1,9,10
 20 1 20 1 10 11 c 128,-1,11
 -0 21 -0 21 0 34 c 128,-1,12
 0 47 0 47 18 50 c 1,13,-1
 36 50 l 1,0,-1
EndSplineSet
Validated: 1
EndChar

StartChar: D
Encoding: 68 68 7
Width: 44
VWidth: 0
Flags: W
LayerCount: 2
Fore
SplineSet
0 50 m 1,0,-1
 27 50 l 1,1,2
 36 45 36 45 36 32.5 c 128,-1,3
 36 20 36 20 25.5 10.5 c 128,-1,4
 15 1 15 1 0 0 c 1,5,-1
 0 50 l 1,0,-1
8 42 m 9,6,-1
 8 10 l 1,7,8
 16 11 16 11 22 18 c 128,-1,9
 28 25 28 25 28 32 c 0,10,11
 28 38 28 38 23 42 c 1,12,-1
 8 42 l 9,6,-1
EndSplineSet
Validated: 1
EndChar

StartChar: I
Encoding: 73 73 8
AltUni2: 000399.ffffffff.0 000406.ffffffff.0
Width: 16
VWidth: 0
Flags: W
HStem: 0 21G<0 8> 0 21G<0 8> 30 20G<0 8>
VStem: 0 8<0 50>
LayerCount: 2
Fore
SplineSet
0 50 m 1,0,-1
 8 50 l 1,1,-1
 8 0 l 1,2,-1
 0 0 l 1,3,-1
 0 50 l 1,0,-1
EndSplineSet
Validated: 1
EndChar

StartChar: E
Encoding: 69 69 9
AltUni2: 000415.ffffffff.0 000395.ffffffff.0
Width: 44
VWidth: 0
Flags: W
LayerCount: 2
Fore
SplineSet
36 50 m 5,0,-1
 36 42 l 5,1,-1
 8 42 l 5,2,-1
 8 36 l 5,3,-1
 36 36 l 5,4,-1
 36 28 l 5,5,-1
 8 28 l 5,6,-1
 8 8 l 1,7,-1
 36 8 l 1,8,-1
 36 0 l 1,9,-1
 0 0 l 1,10,-1
 0 50 l 5,11,-1
 36 50 l 5,0,-1
EndSplineSet
Validated: 1
EndChar

StartChar: F
Encoding: 70 70 10
Width: 44
VWidth: 0
Flags: W
LayerCount: 2
Fore
SplineSet
8 0 m 1,0,-1
 0 0 l 1,1,-1
 0 50 l 1,2,-1
 36 50 l 1,3,-1
 36 42 l 1,4,-1
 8 42 l 1,5,-1
 8 36 l 1,6,-1
 36 36 l 1,7,-1
 36 28 l 1,8,-1
 8 28 l 1,9,-1
 8 0 l 1,0,-1
EndSplineSet
Validated: 1
EndChar

StartChar: H
Encoding: 72 72 11
AltUni2: 00041d.ffffffff.0 000397.ffffffff.0
Width: 44
VWidth: 0
Flags: W
HStem: -0.00585938 21G<0 8 28 36.001> 27.999 7.9922<8.00195 28.002> 29.9902 20G<0 7.99902 27.998 36.001>
VStem: 0 8.00195<0 27.999 35.9912 49.9736> 28 8.001<-0.00585938 27.9941 35.9893 49.9893>
LayerCount: 2
Fore
SplineSet
8 36 m 1,0,-1
 28 36 l 1,1,-1
 28 50 l 1,2,-1
 36 50 l 1,3,-1
 36 -0 l 1,4,-1
 28 -0 l 1,5,-1
 28 28 l 1,6,-1
 8 28 l 1,7,-1
 8 0 l 1,8,-1
 0 0 l 1,9,-1
 0 50 l 1,10,-1
 8 50 l 1,11,-1
 8 36 l 1,0,-1
EndSplineSet
Validated: 1
EndChar

StartChar: G
Encoding: 71 71 12
Width: 44
VWidth: 0
Flags: W
LayerCount: 2
Back
SplineSet
36 50 m 5,0,-1
 36 42 l 5,1,2
 18 41.9932 l 5,3,4
 7.21387 39.4033 7.21387 39.4033 7.60693 31.7017 c 132,-1,5
 8 24 8 24 18 16 c 132,-1,6
 28 8 28 8 36 8 c 5,7,-1
 36 0 l 5,8,9
 21 1 21 1 10.4111 10.7852 c 132,-1,10
 -0.177734 20.5703 -0.177734 20.5703 0 34.0088 c 132,-1,11
 0.180737 47.4473 0.180737 47.4473 17.999 50 c 5,12,-1
 36 50 l 5,0,-1
EndSplineSet
Fore
SplineSet
28 10 m 1,0,-1
 28 28 l 1,1,-1
 20 28 l 1,2,-1
 20 36 l 1,3,-1
 36 36 l 1,4,-1
 36 0 l 1,5,6
 20 3 20 3 10 12 c 128,-1,7
 -0 21 -0 21 0 30 c 0,8,9
 -0 47 -0 47 17 50 c 1,10,11
 36 50 l 1,12,-1
 36 42 l 1,13,14
 18 42 l 1,15,16
 8 40 8 40 8 30 c 0,17,18
 8 17 8 17 28 10 c 1,0,-1
EndSplineSet
Validated: 1
EndChar

StartChar: J
Encoding: 74 74 13
AltUni2: 000408.ffffffff.0
Width: 40
VWidth: 0
Flags: W
LayerCount: 2
Fore
SplineSet
32 50 m 25,0,-1
 32 22 l 2,1,2
 32 10 32 10 22 5 c 0,3,4
 13.6667 0 13.6667 0 0 0 c 1,5,-1
 0 8 l 1,6,7
 25 8 25 8 25 22 c 2,8,-1
 25 50 l 1,9,-1
 32 50 l 25,0,-1
EndSplineSet
Validated: 1
EndChar

StartChar: K
Encoding: 75 75 14
AltUni2: 00041a.ffffffff.0 00039a.ffffffff.0
Width: 44
VWidth: 0
Flags: W
LayerCount: 2
Fore
SplineSet
36 -0 m 1,0,-1
 26 -0 l 1,1,-1
 8 25 l 1,2,-1
 8 0 l 1,3,-1
 0 0 l 1,4,-1
 0 50 l 1,5,-1
 8 50 l 1,6,-1
 8 38 l 1,7,-1
 23 50 l 1,8,-1
 36 50 l 1,9,-1
 13 32 l 1,10,-1
 36 -0 l 1,0,-1
EndSplineSet
Validated: 1
EndChar

StartChar: L
Encoding: 76 76 15
Width: 44
VWidth: 0
Flags: W
HStem: 0 8<8 30> 30 20G<0 8>
VStem: 0 8<8 50>
LayerCount: 2
Fore
SplineSet
8 8 m 17,0,-1
 32 8 l 1,1,-1
 36 0 l 1,2,-1
 0 0 l 1,3,-1
 0 50 l 1,4,-1
 8 50 l 1,5,-1
 8 8 l 17,0,-1
EndSplineSet
Validated: 1
EndChar

StartChar: M
Encoding: 77 77 16
AltUni2: 00041c.ffffffff.0 00039c.ffffffff.0
Width: 60
VWidth: 0
Flags: W
HStem: 42 8.00391<26.9922 35.4292>
VStem: 39.166 7.83789<0 3.55154>
LayerCount: 2
Fore
SplineSet
52 0 m 1,0,-1
 44 0 l 1,1,-1
 44 26 l 2,2,3
 44 42 44 42 27 42 c 1,4,-1
 27 0 l 1,5,-1
 19 0 l 1,6,-1
 19 42 l 1,7,-1
 8 42 l 1,8,-1
 8 0 l 1,9,-1
 0 0 l 1,10,-1
 0 50 l 1,11,-1
 27 50 l 2,12,13
 52.0001 50 52.0001 50 52 26 c 2,14,15
 52 0 l 1,0,-1
EndSplineSet
Validated: 1
EndChar

StartChar: N
Encoding: 78 78 17
AltUni2: 00039d.ffffffff.0
Width: 44
VWidth: 0
Flags: W
LayerCount: 2
Fore
SplineSet
8 41 m 1,0,-1
 8 0 l 1,1,-1
 0 0 l 1,2,-1
 0 50 l 1,3,-1
 8 50 l 1,4,5
 24.0001 42 24.0001 42 28 29 c 1,6,-1
 28 50 l 1,7,-1
 36 50 l 1,8,-1
 36 -0 l 1,9,-1
 28 -0 l 1,10,11
 28 28.0001 28 28.0001 8 41 c 1,0,-1
EndSplineSet
Validated: 1
EndChar

StartChar: O
Encoding: 79 79 18
AltUni2: 00041e.ffffffff.0 00039f.ffffffff.0
Width: 48
VWidth: 0
Flags: W
HStem: 0 8<13.3101 26.6899> 42 8<14.9207 25.0625>
VStem: 0 8<13.3101 32.1594> 32 8<13.3101 31.5895>
LayerCount: 2
Fore
SplineSet
8 20 m 4,0,1
 8 8 8 8 20 8 c 132,-1,2
 32 8 32 8 32 20 c 4,3,4
 32 42 32 42 20 42 c 132,-1,5
 8 42 8 42 8 20 c 4,0,1
0 20 m 4,6,7
 0 34 0 34 5 41 c 4,8,9
 11 50 11 50 20 50 c 4,10,11
 31 50 31 50 35 41 c 4,12,13
 40 32 40 32 40 20 c 4,14,15
 40 0 40 0 20 0 c 132,-1,16
 0 0 0 0 0 20 c 4,6,7
EndSplineSet
Validated: 1
EndChar

StartChar: Q
Encoding: 81 81 19
Width: 48
VWidth: 0
Flags: W
LayerCount: 2
Back
SplineSet
16.0078 16 m 1,0,-1
 24.0068 16 l 1,1,-1
 23.9922 -8.00391 l 1,2,-1
 15.9932 -8.00391 l 1,3,-1
 16.0078 16 l 1,0,-1
8 20 m 0,0,1
 8 8 8 8 20 8 c 128,-1,2
 32 8 32 8 32 20 c 0,3,4
 32 42 32 42 20 42 c 128,-1,5
 8 42 8 42 8 20 c 0,0,1
0 20 m 0,6,7
 0 33.5 0 33.5 5 41 c 0,8,9
 11 50 11 50 20 50 c 128,-1,10
 29 50 29 50 34.5 41 c 128,-1,11
 40.0002 32 40.0002 32 40 20 c 0,12,13
 40 0 40 0 20 0 c 128,-1,14
 0 0 0 0 0 20 c 0,6,7
EndSplineSet
Fore
SplineSet
16 0 m 17,0,1
 0 2 0 2 0 20 c 0,2,3
 0 34 0 34 5 41 c 0,4,5
 11 50 11 50 20 50 c 0,6,7
 30 50 30 50 35 41.5 c 128,-1,8
 40 33 40 33 40 20 c 0,9,10
 40 2 40 2 24 0 c 1,11,-1
 24 -8 l 1,12,-1
 16 -8 l 1,13,-1
 16 0 l 17,0,1
16 8 m 9,14,-1
 16 16 l 1,15,-1
 24 16 l 1,16,-1
 24 8 l 1,17,18
 32 10 32 10 32 20 c 0,19,20
 32 42 32 42 20 42 c 128,-1,21
 8 42 8 42 8 20 c 0,22,23
 8 10 8 10 16 8 c 9,14,-1
EndSplineSet
Validated: 1
EndChar

StartChar: P
Encoding: 80 80 20
AltUni2: 000420.ffffffff.0 0003a1.ffffffff.0
Width: 44
VWidth: 0
Flags: W
HStem: 0 21G<0 7.99902> 41.6973 8.3066<7.98926 17.5976>
VStem: 0 7.99121<0 10.8359 19.8418 41.6973>
LayerCount: 2
Fore
SplineSet
22 33 m 0,0,1
 28 33 28 33 28 38 c 0,2,3
 28 42 28 42 22 42 c 0,4,5
 8 42 l 9,6,-1
 8 33 l 1,7,-1
 22 33 l 0,0,1
8 24 m 1,8,-1
 8 0 l 1,9,-1
 0 0 l 1,10,-1
 0 50 l 1,11,12
 11 50 11 50 22 50 c 1,13,14
 36 50 36 50 36 37 c 128,-1,15
 36 24 36 24 21 24 c 1,16,-1
 8 24 l 1,8,-1
EndSplineSet
Validated: 1
EndChar

StartChar: R
Encoding: 82 82 21
Width: 49
VWidth: 0
Flags: W
HStem: -0.00585938 21G<0 7.99902 18.002 41.001> 41.6973 8.3066<7.98926 17.5976>
VStem: 0 7.99121<0 10.8359 19.8418 41.6973>
LayerCount: 2
Fore
SplineSet
21 33 m 0,0,1
 27 33 27 33 27 38 c 0,2,3
 27 42 27 42 21 42 c 0,4,5
 8 42 l 9,6,-1
 8 33 l 1,7,-1
 21 33 l 0,0,1
41 -0 m 1,8,-1
 31 -0 l 1,9,-1
 19 24 l 1,10,11
 14 24 14 24 8 24 c 1,12,-1
 8 0 l 1,13,-1
 0 0 l 1,14,-1
 0 50 l 1,15,16
 24 50 l 1,17,18
 36 50 36 50 36 37 c 0,19,20
 36 30 36 30 28 25 c 1,21,-1
 41 -0 l 1,8,-1
EndSplineSet
Validated: 1
EndChar

StartChar: S
Encoding: 83 83 22
AltUni2: 000405.ffffffff.0
Width: 51
VWidth: 0
Flags: W
HStem: 0 7.99707<0 14.9392> 26.7656 7.22852<15.1106 29.3202> 42.001 8.00293<19.4762 35.9971>
LayerCount: 2
Fore
SplineSet
36 50 m 1,0,-1
 36 42 l 1,1,2
 11 42 11 42 11 38 c 128,-1,3
 11 34 11 34 23 34 c 0,4,5
 43 34 43 34 43 21 c 0,6,7
 43 0 43 0 0 0 c 1,8,-1
 0 8 l 1,9,10
 35 8 35 8 35 21 c 0,11,12
 35 26 35 26 20 26 c 0,13,14
 3 26 3 26 3 38 c 128,-1,15
 3 50 3 50 36 50 c 1,0,-1
EndSplineSet
Validated: 1
EndChar

StartChar: T
Encoding: 84 84 23
AltUni2: 000422.ffffffff.0 0003a4.ffffffff.0
Width: 44
VWidth: 0
Flags: W
LayerCount: 2
Fore
SplineSet
11 0 m 5,0,-1
 11 42 l 5,1,-1
 0 42 l 5,2,-1
 0 50 l 5,3,-1
 36 50 l 5,4,-1
 32 42 l 5,5,-1
 19 42 l 5,6,-1
 19 0 l 5,7,-1
 11 0 l 5,0,-1
EndSplineSet
Validated: 1
EndChar

StartChar: U
Encoding: 85 85 24
Width: 44
VWidth: 0
Flags: W
LayerCount: 2
Fore
SplineSet
8 32 m 4,0,1
 8 14 8 14 28 9 c 5,2,-1
 28 50 l 5,3,-1
 36 50 l 5,4,-1
 36 0 l 21,5,6
 20 0 20 0 10 9 c 132,-1,7
 0 18 0 18 0 32 c 4,8,-1
 0 50 l 5,9,-1
 8 50 l 5,10,11
 8 32 l 4,0,1
EndSplineSet
Validated: 1
EndChar

StartChar: V
Encoding: 86 86 25
Width: 44
VWidth: 0
Flags: W
LayerCount: 2
Fore
SplineSet
0 50 m 29,0,-1
 8 50 l 5,1,-1
 8 11 l 5,2,3
 28 26 28 26 28 50 c 5,4,-1
 36 50 l 5,5,6
 36 18 36 18 8 0 c 5,7,-1
 0 0 l 5,8,-1
 0 50 l 29,0,-1
EndSplineSet
Validated: 1
EndChar

StartChar: W
Encoding: 87 87 26
Width: 66
VWidth: 0
Flags: W
LayerCount: 2
Fore
SplineSet
58 30 m 0,0,1
 58 0 58 0 29 0 c 128,-1,2
 0 0 0 0 0 30 c 0,3,-1
 0 50 l 1,4,-1
 8 50 l 1,5,-1
 8 30 l 0,6,7
 8 8 8 8 25 8 c 1,8,-1
 25 50 l 25,9,-1
 33 50 l 1,10,-1
 33 8 l 1,11,12
 50 8 50 8 50 30 c 0,13,-1
 50 50 l 1,14,-1
 58 50 l 1,15,-1
 58 30 l 0,0,1
EndSplineSet
Validated: 1
EndChar

StartChar: X
Encoding: 88 88 27
AltUni2: 000425.ffffffff.0 0003a7.ffffffff.0
Width: 48
VWidth: 0
Flags: W
LayerCount: 2
Fore
SplineSet
31 0 m 1,0,-1
 20 21 l 1,1,-1
 9 0 l 1,2,-1
 0 0 l 1,3,-1
 15 30 l 1,4,-1
 5 50 l 1,5,-1
 14 50 l 1,6,-1
 20 39 l 1,7,-1
 26 50 l 1,8,-1
 35 50 l 1,9,-1
 25 30 l 1,10,-1
 40 0 l 1,11,-1
 31 0 l 1,0,-1
EndSplineSet
Validated: 1
EndChar

StartChar: Y
Encoding: 89 89 28
AltUni2: 0003a5.ffffffff.0
Width: 48
VWidth: 0
Flags: W
HStem: -0.00585938 21G<14 22.0022> 29.9902 20G<7.99902 14.002 22.0029 27.998>
VStem: 14 8.00098<0 31.9922>
LayerCount: 2
Fore
SplineSet
20 39 m 1,0,-1
 30 50 l 1,1,-1
 40 50 l 1,2,-1
 24 32 l 1,3,-1
 24 0 l 1,4,-1
 16 0 l 1,5,-1
 16 32 l 1,6,-1
 0 50 l 1,7,-1
 10 50 l 1,8,-1
 20 39 l 1,0,-1
EndSplineSet
Validated: 1
EndChar

StartChar: Z
Encoding: 90 90 29
AltUni2: 000396.ffffffff.0
Width: 48
VWidth: 0
Flags: W
HStem: 0 7.99805<3.78523 34> 41.999 8.00488<7 27>
LayerCount: 2
Fore
SplineSet
36 8 m 1,0,-1
 40 0 l 1,1,-1
 0 0 l 1,2,-1
 22 42 l 1,3,-1
 9 42 l 1,4,-1
 5 50 l 1,5,-1
 35 50 l 1,6,-1
 13 8 l 1,7,-1
 36 8 l 1,0,-1
EndSplineSet
Validated: 1
EndChar

StartChar: l
Encoding: 108 108 30
Width: 15
VWidth: 0
Flags: W
HStem: 0 21G<0 8> 0 21G<0 8> 30 20G<0 8>
VStem: 0 8<0 44>
LayerCount: 2
Fore
SplineSet
0 50 m 1,0,-1
 8 44 l 1,1,-1
 8 0 l 1,2,-1
 0 0 l 1,3,-1
 0 50 l 1,0,-1
EndSplineSet
Validated: 1
EndChar

StartChar: one
Encoding: 49 49 31
Width: 16
VWidth: 0
Flags: W
HStem: 0 21G<0 7.99805> 30.0039 20G<0 7.99805>
VStem: 0 7.99805<0 50.0039>
LayerCount: 2
Fore
SplineSet
0 44 m 1,0,-1
 8 50 l 1,1,-1
 8 0 l 1,2,-1
 0 0 l 1,3,-1
 0 44 l 1,0,-1
EndSplineSet
Validated: 1
EndChar

StartChar: e
Encoding: 101 101 32
AltUni2: 000435.ffffffff.0
Width: 38
VWidth: 0
Flags: W
HStem: 0 8<11.4844 30> 13 7<9 21> 25 7<11.084 19.1215>
LayerCount: 2
Fore
SplineSet
22 20 m 21,0,-1
 22 25 l 4,1,2
 9 25 9 25 9 20 c 5,3,-1
 22 20 l 21,0,-1
30 14 m 9,4,-1
 9 14 l 1,5,6
 11 8 11 8 25 8 c 2,7,-1
 30 8 l 1,8,-1
 30 0 l 1,9,-1
 25 0 l 2,10,11
 0 0 0 0 0 17 c 0,12,13
 0 32 0 32 17 32 c 0,14,-1
 30 32 l 1,15,-1
 30 14 l 9,4,-1
EndSplineSet
Validated: 1
EndChar

StartChar: f
Encoding: 102 102 33
Width: 28
VWidth: 0
Flags: W
HStem: 13 8<8 16> 30 20G<17.5 20>
VStem: 0 8<-7 13 21 33.9071>
LayerCount: 2
Fore
SplineSet
8 21 m 1,0,-1
 16 21 l 1,1,-1
 16 13 l 1,2,-1
 8 13 l 1,3,-1
 8 -7 l 1,4,-1
 0 -7 l 1,5,-1
 0 26 l 2,6,7
 0 37 0 37 7.5 43.5 c 128,-1,8
 15 50 15 50 20 50 c 1,9,-1
 20 42 l 1,10,11
 16.5 41 l 2,12,13
 14 40 14 40 11 36 c 128,-1,14
 8 32 8 32 8 26 c 2,15,-1
 8 21 l 1,0,-1
EndSplineSet
Validated: 1
EndChar

StartChar: n
Encoding: 110 110 34
Width: 36
VWidth: 0
Flags: W
HStem: 0 21G<0 8 15 25.3333> 0 21G<0 8 15 25.3333> 24 8<8 15.2998>
VStem: 0 8<0 24> 20 8<7.28076 19.3086>
LayerCount: 2
Fore
SplineSet
20 14 m 2,0,1
 20 24 20 24 8 24 c 1,2,-1
 8 0 l 1,3,-1
 0 0 l 1,4,-1
 0 32 l 1,5,-1
 8 32 l 2,6,7
 28 32 28 32 28 14 c 2,8,9
 28 0 l 1,10,-1
 20 0 l 1,11,12
 20 14 l 2,0,1
EndSplineSet
Validated: 1
EndChar

StartChar: h
Encoding: 104 104 35
Width: 36
VWidth: 0
Flags: W
LayerCount: 2
Fore
SplineSet
28 0 m 1,0,-1
 20 0 l 1,1,-1
 20 14 l 2,2,3
 20 24 20 24 8 24 c 1,4,-1
 8 0 l 1,5,-1
 0 0 l 1,6,-1
 0 50 l 1,7,-1
 8 50 l 1,8,-1
 8 32 l 1,9,10
 28 32 28 32 28 14 c 2,11,12
 28 0 l 1,0,-1
EndSplineSet
Validated: 1
EndChar

StartChar: g
Encoding: 103 103 36
Width: 34
VWidth: 0
Flags: W
HStem: -14 8<-2.25882 14.7549> 23 9<9.11198 17.7412>
VStem: -2.25882 8<13.7949 20.1967> 17.7412 8<-3.28125 0.319336 8 23>
LayerCount: 2
Back
SplineSet
-2.25879 -6 m 21,0,-1
 7.74121 -6 l 2,1,2
 17.7412 -6 17.7412 -6 17.7412 0 c 1,3,4
 -2.25879 5 -2.25879 5 -2.25879 17 c 0,5,6
 -2.25879 32 -2.25879 32 20.7412 32 c 2,7,-1
 25.7412 32 l 1,8,-1
 25.7412 0 l 2,9,10
 25.7412 -14 25.7412 -14 7.74121 -14 c 2,11,-1
 -2.25879 -14 l 1,12,-1
 -2.25879 -6 l 21,0,-1
17.7412 8 m 9,13,-1
 17.7412 23 l 1,14,15
 5.74121 23 5.74121 23 5.74121 17 c 0,16,17
 5.74121 12 5.74121 12 17.7412 8 c 9,13,-1
EndSplineSet
Fore
SplineSet
18.7412 0 m 5,0,1
 12.7412 2 12.7412 2 6.74121 5 c 0,2,3
 -2.25879 10 -2.25879 10 -2.25879 19 c 0,4,5
 -2.25879 27 -2.25879 27 3.74121 32 c 1,6,-1
 26.7412 32 l 1,7,-1
 26.7412 0 l 6,8,9
 26.7412 -14 26.7412 -14 8.74121 -14 c 6,10,-1
 -2.25879 -14 l 5,11,-1
 -2.25879 -6 l 5,12,-1
 8.74121 -6 l 6,13,14
 18.7412 -6 18.7412 -6 18.7412 0 c 5,0,1
18.7412 24 m 17,15,16
 7.74121 24 l 1,17,18
 5.74121 22 5.74121 22 5.74121 20 c 0,19,20
 5.74121 16 5.74121 16 9.74121 13 c 128,-1,21
 13.7412 10 13.7412 10 18.7412 9 c 1,22,-1
 18.7412 24 l 17,15,16
EndSplineSet
Validated: 1
EndChar

StartChar: k
Encoding: 107 107 39
Width: 40
VWidth: 0
Flags: W
HStem: 0 21G<0 8> 0 21G<0 8> 12 20G<8 23> 30 20G<0 8>
VStem: 0 8<0 11 24 50>
LayerCount: 2
Fore
SplineSet
13 18 m 1,0,-1
 32 0 l 1,1,-1
 21 0 l 1,2,-1
 8 12 l 1,3,-1
 8 0 l 1,4,-1
 0 0 l 1,5,-1
 0 50 l 1,6,-1
 8 50 l 1,7,-1
 8 24 l 1,8,-1
 24 32 l 1,9,-1
 27 25 l 1,10,11
 13 18 l 1,0,-1
EndSplineSet
Validated: 1
EndChar

StartChar: m
Encoding: 109 109 40
Width: 54
VWidth: 0
Flags: W
HStem: 0 21G<0 8 19 27 38 46> 0 21G<0 8 19 27 38 46> 24 8<8 19 27 33.2626>
VStem: 0 8<0 24> 19 8<0 24> 38 8<0 19.2627>
CounterMasks: 1 1c
LayerCount: 2
Fore
SplineSet
46 13 m 18,0,1
 46 0 l 1,2,-1
 38 -0 l 1,3,-1
 38 13 l 2,4,5
 37.9998 24 37.9998 24 27 24 c 1,6,-1
 27 -0 l 1,7,-1
 19 0 l 1,8,-1
 19 24 l 1,9,-1
 8 24 l 1,10,-1
 8 0 l 1,11,-1
 0 0 l 1,12,-1
 0 32 l 1,13,-1
 27 32 l 2,14,15
 46 32 46 32 46 13 c 18,0,1
EndSplineSet
Validated: 1
EndChar

StartChar: o
Encoding: 111 111 41
AltUni2: 00043e.ffffffff.0 0003bf.ffffffff.0
Width: 38
VWidth: 0
Flags: W
HStem: 0 8<9.88171 20.1183> 24 8<10.8078 19.1922>
VStem: 0 8<9.92578 20.8152> 22 8<9.92578 20.8152>
LayerCount: 2
Fore
SplineSet
8 14 m 4,0,1
 8 8 8 8 15 8 c 132,-1,2
 22 8 22 8 22 14 c 4,3,4
 21.9999 24 21.9999 24 15 24 c 132,-1,5
 8 24 8 24 8 14 c 4,0,1
0 13 m 4,6,7
 0 21 0 21 4.5 26.5 c 132,-1,8
 9 32 9 32 15 32 c 132,-1,9
 21 31.9999 21 31.9999 25.5 26.5 c 132,-1,10
 30 21 30 21 30 13 c 4,11,12
 30 0 30 0 15 0 c 132,-1,13
 0 0 0 0 0 13 c 4,6,7
EndSplineSet
Validated: 1
EndChar

StartChar: p
Encoding: 112 112 42
AltUni2: 000440.ffffffff.0
Width: 37
VWidth: 0
Flags: W
HStem: -14 21G<0 8> 24 8<8 15.3313>
VStem: 0 8<-14 0.477417 10 24> 19 8<16.7054 22.029>
LayerCount: 2
Fore
SplineSet
8 24 m 13,0,-1
 8 9 l 1,1,2
 12 9 12 9 16 12 c 0,3,4
 21 16 21 16 21 19 c 128,-1,5
 21 22.0001 21 22.0001 19 24 c 1,6,7
 8 24 l 13,0,-1
8 -14 m 29,8,-1
 -0 -14 l 1,9,-1
 -0 32 l 1,10,-1
 23 32 l 1,11,12
 29 27 29 27 29 20 c 0,13,14
 29 12 29 12 20 5 c 0,15,16
 16 2 16 2 8 0 c 1,17,-1
 8 -14 l 29,8,-1
EndSplineSet
Validated: 1
EndChar

StartChar: q
Encoding: 113 113 43
Width: 37
VWidth: 0
Flags: W
HStem: 0 21G<4.5 26.383> 24.334 7.5019<11.7852 19.4951> 30.8428 20G<4.5 11.7852>
VStem: 4.5 7.28516<9.50098 24.334 31.8359 50.833>
LayerCount: 2
Fore
SplineSet
21 24 m 17,0,-1
 10 24 l 1,1,2
 7.99999 22 7.99999 22 8 19 c 128,-1,3
 8 16 8 16 13 12 c 0,4,5
 17 9 17 9 21 9 c 1,6,-1
 21 24 l 17,0,-1
21 -14 m 25,7,-1
 21 0 l 1,8,9
 13 2 13 2 9 5 c 0,10,11
 0 12 0 12 -0 20 c 0,12,13
 0 27 0 27 6 32 c 1,14,-1
 29 32 l 1,15,-1
 29 -14 l 1,16,-1
 21 -14 l 25,7,-1
EndSplineSet
Validated: 1
EndChar

StartChar: r
Encoding: 114 114 44
AltUni2: 0002b3.ffffffff.0
Width: 34
VWidth: 0
Flags: W
HStem: 0 21G<0 8> 24 8<12.6821 23>
VStem: 0 8<0 20.3621>
LayerCount: 2
Fore
SplineSet
19 24 m 2,0,1
 8 23.9999 8 23.9999 8 17 c 2,2,-1
 8 0 l 1,3,-1
 0 0 l 1,4,-1
 0 17 l 2,5,6
 0 32 0 32 19 32 c 2,7,-1
 26 32 l 1,8,-1
 26 24 l 1,9,-1
 19 24 l 2,0,1
EndSplineSet
Validated: 1
EndChar

StartChar: s
Encoding: 115 115 45
AltUni2: 00017f.ffffffff.0 000455.ffffffff.0
Width: 37
VWidth: 0
Flags: W
HStem: 12.8369 7.8301<8.1009 16.1947> 23.8418 8.1514<7.96649 11.9883>
LayerCount: 2
Back
SplineSet
14 0 m 10,0,-1
 -6 0 l 1,1,-1
 -6 8 l 1,2,-1
 14 8 l 2,3,4
 18 8 18 8 18 11 c 0,5,6
 18 13 18 13 14 13 c 4,7,8
 0 13 0 13 0 23 c 4,9,10
 0 32 0 32 14 32 c 6,11,-1
 27 32 l 5,12,-1
 27 24 l 5,13,-1
 14 24 l 6,14,15
 10 24 10 24 10 22 c 4,16,17
 10 20.9999 10 20.9999 14 21 c 4,18,19
 27 21 27 21 27 11 c 0,20,21
 27 0 27 0 14 0 c 10,0,-1
EndSplineSet
Fore
SplineSet
23 21 m 6,0,1
 29 21 29 21 29 15 c 6,2,-1
 29 11 l 6,3,4
 29 0 29 0 0 0 c 5,5,-1
 0 8 l 5,6,7
 21 8 21 8 21 13 c 5,8,-1
 14 13 l 6,9,10
 0 13 0 13 0 22.5 c 132,-1,11
 0 32 0 32 14 32 c 6,12,-1
 29 32 l 5,13,-1
 29 25 l 5,14,-1
 14 25 l 6,15,16
 9 25 9 25 9 23 c 132,-1,17
 9 21 9 21 14 21 c 6,18,-1
 23 21 l 6,0,1
EndSplineSet
Validated: 1
EndChar

StartChar: period
Encoding: 46 46 46
Width: 16
VWidth: 0
Flags: W
HStem: 0 8.00391<0 7.99805>
VStem: 0 7.99805<0 8.00391>
LayerCount: 2
Fore
SplineSet
0 8.00391 m 5,0,-1
 7.99805 8.00391 l 1,1,-1
 7.99805 0 l 1,2,-1
 0 0 l 1,3,-1
 0 8.00391 l 5,0,-1
EndSplineSet
Validated: 1
EndChar

StartChar: u
Encoding: 117 117 48
Width: 37
VWidth: 0
Flags: W
HStem: -0 8<13.3484 20> 12 20G<3.5 13 20 28>
VStem: 0 8<12.9285 24.7853> 20 8<8 32>
LayerCount: 2
Fore
SplineSet
8 32 m 1,0,1
 8 9 8 9 21 9 c 1,2,-1
 21 32 l 1,3,-1
 29 32 l 1,4,-1
 29 0 l 1,5,-1
 21 0 l 2,6,7
 0 0 0 0 0 32 c 1,8,-1
 8 32 l 1,0,1
EndSplineSet
Validated: 1
EndChar

StartChar: t
Encoding: 116 116 49
Width: 30
VWidth: 0
Flags: W
HStem: 0 8<16.5531 22> 24 8<8 17> 30 20G<0 8>
VStem: -0 8<17.7246 24 32 50>
LayerCount: 2
Fore
SplineSet
17 24 m 29,0,-1
 8 24 l 1,1,2
 8 17 8 17 12.5 12.5 c 128,-1,3
 17 8 17 8 22 8 c 1,4,-1
 22 0 l 1,5,6
 15 0 15 0 7.5 6.5 c 128,-1,7
 0 13 0 13 0 24 c 2,8,-1
 0 50 l 1,9,-1
 8 50 l 1,10,-1
 8 32 l 1,11,-1
 17 32 l 1,12,-1
 17 24 l 29,0,-1
EndSplineSet
Validated: 1
EndChar

StartChar: v
Encoding: 118 118 50
Width: 37
Flags: W
LayerCount: 2
Fore
SplineSet
29.001 31.998 m 1,0,1
 29.001 20.9825 29.001 20.9825 21.8082 11.5733 c 128,-1,2
 14.6154 2.1641 14.6154 2.1641 6.5 -5.92041e-07 c 1,3,-1
 -9.53674e-07 -5.92041e-07 l 1,4,-1
 -9.53674e-07 32 l 1,5,-1
 8.16667 32 l 1,6,-1
 8.16602 9.833 l 1,7,8
 13.2612 12.9494 13.2612 12.9494 17.1315 20.0499 c 128,-1,9
 21.0018 27.1503 21.0018 27.1503 21.0088 32 c 1,10,-1
 29.001 31.998 l 1,0,1
EndSplineSet
Validated: 1
EndChar

StartChar: w
Encoding: 119 119 51
AltUni2: 0002b7.ffffffff.0
Width: 54
VWidth: 0
Flags: W
LayerCount: 2
Fore
SplineSet
46 21 m 2,0,1
 46 0 46 0 23 0 c 128,-1,2
 0 0 0 0 0 21 c 2,3,-1
 0 32 l 1,4,-1
 8 32 l 1,5,-1
 8 21 l 2,6,7
 8 8 8 8 19 8 c 1,8,-1
 19 32 l 1,9,-1
 27 32 l 1,10,-1
 27 8 l 1,11,12
 38 8 38 8 38 21 c 2,13,-1
 38 32 l 1,14,-1
 46 32 l 1,15,-1
 46 21 l 2,0,1
EndSplineSet
Validated: 1
EndChar

StartChar: x
Encoding: 120 120 52
AltUni2: 000445.ffffffff.0
Width: 40
VWidth: 0
Flags: W
HStem: 0 21G<0 16 16 32> 0 21G<0 16 16 32> 12 20G<0 16 16 32>
LayerCount: 2
Fore
SplineSet
6 32 m 1,0,-1
 16 22 l 1,1,-1
 26 32 l 1,2,-1
 32 26 l 1,3,-1
 22 16 l 1,4,-1
 32 6 l 1,5,-1
 26 0 l 1,6,-1
 16 10 l 1,7,-1
 6 0 l 1,8,-1
 -0 6 l 1,9,-1
 10 16 l 1,10,-1
 0 26 l 1,11,-1
 6 32 l 1,0,-1
EndSplineSet
Validated: 1
EndChar

StartChar: y
Encoding: 121 121 53
AltUni2: 0002b8.ffffffff.0 000443.ffffffff.0
Width: 36
VWidth: 0
Flags: W
HStem: -13.9922 21G<-0.00585938 13.9839> 0.666016 21G<8.16798 17.668> 12 20G<0 7.91667 19.167 27>
VStem: 0 7.83333<20.9528 32> 19.167 7.833<18.8984 32>
LayerCount: 2
Back
SplineSet
0 -14 m 5,0,1
 7 -7 7 -7 11 2 c 1,2,3
 0 10 0 10 0 32 c 1,4,-1
 8 32 l 1,5,6
 8 16 8 16 15 10 c 1,7,8
 19 20 19 20 19 32 c 1,9,-1
 27 32 l 1,10,11
 27 7 27 7 10 -14 c 1,12,-1
 0 -14 l 5,0,1
EndSplineSet
Fore
SplineSet
20 5 m 5,0,1
 0 5 0 5 0 32 c 5,2,-1
 8 32 l 5,3,4
 8 14 8 14 20 14 c 5,5,-1
 20 32 l 5,6,-1
 28 32 l 5,7,-1
 28 5 l 6,8,9
 28 -14 28 -14 10 -14 c 2,10,-1
 5 -14 l 1,11,-1
 5 -6 l 1,12,-1
 10 -6 l 2,13,14
 20 -6 20 -6 20 5 c 5,0,1
EndSplineSet
Validated: 1
EndChar

StartChar: z
Encoding: 122 122 54
Width: 39
VWidth: 0
Flags: W
HStem: 0 8.00586<13.002 33> 24.0029 7.9971<0 11.9912>
LayerCount: 2
Fore
SplineSet
0 32 m 13,0,-1
 29 32 l 5,1,-1
 13 8 l 5,2,-1
 31 8 l 5,3,-1
 31 0 l 5,4,-1
 -2 0 l 5,5,-1
 14 24 l 5,6,-1
 -0 24 l 5,7,-1
 0 32 l 13,0,-1
EndSplineSet
Validated: 1
EndChar

StartChar: backslash
Encoding: 92 92 55
Width: 50
VWidth: 0
Flags: W
LayerCount: 2
Fore
SplineSet
9 50.0566 m 1,0,-1
 42 -13.9434 l 1,1,-1
 33 -13.9434 l 1,2,-1
 0 50.0566 l 1,3,-1
 9 50.0566 l 1,0,-1
EndSplineSet
Validated: 1
EndChar

StartChar: comma
Encoding: 44 44 56
Width: 16
VWidth: 0
Flags: W
HStem: -11 19
VStem: 0 7.99805<-1.42176 8>
LayerCount: 2
Fore
SplineSet
8 8 m 1,0,1
 8 -5 8 -5 1 -11 c 1,2,-1
 -4 -5 l 1,3,4
 4.76837e-06 -0.999995 4.76837e-06 -0.999995 0 8 c 1,5,-1
 8 8 l 1,0,1
EndSplineSet
Validated: 1
EndChar

StartChar: hyphen
Encoding: 45 45 58
Width: 25
VWidth: 0
Flags: W
HStem: 0 8.5<14.8926 21.833>
VStem: 21.833 8.167<8.5 23.333>
LayerCount: 2
Fore
SplineSet
0 12 m 5,0,-1
 0 20 l 5,1,-1
 17 20 l 5,2,-1
 17 12 l 5,3,-1
 0 12 l 5,0,-1
EndSplineSet
Validated: 1
EndChar

StartChar: exclam
Encoding: 33 33 59
Width: 16
VWidth: 0
Flags: W
HStem: 0 21G<0 7.99805> 30.0039 20G<0 7.99805>
VStem: 0 7.99805<0 50.0039>
LayerCount: 2
Fore
SplineSet
0 49.8359 m 1,0,-1
 7.99805 49.8359 l 1,1,-1
 7.99805 16.0039 l 1,2,-1
 0 16.0039 l 1,3,-1
 0 49.8359 l 1,0,-1
0 8.00391 m 1,4,-1
 7.99805 8.00391 l 1,5,-1
 7.99805 0 l 1,6,-1
 0 0 l 1,7,-1
 0 8.00391 l 1,4,-1
EndSplineSet
Validated: 1
EndChar

StartChar: slash
Encoding: 47 47 60
Width: 50
VWidth: 0
Flags: W
LayerCount: 2
Fore
SplineSet
9 -14 m 5,0,-1
 0 -14 l 5,1,-1
 33 50 l 5,2,-1
 42 50 l 5,3,-1
 9 -14 l 5,0,-1
EndSplineSet
Validated: 1
EndChar

StartChar: equal
Encoding: 61 61 61
Width: 30
VWidth: 0
Flags: W
HStem: 0 8.5<14.8926 21.833>
VStem: 21.833 8.167<8.5 23.333>
LayerCount: 2
Fore
SplineSet
0 19 m 1,0,-1
 0 27 l 1,1,-1
 22 27 l 1,2,-1
 22 19 l 1,3,-1
 0 19 l 1,0,-1
0 5 m 1,4,-1
 0 13 l 1,5,-1
 22 13 l 1,6,-1
 22 5 l 1,7,-1
 0 5 l 1,4,-1
EndSplineSet
Validated: 1
EndChar

StartChar: quotesingle
Encoding: 39 39 62
AltUni2: 0002bc.ffffffff.0 0002b9.ffffffff.0
Width: 16
VWidth: 0
Flags: W
HStem: 0 21G<0 7.99805> 30.0039 20G<0 7.99805>
VStem: 0 7.99805<0 50.0039>
LayerCount: 2
Fore
SplineSet
0 50 m 1,0,-1
 8 50 l 1,1,-1
 8 36 l 1,2,-1
 0 36 l 1,3,-1
 0 50 l 1,0,-1
EndSplineSet
Validated: 1
EndChar

StartChar: quotedbl
Encoding: 34 34 63
AltUni2: 00030e.ffffffff.0 00030b.ffffffff.0 0002ba.ffffffff.0
Width: 30
VWidth: 0
Flags: W
HStem: 0 21G<0 7.99805> 30.0039 20G<0 7.99805>
VStem: 0 7.99805<0 50.0039>
LayerCount: 2
Fore
SplineSet
14 50 m 5,0,-1
 22 50 l 5,1,-1
 22 36 l 5,2,-1
 14 36 l 5,3,-1
 14 50 l 5,0,-1
0 50 m 5,4,-1
 8 50 l 5,5,-1
 8 36 l 5,6,-1
 0 36 l 5,7,-1
 0 50 l 5,4,-1
EndSplineSet
Validated: 1
EndChar

StartChar: underscore
Encoding: 95 95 64
Width: 35
VWidth: 0
Flags: W
LayerCount: 2
Fore
SplineSet
-0 8 m 5,0,-1
 27 8 l 1,1,-1
 27 0 l 1,2,-1
 0 0 l 1,3,-1
 -0 8 l 5,0,-1
EndSplineSet
Validated: 1
EndChar

StartChar: bracketleft
Encoding: 91 91 65
Width: 24
VWidth: 0
Flags: W
LayerCount: 2
Fore
SplineSet
8 -6 m 1,0,-1
 16 -6 l 1,1,-1
 16 -14 l 1,2,-1
 0 -14 l 1,3,-1
 0 50 l 1,4,-1
 16 50 l 1,5,-1
 16 42 l 1,6,-1
 8 42 l 1,7,-1
 8 -6 l 1,0,-1
EndSplineSet
Validated: 1
EndChar

StartChar: grave
Encoding: 96 96 67
Width: 20
VWidth: 0
Flags: W
HStem: 36 14.0039<0 3.99805>
VStem: 0 3.99805<48.4355 50.0039>
LayerCount: 2
Fore
SplineSet
0 46.0039 m 1,0,-1
 5.99805 46.0039 l 1,1,-1
 13.998 36 l 1,2,-1
 4 36 l 1,3,-1
 0 46.0039 l 1,0,-1
EndSplineSet
Validated: 1
EndChar

StartChar: percent
Encoding: 37 37 68
Width: 44
VWidth: 0
Flags: W
LayerCount: 2
Fore
SplineSet
26 8 m 128,-1,1
 26 6 26 6 28 6 c 128,-1,2
 30.0001 6 30.0001 6 30 8 c 128,-1,3
 30 10 30 10 28 10 c 128,-1,0
 26 9.99999 26 9.99999 26 8 c 128,-1,1
6 35 m 128,-1,5
 6 32.9991 6 32.9991 8 33 c 128,-1,6
 10 33 10 33 10 35 c 128,-1,7
 9.99999 37 9.99999 37 8 37 c 128,-1,4
 6 36.9998 6 36.9998 6 35 c 128,-1,5
20 8 m 128,-1,9
 20 16 20 16 28 16 c 128,-1,10
 36 16 36 16 36 8 c 128,-1,11
 35.9998 0 35.9998 0 28 0 c 128,-1,8
 20 0 20 0 20 8 c 128,-1,9
0 35 m 128,-1,13
 0 43 0 43 8 43 c 128,-1,14
 16 42.9998 16 42.9998 16 35 c 128,-1,15
 16 27 16 27 8 27 c 128,-1,12
 0 27 0 27 0 35 c 128,-1,13
7 -2 m 5,16,-1
 0 3 l 5,17,-1
 29 45 l 5,18,-1
 36 40 l 5,19,-1
 7 -2 l 5,16,-1
EndSplineSet
Validated: 1
EndChar

StartChar: zero
Encoding: 48 48 69
Width: 44
VWidth: 0
Flags: W
HStem: 0 8<14.7263 25.2737> 42 8<16.2984 23.8317>
VStem: 0 8<14.7345 29.5796> 32 8<14.7345 29.5796>
LayerCount: 2
Fore
SplineSet
8 20 m 0,0,1
 8 8 8 8 18 8 c 128,-1,2
 28 8 28 8 28 20 c 0,3,4
 28 42 28 42 18 42 c 128,-1,5
 8 42 8 42 8 20 c 0,0,1
0 20 m 0,6,7
 0 32 0 32 5.5 41 c 128,-1,8
 11 50 11 50 18 50 c 0,9,10
 26 50 26 50 31 41 c 128,-1,11
 36 32 36 32 36 20 c 0,12,13
 36 0 36 0 18 0 c 128,-1,14
 0 0 0 0 0 20 c 0,6,7
EndSplineSet
Validated: 1
EndChar

StartChar: two
Encoding: 50 50 70
Width: 48
VWidth: 0
Flags: W
LayerCount: 2
Fore
SplineSet
4 50 m 5,0,-1
 19 50 l 6,1,2
 35 49.9999 35 49.9999 35 39 c 4,3,4
 35 33 35 33 13 8 c 5,5,-1
 36 8 l 5,6,-1
 40 0 l 5,7,-1
 3 0 l 5,8,-1
 0 7 l 5,9,10
 27 34 27 34 27 39 c 4,11,12
 27 42 27 42 19 42 c 6,13,-1
 7 42 l 5,14,-1
 4 50 l 5,0,-1
EndSplineSet
Validated: 1
EndChar

StartChar: three
Encoding: 51 51 71
Width: 44
VWidth: 0
Flags: W
HStem: -0.000976562 21G<-0.00308681 17.9961> 24.1689 8<8.50195 15.625> 38.5439 9.125<8.50195 12.9997>
VStem: -0.00390625 8.33691<11.667 24.1689 32.1689 38.5439>
LayerCount: 2
Fore
SplineSet
0 7 m 5,0,1
 28 14 28 14 28 20 c 4,2,3
 28 23 28 23 24 24 c 5,4,-1
 0 24 l 5,5,-1
 0 32 l 5,6,-1
 16 32 l 5,7,8
 18.0001 34 18.0001 34 18 37 c 4,9,10
 18 43 18 43 0 43 c 5,11,-1
 0 50 l 5,12,13
 26 50 26 50 26 38 c 4,14,15
 26 34 26 34 24 32 c 5,16,17
 36 28 36 28 36 20 c 4,18,19
 36 6 36 6 0 0 c 5,20,-1
 0 7 l 5,0,1
EndSplineSet
Validated: 1
EndChar

StartChar: four
Encoding: 52 52 72
Width: 44
VWidth: 0
Flags: W
LayerCount: 2
Fore
SplineSet
8 34 m 4,0,1
 8 20 8 20 28 20 c 5,2,-1
 28 50 l 5,3,-1
 36 50 l 5,4,-1
 36 0 l 5,5,-1
 28 0 l 5,6,-1
 28 12 l 5,7,8
 0 14 0 14 0 34 c 4,9,-1
 0 50 l 5,10,-1
 8 50 l 5,11,12
 8 34 l 4,0,1
EndSplineSet
Validated: 1
EndChar

StartChar: five
Encoding: 53 53 73
Width: 48
VWidth: 0
Flags: W
LayerCount: 2
Fore
SplineSet
16 36 m 17,0,1
 40 34 40 34 40 22 c 0,2,3
 40 3 40 3 0 0 c 1,4,-1
 0 8 l 1,5,6
 9 8 9 8 20.5 12 c 128,-1,7
 32 16 32 16 32 22 c 128,-1,8
 32 28 32 28 8 28 c 1,9,-1
 8 50 l 1,10,-1
 35 50 l 1,11,-1
 31 42 l 1,12,-1
 16 42 l 1,13,-1
 16 36 l 17,0,1
EndSplineSet
Validated: 1
EndChar

StartChar: six
Encoding: 54 54 74
Width: 45
VWidth: 0
Flags: W
LayerCount: 2
Fore
SplineSet
11 31 m 1,0,1
 13 32 13 32 19 32 c 0,2,3
 37 32 37 32 37 16 c 128,-1,4
 37 0 37 0 18.5 0 c 128,-1,5
 0 0 0 0 0 19 c 0,6,7
 0 30 0 30 8 40 c 0,8,9
 15 49.0001 15 49.0001 29 50 c 1,10,-1
 29 42 l 1,11,12
 18 41 18 41 11 31 c 1,0,1
8 16 m 128,-1,14
 8 8 8 8 18.5 8 c 128,-1,15
 29 8 29 8 29 16 c 128,-1,16
 29 24 29 24 18.5 24 c 128,-1,13
 8 24 8 24 8 16 c 128,-1,14
EndSplineSet
Validated: 1
EndChar

StartChar: seven
Encoding: 55 55 75
Width: 44
VWidth: 0
Flags: W
HStem: 0 21G<0 8> 30 20G<0 8>
VStem: 0 8<0 50>
LayerCount: 2
Fore
SplineSet
23 0 m 1,0,-1
 15 0 l 1,1,2
 15 21 15 21 24 42 c 1,3,-1
 0 42 l 1,4,-1
 0 50 l 1,5,-1
 36 50 l 1,6,7
 23 23 23 23 23 0 c 1,0,-1
EndSplineSet
Validated: 1
EndChar

StartChar: plus
Encoding: 43 43 76
Width: 32
VWidth: 0
Flags: W
HStem: 0 8.5<14.8926 21.833>
VStem: 21.833 8.167<8.5 23.333>
LayerCount: 2
Fore
SplineSet
8 28 m 5,0,-1
 16 28 l 5,1,-1
 16 20 l 5,2,-1
 24 20 l 5,3,-1
 24 12 l 5,4,-1
 16 12 l 5,5,-1
 16 4 l 5,6,-1
 8 4 l 5,7,-1
 8 12 l 5,8,-1
 0 12 l 5,9,-1
 0 20 l 5,10,-1
 8 20 l 5,11,-1
 8 28 l 5,0,-1
EndSplineSet
Validated: 1
EndChar

StartChar: question
Encoding: 63 63 77
Width: 35
VWidth: 0
Flags: W
LayerCount: 2
Fore
SplineSet
19 24 m 2,0,-1
 11 15 l 1,1,-1
 5 20 l 1,2,-1
 13 29 l 2,3,4
 18 35 18 35 18 38 c 0,5,6
 18 42 18 42 8 42 c 2,7,-1
 0 42 l 1,8,-1
 0 50 l 1,9,-1
 8 50 l 2,10,11
 27 50 27 50 27 39 c 0,12,13
 27 33 27 33 19 24 c 2,0,-1
4 0 m 1,14,-1
 4 8 l 1,15,-1
 11.999 8.00098 l 1,16,-1
 11.998 0 l 1,17,-1
 4 0 l 1,14,-1
EndSplineSet
Validated: 1
EndChar

StartChar: eight
Encoding: 56 56 78
Width: 46
VWidth: 0
Flags: W
LayerCount: 2
Fore
SplineSet
14 28 m 17,0,1
 8 23 8 23 8 15 c 0,2,3
 8 8 8 8 19 8 c 128,-1,4
 30 8 30 8 30 15 c 0,5,6
 30 23 30 23 24 28 c 1,7,-1
 14 28 l 17,0,1
15 36 m 9,8,-1
 23 36 l 1,9,10
 22.9999 42 22.9999 42 19 42 c 128,-1,11
 15 42 15 42 15 36 c 9,8,-1
6 32 m 1,12,13
 6 50 6 50 19 50 c 128,-1,14
 32 50 32 50 32 32 c 1,15,16
 38 27 38 27 38 14 c 0,17,18
 38 0 38 0 19 0 c 128,-1,19
 0 0 0 0 0 13.5 c 128,-1,20
 0 27 0 27 6 32 c 1,12,13
EndSplineSet
Validated: 1
EndChar

StartChar: nine
Encoding: 57 57 79
Width: 45
VWidth: 0
Flags: W
LayerCount: 2
Fore
SplineSet
26 19 m 1,0,1
 24 18 24 18 18 18 c 0,2,3
 0 18 0 18 0 34 c 128,-1,4
 0 50 0 50 19 50 c 0,5,6
 37 50 37 50 37 31 c 0,7,8
 37 20 37 20 30 11 c 0,9,10
 22 1 22 1 8 0 c 1,11,-1
 8 8 l 1,12,13
 19 9 19 9 26 19 c 1,0,1
29 34 m 128,-1,15
 29 42 29 42 19 42 c 0,16,17
 8 41.9998 8 41.9998 8 34 c 128,-1,18
 8 26 8 26 18.5 26 c 128,-1,14
 29 26 29 26 29 34 c 128,-1,15
EndSplineSet
Validated: 1
EndChar

StartChar: parenleft
Encoding: 40 40 80
Width: 25
VWidth: 0
Flags: W
HStem: 0 21G<0 8> 30 20G<0 8>
VStem: 0 8<0 50>
LayerCount: 2
Fore
SplineSet
17 -14 m 1,0,1
 8 -14 l 1,2,3
 0 0 0 0 0 18 c 128,-1,4
 0 36 0 36 8 50 c 1,5,-1
 17 50 l 1,6,7
 8 34 8 34 8 18 c 0,8,9
 8 3 8 3 17 -14 c 1,0,1
EndSplineSet
Validated: 1
EndChar

StartChar: asterisk
Encoding: 42 42 82
Width: 36
VWidth: 0
Flags: W
HStem: 0 8.5<14.8926 21.833>
VStem: 21.833 8.167<8.5 23.333>
LayerCount: 2
Fore
SplineSet
0 20 m 25,0,-1
 7 20 l 1,1,-1
 3 27 l 1,2,-1
 10 31 l 1,3,-1
 14 24 l 1,4,-1
 18 31 l 1,5,-1
 25 27 l 1,6,-1
 21 20 l 1,7,-1
 28 20 l 1,8,-1
 28 12 l 1,9,-1
 21 12 l 1,10,-1
 25 5 l 1,11,-1
 18 1 l 1,12,-1
 14 8 l 1,13,-1
 10 1 l 1,14,-1
 3 5 l 1,15,-1
 7 12 l 1,16,-1
 0 12 l 1,17,-1
 0 20 l 25,0,-1
EndSplineSet
Validated: 1
EndChar

StartChar: at
Encoding: 64 64 83
Width: 56
VWidth: 0
Flags: W
HStem: 0 8<29.4237 40> 30 8<22.2269 32> 42 8.00391<21.6772 43.8942>
VStem: 0 8<25.2612 34.9719> 14.001 7.9072<25.6918 29.3071> 32 8<21 30> 48 7.99805<24.5193 37.0866>
LayerCount: 2
Fore
SplineSet
35 42 m 1,0,1
 8 42 8 42 8 31 c 0,2,3
 8 24 8 24 16 16 c 1,4,5
 26 8 26 8 40 8 c 1,6,-1
 40 0 l 1,7,8
 21 0 21 0 10 11 c 0,9,10
 0 21 0 21 0 31 c 0,11,12
 0 50 0 50 38 50 c 1,13,14
 48 41 48 41 48 12 c 1,15,-1
 36 12 l 2,16,17
 26 12 26 12 20 17 c 128,-1,18
 14 22 14 22 14 29 c 0,19,20
 14 38.0909 14 38.0909 29.7025 38.0909 c 0,21,22
 31.2727 38.0909 31.2727 38.0909 33 38 c 1,23,24
 36 32 36 32 36 20 c 1,25,-1
 40 20 l 1,26,27
 40 34 40 34 35 42 c 1,0,1
29 21 m 1,28,29
 29 26 29 26 28 30 c 1,30,31
 22 30 22 30 22 28 c 0,32,33
 22 23 22 23 29 21 c 1,28,29
EndSplineSet
Validated: 1
EndChar

StartChar: ampersand
Encoding: 38 38 84
Width: 50
VWidth: 0
Flags: W
LayerCount: 2
Back
SplineSet
0 0 m 17,0,-1
 -23 0 l 2,1,2
 -42 0 -42 0 -42 11 c 128,-1,3
 -42 22 -42 22 -36 25 c 1,4,5
 -36 42 -36 42 -23 42 c 2,6,-1
 -13 42 l 1,7,-1
 -16 34 l 1,8,-1
 -23 34 l 2,9,10
 -27 34 -27 34 -27 28 c 1,11,-1
 -12 28 l 1,12,-1
 0 0 l 17,0,-1
-18 20 m 17,13,-1
 -28 20 l 2,14,15
 -34 20 -34 20 -34 14 c 128,-1,16
 -34 8 -34 8 -23 8 c 2,17,-1
 -13 8 l 1,18,-1
 -18 20 l 17,13,-1
EndSplineSet
Fore
SplineSet
30 15 m 9,0,1
 25 15 l 1,2,-1
 25 23 l 1,3,-1
 42 23 l 1,4,-1
 42 15 l 1,5,-1
 38 15 l 1,6,7
 38 0 38 0 19 0 c 128,-1,8
 0 0 0 0 0 11 c 128,-1,9
 0 22 0 22 6 25 c 1,10,11
 6 42 6 42 19 42 c 2,12,-1
 29 42 l 5,13,-1
 29 34 l 5,14,-1
 19 34 l 6,15,16
 15 34 15 34 15 28 c 5,17,-1
 20 28 l 5,18,-1
 20 20 l 1,19,-1
 14 20 l 2,20,21
 8 20 8 20 8 14 c 132,-1,22
 8 8 8 8 19 8 c 132,-1,23
 30 8 30 8 30 15 c 9,0,1
EndSplineSet
Validated: 1
EndChar

StartChar: dollar
Encoding: 36 36 85
Width: 43
VWidth: 0
Flags: W
LayerCount: 2
Fore
SplineSet
22 0 m 1,0,-1
 13 0 l 1,1,-1
 12.9713 6.37092 l 1,2,3
 7.23848 5.7998 7.23848 5.7998 -0 5.7998 c 1,4,-1
 -0 15.4004 l 1,5,6
 25.2002 15.4004 25.2002 15.4004 25.2002 21.4004 c 1,7,-1
 16.7998 21.4004 l 2,8,9
 -0 21.4004 -0 21.4004 -0 32.7998 c 0,10,11
 0 42.762 0 42.762 12.8291 44.0186 c 1,12,-1
 13 50 l 1,13,-1
 22 50 l 1,14,-1
 22.1143 44.2002 l 1,15,-1
 34.7998 44.2002 l 1,16,-1
 34.7998 35.7998 l 1,17,-1
 16.7998 35.7998 l 2,18,19
 10.7998 35.7998 10.7998 35.7998 10.7998 33.4004 c 128,-1,20
 10.7998 31 10.7998 31 16.7998 31 c 2,21,-1
 27.5996 31 l 2,22,23
 34.7998 31 34.7998 31 34.7998 23.7998 c 2,24,-1
 34.7998 19 l 2,25,26
 34.7998 11.0302 34.7998 11.0302 22.1142 7.87227 c 1,27,28
 22 0 l 1,0,-1
EndSplineSet
Validated: 1
EndChar

StartChar: less
Encoding: 60 60 86
Width: 28
VWidth: 0
Flags: W
LayerCount: 2
Fore
SplineSet
0 17 m 1,0,-1
 12 32 l 1,1,-1
 20 32 l 1,2,-1
 10 17 l 1,3,-1
 20 0 l 1,4,-1
 12 0 l 1,5,-1
 0 17 l 1,0,-1
EndSplineSet
Validated: 1
EndChar

StartChar: asciicircum
Encoding: 94 94 88
AltUni2: 000302.ffffffff.0 0002c6.ffffffff.0 0002c4.ffffffff.0
Width: 32
VWidth: 0
Flags: W
HStem: 0 21G<0 7.99805> 30.0039 20G<0 7.99805>
VStem: 0 7.99805<0 50.0039>
LayerCount: 2
Fore
SplineSet
12 50 m 1,0,-1
 24 36 l 1,1,-1
 16 36 l 1,2,-1
 12 39 l 1,3,-1
 8 36 l 1,4,-1
 0 36 l 1,5,-1
 12 50 l 1,0,-1
EndSplineSet
Validated: 1
EndChar

StartChar: numbersign
Encoding: 35 35 89
Width: 48
VWidth: 0
Flags: W
HStem: 0 21G<0 8> 0 21G<0 8> 30 20G<0 8>
VStem: 0 8<0 50>
LayerCount: 2
Fore
SplineSet
32 24 m 1,0,-1
 32 16 l 1,1,-1
 40 16 l 1,2,-1
 40 8 l 1,3,-1
 32 8 l 1,4,-1
 32 0 l 1,5,-1
 24 0 l 1,6,-1
 24 8 l 1,7,-1
 16 8 l 1,8,-1
 16 0 l 1,9,-1
 8 0 l 1,10,-1
 8 8 l 1,11,-1
 0 8 l 1,12,-1
 0 16 l 1,13,-1
 8 16 l 1,14,-1
 8 24 l 1,15,-1
 0 24 l 1,16,-1
 0 32 l 1,17,-1
 8 32 l 1,18,-1
 8 40 l 1,19,-1
 16 40 l 1,20,-1
 16 32 l 1,21,-1
 24 32 l 1,22,-1
 24 40 l 1,23,-1
 32 40 l 1,24,-1
 32 32 l 1,25,-1
 40 32 l 1,26,-1
 40 24 l 1,27,-1
 32 24 l 1,0,-1
24 24 m 1,28,-1
 16 24 l 1,29,-1
 16 16 l 1,30,-1
 24 16 l 1,31,-1
 24 24 l 1,28,-1
EndSplineSet
Validated: 1
EndChar

StartChar: uni009C
Encoding: 156 156 90
Width: 36
VWidth: 0
Flags: W
LayerCount: 2
Fore
SplineSet
0 66 m 1,0,-1
 28 66 l 1,1,-1
 28 -14 l 1,2,-1
 0 -14 l 1,3,-1
 0 66 l 1,0,-1
EndSplineSet
Validated: 1
EndChar

StartChar: dieresis
Encoding: 168 168 93
AltUni2: 000308.ffffffff.0
Width: 44
VWidth: 0
Flags: W
LayerCount: 2
Fore
SplineSet
24 63 m 1,0,-1
 32 63 l 1,1,-1
 32 55 l 1,2,-1
 24 55 l 1,3,-1
 24 63 l 1,0,-1
12 63 m 1,4,-1
 20 63 l 1,5,-1
 20 55 l 1,6,-1
 12 55 l 1,7,-1
 12 63 l 1,4,-1
EndSplineSet
Validated: 1
EndChar

StartChar: degree
Encoding: 176 176 94
AltUni2: 00030a.ffffffff.0
Width: 64
VWidth: 0
LayerCount: 2
Fore
SplineSet
12.0977 41.0171 m 128,-1,1
 12.0977 38.0283 12.0977 38.0283 14.0889 38.0283 c 128,-1,2
 16.0801 38.0283 16.0801 38.0283 16.0801 41.0171 c 128,-1,3
 16.0801 44.0059 16.0801 44.0059 14.0889 44.0059 c 128,-1,0
 12.0977 44.0059 12.0977 44.0059 12.0977 41.0171 c 128,-1,1
6.41699 40.9336 m 128,-1,5
 6.41699 47.9336 6.41699 47.9336 13.917 47.9336 c 128,-1,6
 21.417 47.9336 21.417 47.9336 21.417 40.9336 c 128,-1,7
 21.417 33.9336 21.417 33.9336 13.917 33.9336 c 128,-1,4
 6.41699 33.9336 6.41699 33.9336 6.41699 40.9336 c 128,-1,5
EndSplineSet
Validated: 1
EndChar

StartChar: acute
Encoding: 180 180 98
AltUni2: 000301.ffffffff.0
Width: 20
VWidth: 0
Flags: W
HStem: 27.5453 14.0039<5.875 9.87305>
VStem: 5.875 3.99805<27.5453 29.1137>
LayerCount: 2
Fore
SplineSet
0 36.3994 m 1,0,-1
 5.99805 36.3994 l 1,1,-1
 13.998 46.4033 l 1,2,-1
 4 46.4033 l 1,3,-1
 0 36.3994 l 1,0,-1
EndSplineSet
Validated: 1
EndChar

StartChar: cedilla
Encoding: 184 184 102
Width: 35
VWidth: 0
Flags: W
LayerCount: 2
Fore
SplineSet
13 -3 m 0,0,1
 13 0 l 1,2,-1
 19 0 l 1,3,-1
 19 -2 l 0,4,5
 25 -5 25 -5 25 -8 c 0,6,7
 25 -14 25 -14 14 -14 c 2,8,-1
 9 -14 l 1,9,-1
 9 -10 l 1,10,-1
 14 -10 l 2,11,12
 19 -10 19 -10 19 -8.5 c 128,-1,13
 19 -7 19 -7 13 -3 c 0,0,1
EndSplineSet
Validated: 1
EndChar

StartChar: ccedilla
Encoding: 231 231 104
Width: 33
VWidth: 0
Flags: W
LayerCount: 2
Fore
SplineSet
0 20 m 144,-1,1
 0 30 0 30 15 32 c 1,2,-1
 26 32 l 1,3,-1
 26 24 l 1,4,-1
 15 24 l 1,5,6
 8 23 8 23 8 19 c 128,-1,7
 8 15 8 15 14 11 c 0,8,9
 18 8 18 8 26 8 c 1,10,-1
 26 0 l 1,11,12
 22 0 22 0 19 1 c 1,13,-1
 19 -0 l 0,14,15
 26 -4 26 -4 26 -7 c 0,16,17
 26 -14 26 -14 13 -14 c 2,18,-1
 8 -14 l 1,19,-1
 8 -9 l 1,20,-1
 13 -9 l 2,21,22
 20 -9 20 -9 20 -7 c 0,23,24
 20 -6 20 -6 12 -1 c 0,25,-1
 12 3 l 1,26,0
 0 10 0 10 0 20 c 144,-1,1
EndSplineSet
Validated: 1
EndChar

StartChar: CYRILLI_CAPITAL_BE
Encoding: 1041 1041 105
Width: 44
VWidth: 0
Flags: W
HStem: -0.000976562 21G<-0.00308681 17.9961> 24.1689 8<8.50195 15.625> 38.5439 9.125<8.50195 12.9997>
VStem: -0.00390625 8.33691<11.667 24.1689 32.1689 38.5439>
LayerCount: 2
Fore
SplineSet
8 41 m 25,0,-1
 8 32 l 1,1,-1
 24.001 32 l 1,2,3
 36 28 36 28 36 20 c 0,4,5
 36 6 36 6 0 0 c 1,6,-1
 0 50 l 1,7,-1
 28.999 49.9971 l 25,8,-1
 29 40.9941 l 25,9,-1
 8 41 l 25,0,-1
8 24 m 25,10,-1
 8 10 l 1,11,12
 28 15 28 15 28 20 c 0,13,14
 28 23 28 23 24 24 c 1,15,-1
 8 24 l 25,10,-1
EndSplineSet
Validated: 1
EndChar

StartChar: AE
Encoding: 198 198 107
Width: 60
VWidth: 0
Flags: W
LayerCount: 2
Fore
SplineSet
11 32 m 1,0,-1
 24 32 l 1,1,-1
 24 41 l 1,2,3
 18 41 18 41 11 32 c 1,0,-1
52 50 m 1,4,-1
 52 42 l 1,5,-1
 32 42 l 1,6,-1
 32 36 l 1,7,-1
 52 36 l 1,8,-1
 52 28 l 1,9,-1
 32 28 l 1,10,-1
 32 8 l 1,11,-1
 52 8 l 1,12,-1
 52 0 l 1,13,-1
 24 0 l 1,14,-1
 24 24 l 1,15,-1
 9 24 l 1,16,17
 8 21 8 21 8 18 c 0,18,-1
 8 0 l 25,19,-1
 0 0 l 25,20,-1
 0 19 l 17,21,22
 0 34.2597 0 34.2597 11 44 c 0,23,24
 18.9053 50 18.9053 50 24 50 c 1,25,-1
 52 50 l 1,4,-1
EndSplineSet
Validated: 1
EndChar

StartChar: ae
Encoding: 230 230 108
Width: 59
VWidth: 0
Flags: W
LayerCount: 2
Fore
SplineSet
26 29 m 1,0,1
 29 32 29 32 35 32 c 10,2,-1
 51 32 l 17,3,-1
 51 14 l 9,4,-1
 30 14 l 1,5,-1
 30 8 l 2,6,-1
 51 8 l 1,7,-1
 51 0 l 1,8,-1
 29 0 l 1,9,10
 14 0 14 0 9 2 c 0,11,12
 0 6 0 6 0 14 c 2,13,-1
 0 21 l 17,14,-1
 21 21 l 1,15,16
 21 25 21 25 8 25 c 2,17,-1
 -0 25 l 1,18,-1
 0 32 l 1,19,-1
 17 32 l 2,20,21
 23 32 23 32 26 29 c 1,0,1
43 21 m 17,22,-1
 43 26 l 0,23,24
 30 26 30 26 30 21 c 1,25,-1
 43 21 l 17,22,-1
21 14 m 17,26,-1
 8 14 l 1,27,28
 8 11 8 11 9 10 c 0,29,30
 12 7 12 7 21 7 c 1,31,-1
 21 14 l 17,26,-1
EndSplineSet
Validated: 1
EndChar

StartChar: Thorn
Encoding: 222 222 109
Width: 44
VWidth: 0
Flags: W
HStem: 0 21G<0 7.99902> 41.6973 8.3066<7.98926 17.5976>
VStem: 0 7.99121<0 10.8359 19.8418 41.6973>
LayerCount: 2
Fore
SplineSet
22 23 m 0,0,1
 28 23 28 23 28 27 c 128,-1,2
 28 31 28 31 22 31 c 0,3,-1
 8 31 l 9,4,-1
 8 23 l 1,5,-1
 22 23 l 0,0,1
8 14 m 1,6,-1
 8 0 l 1,7,-1
 0 0 l 1,8,-1
 0 50 l 1,9,-1
 8 50.0029 l 1,10,-1
 7.99902 39.0029 l 1,11,-1
 22 39 l 1,12,13
 36 39 36 39 36 26.5 c 128,-1,14
 36 14 36 14 21 14 c 1,15,-1
 8 14 l 1,6,-1
EndSplineSet
Validated: 1
EndChar

StartChar: germandbls
Encoding: 223 223 110
Width: 44
VWidth: 0
Flags: W
HStem: -0.000976562 21G<-0.00308681 17.9961> 24.1689 8<8.50195 15.625> 38.5439 9.125<8.50195 12.9997>
VStem: -0.00390625 8.33691<11.667 24.1689 32.1689 38.5439>
LayerCount: 2
Fore
SplineSet
26 32 m 1,0,1
 36 29 36 29 36 21 c 0,15,16
 36 8 36 8 16 -0 c 1,13,14
 16 8 l 1,12,-1
 28 14 28 14 28 20 c 0,10,11
 28 24.5 28 24.5 18 27 c 1,8,9
 18 32 l 18,7,-1
 18 41 18 41 8 41 c 9,5,6
 8 -0 l 25,4,-1
 0 0 l 17,3,-1
 0 50 l 1,2,-1
 26 50 26 50 26 32 c 1,0,1
EndSplineSet
Validated: 1
EndChar

StartChar: Oslash
Encoding: 216 216 111
Width: 48
VWidth: 0
Flags: W
LayerCount: 2
Fore
SplineSet
14.4429 8.85714 m 5,0,1
 16.7929 8 16.7929 8 20 8 c 0,2,3
 32 8 32 8 32 20 c 0,4,5
 32 28.7335 32 28.7335 30.1089 34 c 5,6,7
 14.4429 8.85714 l 5,0,1
25.1006 40.7143 m 1,8,9
 22.901 42 22.901 42 20 42 c 0,10,11
 8 42 8 42 8 20 c 0,12,13
 8 16.685 8 16.685 8.91579 14.2857 c 1,14,15
 25.1006 40.7143 l 1,8,9
0 20 m 0,16,17
 0 34 0 34 5 41 c 0,18,19
 11 50 11 50 20 50 c 0,20,21
 31 50 31 50 35 41 c 0,22,23
 40 32 40 32 40 20 c 0,24,25
 40 0 40 0 20 0 c 128,-1,26
 0 0 0 0 0 20 c 0,16,17
EndSplineSet
Validated: 1
EndChar

StartChar: oslash
Encoding: 248 248 114
Width: 38
VWidth: 0
Flags: W
LayerCount: 2
Fore
SplineSet
15.8792 23.9579 m 5,0,1
 15.4543 24 15.4543 24 15 24 c 4,2,3
 8 24 8 24 8 14 c 4,4,5
 8 12.6907 8 12.6907 8.33333 11.6671 c 5,6,7
 15.8792 23.9579 l 5,0,1
14.0833 8.02756 m 1,8,9
 14.5256 8 14.5256 8 15 8 c 0,10,11
 22 8 22 8 22 14 c 0,12,13
 22 17.2605 22 17.2605 21.2559 19.4579 c 1,14,-1
 14.0833 8.02756 l 1,8,9
25.498 26.5068 m 17,15,16
 30 21 30 21 30 13 c 0,17,18
 30 0 30 0 15 0 c 0,19,20
 11.8849 0 11.8849 0 9.41667 0.56068 c 1,21,-1
 8.99219 -0.0107422 l 25,22,-1
 0.996094 -0.00292969 l 17,23,-1
 3.33333 3.63237 l 1,24,25
 0 6.87174 0 6.87174 0 13 c 0,26,27
 0 21 0 21 4.5 26.5 c 128,-1,28
 9 32 9 32 15 32 c 0,29,30
 17.7868 32 17.7868 32 20.25 30.8135 c 1,31,32
 20.9971 32.0068 l 25,33,-1
 29.0049 32.0098 l 25,34,-1
 25.498 26.5068 l 17,15,16
EndSplineSet
Validated: 1
EndChar

StartChar: thorn
Encoding: 254 254 115
Width: 37
VWidth: 0
Flags: W
HStem: -14 21G<0 8> 24 8<8 15.3313>
VStem: 0 8<-14 0.477417 10 24> 19 8<16.7054 22.029>
LayerCount: 2
Fore
SplineSet
23 0 m 1,0,-1
 8 0 l 25,1,-1
 8 -14 l 25,2,-1
 0 -14 l 1,3,-1
 0 39 l 1,4,-1
 8 39 l 1,5,-1
 8 24 l 1,6,-1
 23 24 l 1,7,8
 29 19 29 19 29 12 c 128,-1,9
 29 5 29 5 23 0 c 1,0,-1
8 8 m 17,10,-1
 19 8 l 1,11,12
 21 10 21 10 21 12 c 128,-1,13
 21 14 21 14 19 16 c 1,14,-1
 8 16 l 9,15,-1
 8 8 l 17,10,-1
EndSplineSet
Validated: 1
EndChar

StartChar: plusminus
Encoding: 177 177 116
Width: 32
VWidth: 0
Flags: W
LayerCount: 2
Fore
SplineSet
0 0 m 1,0,-1
 0 8 l 1,1,-1
 24 8 l 1,2,-1
 24 0 l 1,3,-1
 0 0 l 1,0,-1
EndSplineSet
Refer: 76 43 S 1 0 0 1 0 7 2
Validated: 1
EndChar

StartChar: afii10020
Encoding: 1043 1043 117
AltUni2: 000393.ffffffff.0
Width: 44
VWidth: 0
Flags: W
LayerCount: 2
Fore
SplineSet
8 0 m 1,0,-1
 0 0 l 1,1,-1
 0 50 l 1,2,-1
 36 50 l 1,3,-1
 31 42 l 1,4,-1
 8 42 l 1,5,-1
 8 0 l 1,0,-1
EndSplineSet
Validated: 1
EndChar

StartChar: afii10021
Encoding: 1044 1044 118
Width: 44
VWidth: 0
Flags: W
LayerCount: 2
Fore
SplineSet
0 0 m 25,0,-1
 0 19 l 17,1,2
 0 36 0 36 11 44 c 0,3,4
 18 49 18 49 28 50 c 1,5,-1
 36 50 l 1,6,-1
 36 0 l 1,7,-1
 0 0 l 25,0,-1
28 8 m 1,8,-1
 28 41 l 1,9,10
 8 40 8 40 8 18 c 1,11,-1
 8.00293 7.99902 l 1,12,-1
 28 8 l 1,8,-1
EndSplineSet
Validated: 1
EndChar

StartChar: afii10024
Encoding: 1046 1046 119
Width: 72
VWidth: 0
Flags: W
LayerCount: 2
Fore
SplineSet
36 0 m 5,0,-1
 27.9951 0.000976562 l 5,1,-1
 27.9951 25.001 l 5,2,-1
 9.99512 0.000976562 l 5,3,-1
 -0.00488281 0.000976562 l 5,4,-1
 23 32 l 5,5,-1
 -0 50 l 5,6,-1
 13 50 l 5,7,-1
 28 38 l 5,8,-1
 28 50 l 5,9,-1
 36 50 l 5,10,-1
 36 38 l 5,11,-1
 51 50 l 5,12,-1
 64 50 l 5,13,-1
 41 32 l 5,14,-1
 64 0 l 5,15,-1
 54 0 l 5,16,-1
 36 25 l 5,17,-1
 36 0 l 5,0,-1
EndSplineSet
Validated: 1
EndChar

StartChar: afii10042
Encoding: 1064 1064 120
Width: 60
VWidth: 0
Flags: W
HStem: 42 8.00391<20.7137 29.1507>
VStem: 9.13897 7.83789<0 3.55154>
LayerCount: 2
Fore
SplineSet
27 8.00098 m 13,0,-1
 44 8.00098 l 29,1,-1
 44 50.001 l 5,2,-1
 52 50.001 l 13,3,-1
 52.001 0.00195312 l 29,4,-1
 0 0.000976562 l 5,5,-1
 0 50.001 l 5,6,-1
 8 50.001 l 5,7,-1
 8 8.00098 l 5,8,-1
 19 8.00098 l 5,9,-1
 19 50.001 l 5,10,-1
 27 50.001 l 5,11,-1
 27 8.00098 l 13,0,-1
EndSplineSet
Validated: 1
EndChar

StartChar: afii10049
Encoding: 1071 1071 121
Width: 49
VWidth: 0
Flags: W
LayerCount: 2
Fore
SplineSet
20.0283 33 m 0,0,-1
 33.0283 33 l 1,1,-1
 33.0283 42 l 17,2,-1
 20.0283 42 l 0,3,4
 14.0283 42 14.0283 42 14.0283 38 c 0,5,6
 14.0283 33 14.0283 33 20.0283 33 c 0,0,-1
0.0283203 0 m 1,7,-1
 13.0283 25 l 1,8,9
 5.02832 30 5.02832 30 5.02832 37 c 0,10,11
 5.02832 50 5.02832 50 17.0283 50 c 1,12,-1
 41.0283 50 l 1,13,-1
 41.0283 0 l 1,14,-1
 33.0283 0 l 1,15,-1
 33.0283 24 l 1,16,17
 27.0283 24 27.0283 24 22.0283 24 c 1,18,-1
 10.0283 0 l 1,19,-1
 0.0283203 0 l 1,7,-1
EndSplineSet
Validated: 1
EndChar

StartChar: afii10033
Encoding: 1055 1055 123
Width: 41
VWidth: 0
Flags: W
LayerCount: 2
Fore
SplineSet
8 0 m 5,0,-1
 0 0 l 5,1,-1
 0 50 l 5,2,-1
 33 50 l 5,3,-1
 33 0 l 5,4,-1
 25 0.00292969 l 5,5,-1
 24.999 42.001 l 5,6,-1
 8 42 l 5,7,-1
 8 0 l 5,0,-1
EndSplineSet
Validated: 1
EndChar

StartChar: afii10043
Encoding: 1065 1065 124
Width: 60
VWidth: 0
Flags: W
LayerCount: 2
Fore
SplineSet
0 0.000976562 m 1,0,-1
 0 50.001 l 1,1,-1
 8 50.001 l 1,2,-1
 8 8.00098 l 1,3,-1
 19 8.00098 l 1,4,-1
 19 50.001 l 1,5,-1
 27 50.001 l 1,6,-1
 27 8.00098 l 9,7,-1
 44 8.00098 l 25,8,-1
 44 50.001 l 1,9,-1
 52 50.001 l 9,10,-1
 52.0078 -9.01074 l 1,11,-1
 43.7891 -9 l 1,12,-1
 43.7891 0 l 1,13,-1
 0 0.000976562 l 1,0,-1
EndSplineSet
Validated: 1
EndChar

StartChar: afii10048
Encoding: 1070 1070 126
Width: 62
VWidth: 0
Flags: W
LayerCount: 2
Fore
SplineSet
8 15 m 1,0,-1
 8 0 l 1,1,-1
 0 0 l 1,2,-1
 0 50 l 1,3,-1
 8 50 l 1,4,-1
 8 21 l 1,5,-1
 14 21 l 0,6,7
 14 34 14 34 19 41 c 0,8,9
 25 50 25 50 34 50 c 0,10,11
 44 50 44 50 49 41 c 128,-1,13
 54 32 54 32 54 20 c 0,14,15
 54 0 54 0 35 0 c 128,-1,16
 16 -0 16 -0 14 15 c 0,17,-1
 8 15 l 1,0,-1
22 20 m 0,18,19
 22 8 22 8 34 8 c 128,-1,20
 46 8 46 8 46 20 c 0,21,22
 46 42 46 42 34 42 c 128,-1,23
 22 42 22 42 22 20 c 0,18,19
EndSplineSet
Validated: 1
EndChar

StartChar: afii10026
Encoding: 1048 1048 128
Width: 44
VWidth: 0
Flags: W
LayerCount: 2
Fore
SplineSet
29 0 m 1,0,-1
 29 21 l 1,1,2
 23 9 23 9 8 0 c 1,3,-1
 0 0 l 1,4,-1
 0 50 l 25,5,-1
 8 50 l 1,6,-1
 8 11 l 1,7,8
 28 26 28 26 28 50 c 1,9,-1
 36 50 l 1,10,-1
 36 0 l 25,11,-1
 29 0 l 1,0,-1
EndSplineSet
Validated: 1
EndChar

StartChar: Xi
Encoding: 926 926 130
Width: 44
VWidth: 0
Flags: W
LayerCount: 2
Fore
SplineSet
0 50 m 1,0,-1
 36 50 l 1,1,-1
 36 42 l 1,2,-1
 0 42 l 1,3,-1
 0 50 l 1,0,-1
0 36 m 1,4,-1
 36 36 l 1,5,-1
 36 28 l 1,6,-1
 0 28 l 1,7,-1
 0 36 l 1,4,-1
0 8 m 1,8,-1
 36 8 l 1,9,-1
 36 0 l 1,10,-1
 0 0 l 1,11,-1
 0 8 l 1,8,-1
EndSplineSet
Validated: 1
EndChar

StartChar: Sigma
Encoding: 931 931 131
AltUni2: 0001a9.ffffffff.0
Width: 48
VWidth: 0
Flags: W
LayerCount: 2
Fore
SplineSet
30.999 42.0059 m 1,0,-1
 18 41.9971 l 1,1,-1
 23.9961 30 l 9,2,-1
 14 8 l 1,3,-1
 36 8 l 1,4,-1
 40 0 l 1,5,-1
 0 0 l 1,6,-1
 15 30 l 1,7,-1
 5 50 l 1,8,-1
 35 50 l 9,9,-1
 30.999 42.0059 l 1,0,-1
EndSplineSet
Validated: 1
EndChar

StartChar: afii10040
Encoding: 1062 1062 133
Width: 44
VWidth: 0
Flags: W
HStem: -0.00585938 21G<0 8 28 36.001> 27.999 7.9922<8.00195 28.002> 29.9902 20G<0 7.99902 27.998 36.001>
VStem: 0 8.00195<0 27.999 35.9912 49.9736> 28 8.001<-0.00585938 27.9941 35.9893 49.9893>
LayerCount: 2
Fore
SplineSet
0 14 m 1,0,-1
 0 50 l 1,1,-1
 8 50 l 1,2,-1
 8 22 l 1,3,-1
 28 22 l 1,4,-1
 28 50 l 1,5,-1
 36 50 l 1,6,-1
 36 -0 l 1,7,-1
 28 -0 l 1,8,-1
 28 14 l 1,9,-1
 0 14 l 1,0,-1
EndSplineSet
Validated: 1
EndChar

StartChar: eta
Encoding: 951 951 136
Width: 36
VWidth: 0
Flags: W
HStem: 0 21G<0 8 15 25.3333> 0 21G<0 8 15 25.3333> 24 8<8 15.2998>
VStem: 0 8<0 24> 20 8<7.28076 19.3086>
LayerCount: 2
Fore
SplineSet
20 14 m 2,0,1
 20 24 20 24 8 24 c 1,2,-1
 8 0 l 1,3,-1
 0 0 l 1,4,-1
 0 32 l 1,5,-1
 8 32 l 2,6,7
 28 32 28 32 28 14 c 2,8,9
 28 -14 l 1,10,-1
 20 -14 l 1,11,12
 20 14 l 2,0,1
EndSplineSet
Validated: 1
EndChar

StartChar: bar
Encoding: 124 124 137
Width: 16
VWidth: 0
Flags: W
HStem: 0 21G<0 8> 0 21G<0 8> 30 20G<0 8>
VStem: 0 8<0 50>
LayerCount: 2
Fore
SplineSet
0 50 m 1,0,-1
 8 50 l 1,1,-1
 8 -14 l 5,2,-1
 0 -14 l 5,3,-1
 0 50 l 1,0,-1
EndSplineSet
Validated: 1
EndChar

StartChar: upsilon
Encoding: 965 965 138
Width: 37
VWidth: 0
Flags: W
HStem: -0 8<13.3484 20> 12 20G<3.5 13 20 28>
VStem: 0 8<12.9285 24.7853> 20 8<8 32>
LayerCount: 2
Fore
SplineSet
8 14 m 10,0,1
 8 8 8 8 10 8 c 0,2,3
 21 8 21 8 21 32 c 1,4,-1
 29 32 l 1,5,6
 29 0 29 0 8 0 c 8,7,8
 -0 0 -0 0 0 9 c 2,9,-1
 -0 32 l 1,10,-1
 8 32 l 1,11,-1
 8 14 l 10,0,1
EndSplineSet
Validated: 1
EndChar

StartChar: afii10095
Encoding: 1101 1101 140
Width: 38
VWidth: 0
Flags: W
HStem: 0 8<11.4844 30> 13 7<9 21> 25 7<11.084 19.1215>
LayerCount: 2
Fore
SplineSet
0 19.998 m 9,0,-1
 21 20 l 1,1,2
 21 25 21 25 8 25 c 0,3,-1
 0 24.999 l 1,4,-1
 0 32 l 1,5,-1
 13 32 l 0,6,7
 30 32 30 32 30 17 c 0,8,9
 30 0 30 0 5 0 c 2,10,-1
 0 0 l 1,11,-1
 0 8 l 1,12,-1
 5 8 l 2,13,14
 19 8 19 8 21 14 c 1,15,-1
 0 14 l 17,16,-1
 0 19.998 l 9,0,-1
EndSplineSet
Validated: 1
EndChar

StartChar: afii10047
Encoding: 1069 1069 141
Width: 44
VWidth: 0
Flags: W
LayerCount: 2
Fore
SplineSet
27 36.1426 m 17,0,1
 24.8571 40.9996 24.8571 40.9996 18.001 42 c 1,2,-1
 0.000976562 42 l 1,3,-1
 0.000976562 50 l 1,4,-1
 18.001 50 l 1,5,6
 36.001 47 36.001 47 36.001 34 c 128,-1,7
 36.001 21 36.001 21 26.001 11 c 128,-1,8
 16.001 1 16.001 1 0.000976562 0 c 1,9,-1
 0.000976562 8 l 1,10,11
 12.001 9 12.001 9 20.001 17 c 0,12,13
 26.5988 22.5068 26.5988 22.5068 27 28 c 1,14,-1
 0 28.0078 l 25,15,-1
 -0.00292969 36.1426 l 25,16,-1
 27 36.1426 l 17,0,1
27 36.1426 m 1025,17,-1
EndSplineSet
Validated: 1
EndChar

StartChar: afii10044
Encoding: 1066 1066 143
Width: 37
VWidth: 0
Flags: W
HStem: 0 21G<0 11.3333> 0 21G<0 11.3333> 24 8<8 15.793> 30 20G<0 8>
VStem: 0 8<10 24 32 50> 20 8<15.9932 21.0986>
LayerCount: 2
Fore
SplineSet
0 42.001 m 1,0,-1
 -6 42.001 l 1,1,-1
 -6 50 l 1,2,-1
 8 50 l 1,3,-1
 8 32 l 1,4,-1
 23 32 l 1,5,6
 29 27 29 27 29 19 c 0,7,8
 29 8 29 8 8 -0 c 1,9,-1
 0 0 l 1,10,-1
 0 42.001 l 1,0,-1
21 19 m 0,11,12
 21 22.0001 21 22.0001 19 24 c 1,13,-1
 8 24 l 1,14,-1
 8 10 l 1,15,16
 21 14 21 14 21 19 c 0,11,12
EndSplineSet
Validated: 1
EndChar

StartChar: afii10038
Encoding: 1060 1060 144
Width: 58
VWidth: 0
Flags: W
HStem: 0 21G<0 7.99902> 41.6973 8.3066<7.98926 17.5976>
VStem: 0 7.99121<0 10.8359 19.8418 41.6973>
LayerCount: 2
Fore
SplineSet
13.998 19 m 0,0,1
 20.998 19 l 1,2,-1
 20.998 32 l 17,3,-1
 13.998 32 l 0,4,5
 7.99805 32 7.99805 32 7.99805 25.5 c 128,-1,6
 7.99805 19 7.99805 19 13.998 19 c 0,0,1
36 19 m 0,7,8
 42 19 42 19 42 25.5 c 128,-1,9
 42 32 42 32 36 32 c 0,10,-1
 29 32 l 9,11,-1
 29 19 l 1,12,-1
 36 19 l 0,7,8
21 0 m 1,13,-1
 20.998 10 l 1,14,-1
 13.998 10 l 1,15,16
 -0.00195312 10 -0.00195312 10 -0.00195312 25 c 128,-1,17
 -0.00195312 40 -0.00195312 40 13.998 40 c 1,18,-1
 20.999 40.002 l 1,19,-1
 21 50 l 1,20,-1
 28.9248 50.0068 l 1,21,-1
 28.999 40.002 l 1,22,-1
 36 40 l 1,23,24
 50 40 50 40 50 25 c 128,-1,25
 50 10 50 10 36 10 c 1,26,-1
 29 10 l 1,27,-1
 29 0 l 1,28,-1
 21 0 l 1,13,-1
EndSplineSet
Validated: 1
EndChar

StartChar: afii10029
Encoding: 1051 1051 146
Width: 46
VWidth: 0
Flags: W
LayerCount: 2
Fore
SplineSet
13 50 m 1,0,-1
 38 50 l 1,1,-1
 38 0 l 1,2,-1
 30 0.00292969 l 1,3,-1
 29.999 42.001 l 1,4,-1
 21 42 l 1,5,-1
 21 22 l 2,6,7
 21 9.7373 21 9.7373 15 5 c 0,8,9
 8.66699 0 8.66699 0 0 0 c 1,10,-1
 0 8 l 1,11,12
 13 8 13 8 13 22 c 2,13,-1
 13 50 l 1,0,-1
EndSplineSet
Validated: 1
EndChar

StartChar: Theta
Encoding: 920 920 147
Width: 48
VWidth: 0
Flags: W
HStem: 0 8<13.3101 26.6899> 42 8<14.9207 25.0625>
VStem: 0 8<13.3101 32.1594> 32 8<13.3101 31.5895>
LayerCount: 2
Fore
SplineSet
8.46094 28.2842 m 1,0,1
 8 24.9395 8 24.9395 8 20 c 0,2,3
 8 8 8 8 20 8 c 128,-1,4
 32 8 32 8 32 20 c 0,5,6
 32 24.6301 32 24.6301 31.4685 28.2857 c 1,7,8
 8.46094 28.2842 l 1,0,1
29.6587 35.1429 m 1,9,10
 26.6995 42 26.6995 42 20 42 c 0,11,12
 13.8701 42 13.8701 42 10.0049 35.0059 c 1,13,14
 29.6587 35.1429 l 1,9,10
0 20 m 0,15,16
 0 34 0 34 5 41 c 0,17,18
 11 50 11 50 20 50 c 0,19,20
 31 50 31 50 35 41 c 0,21,22
 40 32 40 32 40 20 c 0,23,24
 40 0 40 0 20 0 c 128,-1,25
 0 0 0 0 0 20 c 0,15,16
EndSplineSet
Validated: 1
EndChar

StartChar: Delta
Encoding: 916 916 148
Width: 44
VWidth: 0
Flags: W
LayerCount: 2
Fore
SplineSet
0 10.001 m 25,0,-1
 25 50 l 1,1,-1
 36 50 l 1,2,-1
 36 0 l 1,3,-1
 0 0 l 25,4,-1
 0 10.001 l 25,0,-1
8.00293 7.99902 m 1,5,-1
 28.0029 8.00098 l 1,6,-1
 28 41 l 1,7,-1
 8.00293 7.99902 l 1,5,-1
EndSplineSet
Validated: 1
EndChar

StartChar: Lambda
Encoding: 923 923 149
Width: 44
VWidth: 0
Flags: W
LayerCount: 2
Fore
SplineSet
0 0.000976562 m 25,0,-1
 24 50 l 1,1,-1
 36 50 l 1,2,-1
 36 0 l 1,3,-1
 28.0029 0.000976562 l 1,4,-1
 28 41 l 1,5,-1
 9.00293 -0.000976562 l 1,6,-1
 0 0.000976562 l 25,0,-1
EndSplineSet
Validated: 1
EndChar

StartChar: afii10081
Encoding: 1087 1087 151
Width: 37
VWidth: 0
Flags: W
LayerCount: 2
Fore
SplineSet
0 31.999 m 1,0,-1
 28.9951 31.999 l 1,1,-1
 28.9951 0.00292969 l 1,2,-1
 20.9902 -0.00585938 l 1,3,-1
 20.9951 23.999 l 1,4,-1
 8 23.999 l 1,5,-1
 7.99805 0 l 1,6,-1
 0 0 l 1,7,-1
 0 31.999 l 1,0,-1
EndSplineSet
Validated: 1
EndChar

StartChar: uni03F5
Encoding: 1013 1013 153
Width: 38
VWidth: 0
Flags: W
LayerCount: 2
Fore
SplineSet
30.0273 19.998 m 17,0,-1
 30.0273 14 l 9,1,-1
 9.02734 14 l 1,2,3
 11.0273 8 11.0273 8 25.0273 8 c 2,4,-1
 30.0273 8 l 1,5,-1
 30.0273 0 l 1,6,-1
 25.0273 0 l 2,7,8
 0.0273438 0 0.0273438 0 0.0273438 17 c 0,9,10
 0.0273438 32 0.0273438 32 17.0273 32 c 0,11,-1
 30.0273 32 l 1,12,-1
 30.0273 24.999 l 1,13,-1
 22.0273 25 l 0,14,15
 9.02734 25 9.02734 25 9.02734 20 c 1,16,-1
 30.0273 19.998 l 17,0,-1
EndSplineSet
Validated: 1
EndChar

StartChar: afii10084
Encoding: 1090 1090 154
Width: 37
VWidth: 0
Flags: W
LayerCount: 2
Fore
SplineSet
28.9951 31.999 m 1,0,-1
 23.9951 23.999 l 1,1,-1
 16 23.999 l 1,2,-1
 15.998 0 l 1,3,-1
 8 0 l 1,4,-1
 7.99609 23.999 l 1,5,-1
 -0.00292969 24.001 l 1,6,-1
 0 31.999 l 1,7,-1
 28.9951 31.999 l 1,0,-1
EndSplineSet
Validated: 1
EndChar

StartChar: afii10088
Encoding: 1094 1094 156
Width: 37
VWidth: 0
Flags: W
LayerCount: 2
Fore
SplineSet
-0.00195312 0.00390625 m 5,0,-1
 -0.00195312 32.0029 l 5,1,-1
 7.99609 32.0029 l 5,2,-1
 7.99805 8.00391 l 5,3,-1
 20.9932 8.00391 l 1,4,-1
 20.9883 32.0088 l 1,5,-1
 28.9932 32 l 1,6,-1
 28.9932 -7.99609 l 1,7,-1
 20.9941 -7.99707 l 1,8,-1
 20.9932 0.00488281 l 1,9,-1
 -0.00195312 0.00390625 l 5,0,-1
EndSplineSet
Validated: 1
EndChar

StartChar: afii10089
Encoding: 1095 1095 157
Width: 37
VWidth: 0
Flags: W
LayerCount: 2
Fore
SplineSet
21 -0 m 0,0,1
 0 4 0 4 0 22 c 2,2,-1
 -0 32 l 1,3,-1
 8 32 l 1,4,-1
 8 23 l 2,5,6
 8 10 8 10 21 8 c 0,7,-1
 21 32 l 1,8,-1
 29 32 l 1,9,-1
 29 -8 l 1,10,-1
 21 -8 l 1,11,-1
 21 -0 l 0,0,1
EndSplineSet
Validated: 1
EndChar

StartChar: afii10090
Encoding: 1096 1096 158
Width: 54
VWidth: 0
Flags: W
HStem: 0 21G<0 8 19 27 38 46> 0 21G<0 8 19 27 38 46> 24 8<8 19 27 33.2626>
VStem: 0 8<0 24> 19 8<0 24> 38 8<0 19.2627>
LayerCount: 2
Fore
SplineSet
46.002 0 m 13,0,-1
 0.00195312 0.00488281 l 5,1,-1
 0.00195312 32.0049 l 5,2,-1
 8.00195 32.0049 l 5,3,-1
 8.00195 8.00488 l 5,4,-1
 19.002 8.00488 l 5,5,-1
 19.002 32.0049 l 5,6,-1
 27.002 32.0049 l 5,7,-1
 27.002 8.00488 l 5,8,-1
 38.002 8.00488 l 21,9,-1
 38.002 32.0049 l 5,10,-1
 46.002 32.0049 l 5,11,-1
 46.002 0 l 13,0,-1
EndSplineSet
Validated: 1
EndChar

StartChar: afii10091
Encoding: 1097 1097 159
Width: 54
VWidth: 0
Flags: W
LayerCount: 2
Fore
SplineSet
46 -8 m 1,0,-1
 37 -8 l 1,1,-1
 37 0 l 1,2,-1
 0 0 l 1,3,-1
 0 32 l 1,4,-1
 8 32 l 1,5,-1
 8.00195 8.00488 l 1,6,-1
 19.002 8.00488 l 1,7,-1
 19.002 32.0049 l 1,8,-1
 27.002 32.0049 l 1,9,-1
 27.002 8.00488 l 1,10,-1
 38.002 8.00488 l 17,11,-1
 38.002 32.0049 l 1,12,-1
 46.002 32.0049 l 1,13,-1
 46 -8 l 1,0,-1
EndSplineSet
Validated: 1
EndChar

StartChar: afii10092
Encoding: 1098 1098 160
Width: 32
VWidth: 0
Flags: W
LayerCount: 2
Fore
SplineSet
12 13 m 2,0,1
 8 13 l 1,2,-1
 8 6 l 1,3,-1
 12 6 l 2,4,5
 16 6 16 6 16 10 c 0,6,7
 16 13 16 13 12 13 c 2,0,1
-6 26.0469 m 5,8,-1
 -6 32 l 1,9,-1
 8 32 l 1,10,-1
 8 19 l 1,11,-1
 12 19 l 26,12,13
 24 19 24 19 24 10 c 0,14,15
 24 0 24 0 12 0 c 26,16,-1
 0 0 l 17,17,-1
 -0.0351562 26.0459 l 5,18,-1
 -6 26.0469 l 5,8,-1
EndSplineSet
Validated: 1
EndChar

StartChar: afii10094
Encoding: 1100 1100 161
Width: 32
VWidth: 0
Flags: W
LayerCount: 2
Fore
SplineSet
12 13 m 6,0,1
 8 13 l 5,2,-1
 8 6 l 5,3,-1
 12 6 l 6,4,5
 16 6 16 6 16 10 c 4,6,7
 16 13 16 13 12 13 c 6,0,1
0 0 m 21,8,-1
 -0 32 l 1,9,-1
 8 32 l 1,10,-1
 8 19 l 5,11,-1
 12 19 l 30,12,13
 24 19 24 19 24 10 c 4,14,15
 24 0 24 0 12 -0 c 30,16,-1
 0 0 l 21,8,-1
EndSplineSet
Validated: 1
EndChar

StartChar: afii10093
Encoding: 1099 1099 162
Width: 43
VWidth: 0
Flags: W
LayerCount: 2
Fore
SplineSet
27 32 m 1,0,-1
 35 32 l 1,1,-1
 35 0 l 1,2,-1
 27 0 l 1,3,-1
 27 32 l 1,0,-1
EndSplineSet
Refer: 161 1100 N 1 0 0 1 0 0 2
Validated: 1
EndChar

StartChar: afii10076
Encoding: 1082 1082 163
Width: 40
VWidth: 0
Flags: W
HStem: 0 21G<0 8> 0 21G<0 8> 12 20G<8 23> 30 20G<0 8>
VStem: 0 8<0 11 24 50>
LayerCount: 2
Fore
SplineSet
13 18 m 1,0,-1
 32 0 l 1,1,-1
 21 0 l 1,2,-1
 8 12 l 1,3,-1
 8 0 l 1,4,-1
 0 0 l 1,5,-1
 0 32 l 1,6,-1
 8 32 l 1,7,-1
 8 24 l 1,8,-1
 19 32 l 1,9,-1
 32 32 l 1,10,11
 13 18 l 1,0,-1
EndSplineSet
Validated: 1
EndChar

StartChar: afii10072
Encoding: 1078 1078 165
Width: 52
VWidth: 0
Flags: W
HStem: 0 21G<0 8> 0 21G<0 8> 12 20G<8 23> 30 20G<0 8>
VStem: 0 8<0 11 24 50>
LayerCount: 2
Fore
SplineSet
26 0 m 1,0,-1
 18 0 l 1,1,-1
 18 12 l 1,2,-1
 9 0 l 1,3,-1
 0 0 l 1,4,-1
 13 18 l 1,5,-1
 0 32 l 1,6,-1
 11 32 l 1,7,-1
 18 24 l 1,8,-1
 18 32 l 1,9,-1
 26 32 l 1,10,-1
 26 24 l 1,11,-1
 33 32 l 1,12,-1
 44 32 l 1,13,-1
 31 18 l 1,14,-1
 44 0 l 1,15,-1
 35 0 l 1,16,-1
 26 12 l 1,17,-1
 26 0 l 1,0,-1
EndSplineSet
Validated: 1
EndChar

StartChar: afii10068
Encoding: 1075 1075 166
Width: 37
VWidth: 0
Flags: W
LayerCount: 2
Fore
SplineSet
29 32 m 1,0,-1
 25 24 l 1,1,-1
 8 24 l 1,2,-1
 8 0 l 1,3,-1
 0 0 l 1,4,-1
 0 32 l 1,5,-1
 29 32 l 1,0,-1
EndSplineSet
Validated: 1
EndChar

StartChar: afii10069
Encoding: 1076 1076 167
Width: 37
VWidth: 0
Flags: W
LayerCount: 2
Fore
SplineSet
0 0 m 25,0,-1
 0 5 l 17,1,2
 0 23.9102 0 23.9102 6.91406 29.9551 c 0,3,4
 13.4078 36 13.4078 36 24 36 c 1,5,-1
 29 36 l 1,6,-1
 29 0 l 1,7,-1
 0 0 l 25,0,-1
21.0029 8.00098 m 1,8,-1
 21 27 l 1,9,10
 8.00098 26.9961 8.00098 26.9961 8.00098 7.99609 c 1,11,-1
 21.0029 8.00098 l 1,8,-1
EndSplineSet
Validated: 1
EndChar

StartChar: afii10077
Encoding: 1083 1083 168
Width: 37
VWidth: 0
Flags: W
LayerCount: 2
Fore
SplineSet
7 31.999 m 1,0,-1
 28.9951 31.999 l 1,1,-1
 28.9951 0.00292969 l 1,2,-1
 20.9902 -0.00585938 l 1,3,-1
 20.9951 23.999 l 1,4,-1
 15 23.999 l 1,5,-1
 15 16 l 2,6,7
 15 0 15 0 0 0 c 1,8,-1
 0 8 l 1,9,10
 7 8 7 8 7 16 c 2,11,-1
 7 31.999 l 1,0,-1
EndSplineSet
Validated: 1
EndChar

StartChar: afii10079
Encoding: 1085 1085 170
Width: 37
VWidth: 0
Flags: W
HStem: -0.00585938 21G<0 8 28 36.001> 27.999 7.9922<8.00195 28.002> 29.9902 20G<0 7.99902 27.998 36.001>
VStem: 0 8.00195<0 27.999 35.9912 49.9736> 28 8.001<-0.00585938 27.9941 35.9893 49.9893>
LayerCount: 2
Fore
SplineSet
8 23 m 5,0,-1
 21 23 l 5,1,-1
 21 32 l 1,2,-1
 29 32 l 1,3,-1
 29 0 l 1,4,-1
 21 0 l 1,5,-1
 21 15 l 5,6,-1
 8 15 l 5,7,-1
 8 0 l 1,8,-1
 0 0 l 1,9,-1
 0 32 l 1,10,-1
 8 32 l 1,11,-1
 8 23 l 5,0,-1
EndSplineSet
Validated: 1
EndChar

StartChar: afii10096
Encoding: 1102 1102 171
Width: 49
VWidth: 0
Flags: W
HStem: 0 8<9.88171 20.1183> 24 8<10.8078 19.1922>
VStem: 0 8<9.92578 20.8152> 22 8<9.92578 20.8152>
LayerCount: 2
Fore
SplineSet
8 10 m 1,0,-1
 8 0 l 1,1,-1
 0 0 l 1,2,-1
 0 32 l 1,3,-1
 8 32 l 1,4,-1
 8 16 l 1,5,-1
 11 16 l 17,6,7
 11.4195 21.7034 11.4195 21.7034 15 26 c 0,8,9
 20 32 20 32 26 32 c 128,-1,10
 32 32 32 32 36.5 26.5 c 128,-1,11
 41 21 41 21 41 13 c 0,12,13
 41 0 41 0 26 0 c 0,14,15
 14 0 14 0 11 10 c 9,16,-1
 8 10 l 1,0,-1
19 14 m 0,17,18
 19 8 19 8 26 8 c 128,-1,19
 33 8 33 8 33 14 c 0,20,21
 33 24 33 24 26 24 c 128,-1,22
 19 24 19 24 19 14 c 0,17,18
EndSplineSet
Validated: 1
EndChar

StartChar: afii10097
Encoding: 1103 1103 172
Width: 37
VWidth: 0
Flags: W
HStem: -14 21G<0 8> 24 8<8 15.3313>
VStem: 0 8<-14 0.477417 10 24> 19 8<16.7054 22.029>
LayerCount: 2
Fore
SplineSet
21 0 m 17,0,-1
 21 9 l 1,1,-1
 14 9 l 1,2,-1
 8 -0 l 1,3,-1
 -2 0 l 1,4,-1
 4 11 l 1,5,6
 0 15 0 15 0 21 c 0,7,8
 0 26 0 26 6 32 c 1,9,-1
 29 32 l 1,10,-1
 29 0 l 1,11,-1
 21 0 l 17,0,-1
21 17 m 1,12,-1
 21 24 l 1,13,-1
 10 24 l 1,14,15
 8 22 8 22 8 20.5 c 128,-1,16
 8 19 8 19 10 17 c 1,17,-1
 21 17 l 1,12,-1
EndSplineSet
Validated: 1
EndChar

StartChar: afii10067
Encoding: 1074 1074 173
Width: 37
VWidth: 0
Flags: W
HStem: 0 8<11.4844 30> 13 7<9 21> 25 7<11.084 19.1215>
LayerCount: 2
Fore
SplineSet
18 0 m 2,0,1
 0 0 l 1,2,-1
 0 32 l 9,3,-1
 13 32 l 26,4,5
 24 32 24 32 24 20 c 9,6,7
 29 18 29 18 29 11 c 0,8,9
 29 0 29 0 18 0 c 2,0,1
8 8 m 1,10,-1
 17 8 l 2,11,12
 22 8 22 8 22 11 c 128,-1,13
 22 14 22 14 17 14 c 18,14,-1
 8 14 l 1,15,-1
 8 8 l 1,10,-1
8 20 m 1,16,-1
 17 20 l 1,17,18
 17 25 17 25 12 25 c 10,19,-1
 8 25 l 1,20,-1
 8 20 l 1,16,-1
EndSplineSet
Validated: 1
EndChar

StartChar: afii10066
Encoding: 1073 1073 174
Width: 37
VWidth: 0
Flags: W
HStem: 0 8<13.7456 22> 12 20G<26 30>
VStem: 0 8<10.6768 16.2263> 22 8<8 23>
LayerCount: 2
Fore
SplineSet
29 14 m 2,0,1
 29 0 29 0 11 0 c 2,2,-1
 0 0 l 1,3,-1
 0 26 l 2,4,5
 0 39 0 39 21 39 c 2,6,-1
 29 39 l 1,7,-1
 29 32 l 1,8,-1
 21 32 l 2,9,10
 8 32 8 32 8 26 c 1,11,-1
 29 26 l 9,12,-1
 29 14 l 2,0,1
11 7 m 2,13,14
 21 7 21 7 21 14 c 2,15,-1
 21 19 l 1,16,-1
 8 19 l 9,17,-1
 8 7 l 1,18,-1
 11 7 l 2,13,14
EndSplineSet
Validated: 1
EndChar

StartChar: afii10073
Encoding: 1079 1079 175
Width: 37
VWidth: 0
Flags: W
HStem: 0 8<11.4844 30> 13 7<9 21> 25 7<11.084 19.1215>
LayerCount: 2
Fore
SplineSet
22 11 m 128,-1,1
 22 14 22 14 17 14 c 18,2,-1
 -0 14 l 1,3,-1
 0 20 l 1,4,-1
 17 20 l 1,5,6
 17 25 17 25 12 25 c 10,7,-1
 0 25 l 1,8,-1
 0 32 l 9,9,-1
 13 32 l 26,10,11
 24 32 24 32 24 20 c 9,12,13
 29 18 29 18 29 11 c 0,14,15
 29 0 29 0 18 0 c 2,16,-1
 0 0 l 1,17,-1
 0 8 l 1,18,-1
 17 8 l 2,19,0
 22 8 22 8 22 11 c 128,-1,1
EndSplineSet
Validated: 1
EndChar

StartChar: afii10074
Encoding: 1080 1080 176
Width: 37
VWidth: 0
Flags: W
LayerCount: 2
Back
SplineSet
29.001 31.998 m 5,0,1
 29.001 20.9825 29.001 20.9825 21.8082 11.5733 c 132,-1,2
 14.6154 2.1641 14.6154 2.1641 6.5 0 c 5,3,-1
 0 0 l 5,4,-1
 0 32 l 5,5,-1
 8.16667 32 l 5,6,-1
 8.16602 9.83301 l 5,7,8
 13.2612 12.9494 13.2612 12.9494 17.1315 20.0499 c 132,-1,9
 21.0018 27.1503 21.0018 27.1503 21.0088 32 c 5,10,-1
 29.001 31.998 l 5,0,1
EndSplineSet
Fore
SplineSet
8 10 m 1,0,1
 20 18.4502 20 18.4502 21 32 c 1,2,-1
 29 32 l 1,3,-1
 29 0 l 1,4,-1
 21 0 l 1,5,-1
 21 11 l 1,6,7
 17.9057 5 17.9057 5 7 0 c 1,8,-1
 0 0 l 1,9,-1
 0 32 l 1,10,-1
 8 32 l 1,11,-1
 8 10 l 1,0,1
EndSplineSet
Validated: 1
EndChar

StartChar: afii10086
Encoding: 1092 1092 178
Width: 48
VWidth: 0
Flags: W
HStem: 0 21G<0 7.99902> 41.6973 8.3066<7.98926 17.5976>
VStem: 0 7.99121<0 10.8359 19.8418 41.6973>
LayerCount: 2
Fore
SplineSet
24 8 m 17,0,1
 32 8 32 8 32 14 c 0,2,3
 32 24 32 24 24 24 c 9,4,-1
 24 8 l 17,0,1
16 8 m 9,5,6
 16 24 l 17,7,8
 8 24 8 24 8 14 c 0,9,10
 8 8 8 8 16 8 c 9,5,6
24 -7 m 1,11,-1
 15.998 -6.99805 l 1,12,-1
 16 0 l 1,13,14
 0 0 0 0 0 13 c 0,15,16
 0 21 0 21 4.5 26.5 c 128,-1,17
 9 32 9 32 16 32 c 1,18,-1
 15.998 37.999 l 1,19,-1
 23.999 38 l 1,20,-1
 24 32 l 1,21,22
 31 32 31 32 35.5 26.5 c 128,-1,23
 40 21 40 21 40 13 c 0,24,25
 40 0 40 0 24 0 c 1,26,-1
 24 -7 l 1,11,-1
EndSplineSet
Validated: 1
EndChar

StartChar: rho
Encoding: 961 961 191
Width: 37
VWidth: 0
Flags: W
HStem: -14 21G<0 8> 24 8<8 15.3313>
VStem: 0 8<-14 0.477417 10 24> 19 8<16.7054 22.029>
LayerCount: 2
Fore
SplineSet
13 24 m 0,0,1
 8 24 8 24 8 9 c 17,2,3
 12 9 12 9 16 12 c 0,4,5
 21 16 21 16 21 19 c 128,-1,6
 21 22 21 22 19 24 c 1,7,-1
 13 24 l 0,0,1
0 11 m 10,8,9
 -0 32 -0 32 10 32 c 1,10,-1
 23 32 l 1,11,12
 29 27 29 27 29 20 c 0,13,14
 29 12 29 12 20 5 c 0,15,16
 16 2 16 2 8 0 c 1,17,-1
 8 -14 l 25,18,-1
 -0 -14 l 1,19,-1
 0 11 l 10,8,9
EndSplineSet
Validated: 1
EndChar

StartChar: uni03FC
Encoding: 1020 1020 192
Width: 37
VWidth: 0
Flags: W
LayerCount: 2
Fore
SplineSet
13 24 m 0,0,1
 8 24 8 24 8 9 c 17,2,3
 12 9 12 9 16 12 c 0,4,5
 21 16 21 16 21 19 c 128,-1,6
 21 22 21 22 19 24 c 1,7,-1
 13 24 l 0,0,1
0 11 m 10,8,9
 0 32 0 32 10 32 c 1,10,-1
 23 32 l 1,11,12
 29 27 29 27 29 20 c 0,13,14
 29 12 29 12 20 5 c 0,15,16
 16 2 16 2 8 0 c 1,17,-1
 8 -3 l 1,18,-1
 20 -3 l 1,19,-1
 20 -9 l 1,20,-1
 8 -9 l 1,21,-1
 8 -14 l 9,22,-1
 0 -14 l 1,23,-1
 0 11 l 10,8,9
EndSplineSet
Validated: 1
EndChar

StartChar: eng
Encoding: 331 331 197
Width: 36
VWidth: 0
Flags: W
HStem: 0 21G<0 8 15 25.3333> 0 21G<0 8 15 25.3333> 24 8<8 15.2998>
VStem: 0 8<0 24> 20 8<7.28076 19.3086>
LayerCount: 2
Fore
SplineSet
14 -14 m 10,0,1
 8 -14 l 9,2,-1
 8 -6 l 17,3,-1
 14 -6 l 18,4,5
 20 -6 20 -6 20 0 c 18,6,-1
 20 14 l 2,7,8
 20 24 20 24 8 24 c 1,9,10
 8 0 l 1,11,-1
 0 0 l 1,12,-1
 0 32 l 1,13,-1
 8 32 l 2,14,15
 28 32 28 32 28 14 c 2,16,-1
 28 0 l 10,17,18
 28 -14 28 -14 14 -14 c 10,0,1
EndSplineSet
Validated: 1
EndChar

StartChar: Eth
Encoding: 208 208 199
Width: 44
VWidth: 0
Flags: W
LayerCount: 2
Fore
SplineSet
0 50 m 1,0,-1
 27 50 l 1,1,2
 36 45 36 45 36 32.5 c 128,-1,3
 36 20 36 20 25.5 10.5 c 128,-1,4
 15 1 15 1 0 0 c 1,5,-1
 0 50 l 1,0,-1
8 42 m 1,6,-1
 8 36 l 1,7,-1
 21 36 l 1,8,-1
 20.999 28.249 l 5,9,-1
 8 28.25 l 1,10,-1
 8 10 l 1,11,12
 16 11 16 11 22 18 c 128,-1,13
 28 25 28 25 28 32 c 0,14,15
 28 38 28 38 23 42 c 1,16,-1
 8 42 l 1,6,-1
EndSplineSet
Validated: 1
EndChar

StartChar: multiply
Encoding: 215 215 201
Width: 52
VWidth: 0
Flags: W
HStem: 0 21G<0 16 16 32> 0 21G<0 16 16 32> 12 20G<0 16 16 32>
LayerCount: 2
Back
SplineSet
-48 50 m 1,0,-1
 -33 50 l 2,1,2
 -17 50 -17 50 -17 39 c 0,3,4
 -17 33 -17 33 -39 8 c 1,5,-1
 -16 8 l 1,6,-1
 -12 0 l 1,7,-1
 -49 0 l 1,8,-1
 -52 7 l 1,9,10
 -25 34 -25 34 -25 39 c 0,11,12
 -25 42 -25 42 -33 42 c 2,13,-1
 -45 42 l 1,14,-1
 -48 50 l 1,0,-1
71 34 m 4,0,1
 71 20 71 20 91 20 c 5,2,-1
 91 50 l 5,3,-1
 99 50 l 5,4,-1
 99 0 l 5,5,-1
 91 0 l 5,6,-1
 91 12 l 5,7,8
 63 14 63 14 63 34 c 4,9,-1
 63 50 l 5,10,-1
 71 50 l 5,11,12
 71 34 l 4,0,1
EndSplineSet
Fore
SplineSet
6 44 m 1,0,-1
 22 28 l 1,1,-1
 38 44 l 1,2,-1
 44 38 l 1,3,-1
 28 22 l 1,4,-1
 44 6 l 1,5,-1
 38 0 l 1,6,-1
 22 16 l 1,7,-1
 6 0 l 1,8,-1
 -0 6 l 1,9,-1
 16 22 l 1,10,-1
 0 38 l 1,11,-1
 6 44 l 1,0,-1
EndSplineSet
Validated: 1
EndChar

StartChar: OE
Encoding: 338 338 202
Width: 51
VWidth: 0
Flags: W
LayerCount: 2
Fore
SplineSet
20 0 m 1,0,1
 0 0 0 0 0 20 c 0,2,3
 0 34 0 34 5 41 c 0,4,5
 11 50 11 50 20 50 c 1,6,-1
 43 50 l 1,7,-1
 43 42 l 1,8,-1
 28 42 l 1,9,-1
 28 36 l 1,10,-1
 43 36 l 1,11,-1
 43 28 l 1,12,-1
 28 28 l 1,13,-1
 28 8 l 1,14,-1
 43 8 l 1,15,-1
 43 0 l 1,16,-1
 20 0 l 1,0,1
20 42 m 0,17,18
 8 42 8 42 8 20 c 0,19,20
 8 8 8 8 20 8 c 0,21,-1
 20 42 l 0,17,18
EndSplineSet
Validated: 1
EndChar

StartChar: uni0183
Encoding: 387 387 205
Width: 37
VWidth: 0
Flags: W
LayerCount: 2
Fore
SplineSet
0 0 m 1,0,-1
 0 50 l 1,1,-1
 21 50 l 1,2,-1
 21 42 l 1,3,-1
 8 42 l 1,4,-1
 8 32 l 1,5,-1
 23 32 l 1,6,7
 29 27 29 27 29 19 c 0,8,9
 29 8 29 8 8 0 c 1,10,-1
 0 0 l 1,0,-1
21 19 m 0,11,12
 21 22 21 22 19 24 c 1,13,-1
 8 24 l 1,14,-1
 8 10 l 1,15,16
 21 14 21 14 21 19 c 0,11,12
EndSplineSet
Validated: 1
EndChar

StartChar: oe
Encoding: 339 339 206
Width: 54
VWidth: 0
Flags: W
HStem: 0 8<11.4844 30> 13 7<9 21> 25 7<11.084 19.1215>
LayerCount: 2
Fore
SplineSet
8 14 m 0,0,1
 8 8 8 8 14 8 c 128,-1,2
 20 8 20 8 20 14 c 0,3,4
 20 24 20 24 14 24 c 128,-1,5
 8 24 8 24 8 14 c 0,0,1
38 20 m 17,6,-1
 38 25 l 0,7,8
 29 25 29 25 29 20 c 1,9,-1
 38 20 l 17,6,-1
23.918 27.2979 m 1,10,11
 27.8262 32 27.8262 32 36 32 c 0,12,-1
 46 32 l 1,13,-1
 46 14 l 9,14,-1
 29 14 l 1,15,16
 31 8 31 8 41 8 c 2,17,-1
 46 8 l 1,18,-1
 46 0 l 1,19,-1
 42 0 l 2,20,21
 30.5434 0 30.5434 0 25.043 3.73633 c 1,22,23
 21.1667 0 21.1667 0 14 0 c 0,24,25
 0 0 0 0 0 13 c 0,26,27
 0 21 0 21 4 26.5 c 128,-1,28
 8 32 8 32 13.9585 32 c 128,-1,29
 19.917 32 19.917 32 23.918 27.2979 c 1,10,11
EndSplineSet
Validated: 1
EndChar

StartChar: asciitilde
Encoding: 126 126 208
AltUni2: 000303.ffffffff.0
Width: 29
VWidth: 0
Flags: W
LayerCount: 2
Back
SplineSet
0 12 m 1,0,-1
 0 20 l 1,1,-1
 21 20 l 1,2,-1
 21 12 l 1,3,-1
 0 12 l 1,0,-1
EndSplineSet
Fore
SplineSet
21 14 m 1,0,1
 18 11 18 11 15 11 c 0,2,3
 13 11 13 11 10 12 c 128,-1,4
 7 13 7 13 6 13 c 0,5,6
 3 13 3 13 0 10 c 1,7,-1
 0 18 l 1,8,9
 2 21 2 21 6 21 c 0,10,11
 8 21 8 21 11 20 c 128,-1,12
 14 19 14 19 15 19 c 0,13,14
 18 19 18 19 21 22 c 1,15,-1
 21 14 l 1,0,1
EndSplineSet
Validated: 1
EndChar

StartChar: afii10058
Encoding: 1033 1033 212
Width: 67
VWidth: 0
Flags: W
HStem: 0 21G<0 11.3333> 0 21G<0 11.3333> 24 8<8 15.793> 30 20G<0 8>
VStem: 0 8<10 24 32 50> 20 8<15.9932 21.0986>
LayerCount: 2
Fore
SplineSet
51 19 m 4,0,1
 51 22 51 22 49 24 c 5,2,-1
 38 24 l 5,3,-1
 38 10 l 5,4,5
 51 14 51 14 51 19 c 4,0,1
30 0.00292969 m 1,6,-1
 29.999 42.001 l 1,7,-1
 21 42 l 1,8,-1
 21 22 l 2,9,10
 21 9.7373 21 9.7373 15 5 c 0,11,12
 8.66699 0 8.66699 0 0 0 c 1,13,-1
 0 8 l 1,14,15
 13 8 13 8 13 22 c 2,16,-1
 13 50 l 1,17,-1
 38 50 l 1,18,-1
 38 32 l 5,19,-1
 53 32 l 5,20,21
 59 27 59 27 59 19 c 4,22,23
 59 8 59 8 38 0 c 5,24,-1
 30 0.00292969 l 1,6,-1
EndSplineSet
Validated: 1
EndChar

StartChar: afii10059
Encoding: 1034 1034 213
Width: 53
VWidth: 0
Flags: W
HStem: -0.00585938 21G<0 8 28 36.001> 27.999 7.9922<8.00195 28.002> 29.9902 20G<0 7.99902 27.998 36.001>
VStem: 0 8.00195<0 27.999 35.9912 49.9736> 28 8.001<-0.00585938 27.9941 35.9893 49.9893>
LayerCount: 2
Fore
SplineSet
39 19 m 0,0,1
 39 22 39 22 37 24 c 1,2,-1
 26 24 l 1,3,-1
 26 10 l 1,4,5
 39 14 39 14 39 19 c 0,0,1
18 0 m 1,6,-1
 18 28 l 1,7,-1
 8 28 l 1,8,-1
 8 0 l 1,9,-1
 0 0 l 1,10,-1
 0 50 l 1,11,-1
 8 50 l 1,12,-1
 8 36 l 1,13,-1
 18 36 l 1,14,-1
 18 50 l 1,15,-1
 26 50 l 1,16,-1
 26 32 l 1,17,-1
 41 32 l 1,18,19
 45 27 45 27 45 19 c 0,20,21
 45 7.23818 45 7.23818 26 0 c 1,22,-1
 18 0 l 1,6,-1
EndSplineSet
Validated: 1
EndChar

StartChar: afii10060
Encoding: 1035 1035 214
Width: 47
VWidth: 0
Flags: W
LayerCount: 2
Fore
SplineSet
19 32 m 1,0,1
 39 32 39 32 39 14 c 2,2,-1
 39 0 l 1,3,-1
 31 0 l 1,4,-1
 31 14 l 2,5,6
 31 24 31 24 19 24 c 1,7,-1
 19 0 l 1,8,-1
 11 0 l 1,9,-1
 11 42 l 1,10,-1
 0 42 l 1,11,-1
 0 50 l 1,12,-1
 36 50 l 1,13,-1
 32 42 l 1,14,-1
 19 42 l 1,15,-1
 19 32 l 1,0,1
EndSplineSet
Validated: 1
EndChar

StartChar: idieresis
Encoding: 239 239 215
Width: 16
VWidth: 0
Flags: W
HStem: 0 21G<0 8> 0 21G<0 8> 12 20G<0 8> 42 8<0 8>
VStem: 0 8<0 32 42 50>
LayerCount: 2
Fore
SplineSet
5.99707 43.999 m 1,0,-1
 13.998 43.998 l 1,1,-1
 13.998 35.998 l 1,2,-1
 5.99707 35.999 l 1,3,-1
 5.99707 43.999 l 1,0,-1
-6.00293 43.999 m 1,4,-1
 1.99805 43.998 l 1,5,-1
 1.99805 35.998 l 1,6,-1
 -6.00293 35.999 l 1,7,-1
 -6.00293 43.999 l 1,4,-1
EndSplineSet
Refer: 274 305 S 1 0 0 1 0 0 2
Validated: 1
EndChar

StartChar: iota
Encoding: 953 953 216
Width: 16
VWidth: 0
Flags: W
HStem: 0 21G<0 8> 0 21G<0 8> 12 20G<0 8> 42 8<0 8>
VStem: 0 8<0 32 42 50>
LayerCount: 2
Fore
SplineSet
0 32 m 1,0,-1
 8 32 l 1,1,-1
 8 0 l 1,2,-1
 0 0 l 1,3,-1
 0 32 l 1,0,-1
EndSplineSet
Validated: 1
EndChar

StartChar: afii10053
Encoding: 1028 1028 217
Width: 44
VWidth: 0
Flags: W
LayerCount: 2
Fore
SplineSet
8.99805 36.1426 m 9,0,1
 36.001 36.1426 l 25,2,-1
 35.998 28.0078 l 25,3,-1
 8.99805 28 l 1,4,5
 9.39941 22.5068 9.39941 22.5068 15.9971 17 c 0,6,7
 23.9971 9 23.9971 9 35.9971 8 c 1,8,-1
 35.9971 0 l 1,9,10
 19.9971 1 19.9971 1 9.99707 11 c 128,-1,11
 -0.00292969 21 -0.00292969 21 -0.00292969 34 c 128,-1,12
 -0.00292969 47 -0.00292969 47 17.9971 50 c 1,13,-1
 35.9971 50 l 1,14,-1
 35.9971 42 l 1,15,-1
 17.9971 42 l 1,16,17
 10.8952 41 10.8952 41 8.99805 36.1426 c 9,0,1
EndSplineSet
Validated: 1
EndChar

StartChar: afii10145
Encoding: 1039 1039 218
Width: 41
VWidth: 0
Flags: W
LayerCount: 2
Fore
SplineSet
8 50 m 1,0,-1
 8 8 l 1,1,-1
 24.999 7.99902 l 1,2,-1
 25 49.9971 l 1,3,-1
 33 50 l 1,4,-1
 33 0 l 1,5,-1
 21.0713 0 l 1,6,-1
 21.0117 -7.00098 l 1,7,-1
 12.0049 -7.00098 l 1,8,-1
 12.0049 0.00683594 l 1,9,-1
 0 0 l 1,10,-1
 0 50 l 1,11,-1
 8 50 l 1,0,-1
EndSplineSet
Validated: 1
EndChar

StartChar: periodcentered
Encoding: 183 183 219
AltUni2: 000387.ffffffff.0
Width: 16
VWidth: 0
Flags: W
LayerCount: 2
Fore
SplineSet
0 20 m 5,0,-1
 8 20 l 5,1,-1
 8 12 l 5,2,-1
 0 12 l 5,3,-1
 0 20 l 5,0,-1
EndSplineSet
Validated: 1
EndChar

StartChar: theta
Encoding: 952 952 222
Width: 37
VWidth: 0
Flags: W
HStem: 0 8<14.7263 25.2737> 42 8<16.2984 23.8317>
VStem: 0 8<14.7345 29.5796> 32 8<14.7345 29.5796>
LayerCount: 2
Fore
SplineSet
21 17 m 9,0,1
 8 17 l 17,2,3
 8 8 8 8 14.5 8 c 128,-1,4
 21 8 21 8 21 17 c 9,0,1
21 23 m 1,5,6
 21 42 21 42 15 42 c 0,7,8
 8 42 8 42 8 23 c 1,9,-1
 21 23 l 1,5,6
0 20 m 0,10,11
 0 32 0 32 3.5 41 c 128,-1,12
 7 50 7 50 15 50 c 128,-1,13
 23 50 23 50 26 41 c 128,-1,14
 29 32 29 32 29 20 c 0,15,16
 29 0 29 0 14.5 0 c 128,-1,17
 0 0 0 0 0 20 c 0,10,11
EndSplineSet
Validated: 1
EndChar

StartChar: epsilon
Encoding: 949 949 223
Width: 37
VWidth: 0
Flags: W
LayerCount: 2
Fore
SplineSet
0 14 m 2,0,-1
 0 20 l 2,1,2
 0 32 0 32 11 32 c 2,3,-1
 29 32 l 17,4,-1
 29 25 l 1,5,-1
 12 25 l 18,6,7
 7 25 7 25 7 20 c 1,8,-1
 29 20 l 1,9,-1
 29 14 l 1,10,-1
 7 14 l 1,11,12
 7 8 7 8 12 8 c 2,13,-1
 29 8 l 1,14,-1
 29 0 l 1,15,-1
 11 0 l 2,16,17
 0 0 0 0 0 14 c 2,0,-1
EndSplineSet
Validated: 1
EndChar

StartChar: afii10051
Encoding: 1026 1026 225
Width: 47
VWidth: 0
Flags: W
LayerCount: 2
Fore
SplineSet
39 14 m 2,0,1
 39 0 l 10,2,3
 39 -14 39 -14 25 -14 c 10,4,-1
 19 -14 l 9,5,-1
 19 -6 l 17,6,-1
 25 -6 l 18,7,8
 31 -6 31 -6 31 0 c 18,9,-1
 31 14 l 2,10,11
 31 24 31 24 19 24 c 1,12,-1
 19 0 l 1,13,-1
 11 0 l 1,14,-1
 11 42 l 1,15,-1
 0 42 l 1,16,-1
 0 50 l 1,17,-1
 36 50 l 1,18,-1
 32 42 l 1,19,-1
 19 42 l 1,20,-1
 19 32 l 1,21,22
 39 32 39 32 39 14 c 2,0,1
EndSplineSet
Validated: 1
EndChar

StartChar: psi
Encoding: 968 968 227
AltUni2: 000471.ffffffff.0
Width: 50
VWidth: 0
Flags: W
LayerCount: 2
Fore
SplineSet
25 0 m 9,0,1
 25 -7 l 25,2,-1
 17 -7 l 25,3,-1
 17 0 l 1,4,5
 0 2 0 2 0 17 c 2,6,-1
 0 32 l 1,7,-1
 8 32 l 1,8,-1
 8 17 l 2,9,10
 8 8 8 8 17 8 c 1,11,-1
 17 32 l 1,12,-1
 25 32 l 1,13,-1
 25 8 l 1,14,15
 34 8 34 8 34 17 c 2,16,-1
 34 32 l 1,17,-1
 42 32 l 1,18,-1
 42 17 l 2,19,20
 42 2 42 2 25 0 c 9,0,1
EndSplineSet
Validated: 1
EndChar

StartChar: Psi
Encoding: 936 936 228
AltUni2: 000470.ffffffff.0
Width: 62
VWidth: 0
Flags: W
LayerCount: 2
Fore
SplineSet
23 13.0029 m 17,0,1
 0 14.9268 0 14.9268 0 37 c 0,2,-1
 0 50 l 1,3,-1
 8 50 l 1,4,-1
 8 37 l 0,5,6
 8 21 8 21 23 21 c 1,7,-1
 23 50 l 25,8,-1
 31 50 l 1,9,-1
 31 21 l 1,10,11
 46 21 46 21 46 37 c 0,12,-1
 46 50 l 1,13,-1
 54 50 l 1,14,-1
 54 37 l 0,15,16
 54 14.769 54 14.769 30.999 13 c 1,17,-1
 31 -0.00488281 l 25,18,-1
 23 0 l 25,19,-1
 23 13.0029 l 17,0,1
EndSplineSet
Validated: 1
EndChar

StartChar: Omega
Encoding: 937 937 229
Width: 52
VWidth: 0
Flags: W
HStem: 0 8<13.3101 26.6899> 42 8<14.9207 25.0625>
VStem: 0 8<13.3101 32.1594> 32 8<13.3101 31.5895>
LayerCount: 2
Fore
SplineSet
0 0 m 1,0,-1
 0 8.00098 l 1,1,-1
 44 8.00098 l 1,2,-1
 44 0 l 1,3,-1
 0 0 l 1,0,-1
8 26 m 0,4,5
 8 18 8 18 22 18 c 128,-1,7
 36 18 36 18 36 26 c 0,8,9
 34 42 34 42 22 42 c 0,10,11
 8 42 8 42 8 26 c 0,4,5
0 26 m 0,12,13
 0 34 0 34 5 41 c 0,14,15
 11 50 11 50 22 50 c 0,16,17
 35 50 35 50 39 41 c 0,18,19
 44 32 44 32 44 26 c 0,20,21
 44 10 44 10 22 10 c 128,-1,23
 0 10 0 10 0 26 c 0,12,13
EndSplineSet
Validated: 1
EndChar

StartChar: omega
Encoding: 969 969 230
Width: 50
VWidth: 0
Flags: W
LayerCount: 2
Back
SplineSet
8 14 m 4,0,1
 8 8 8 8 15 8 c 132,-1,2
 22 8 22 8 22 14 c 4,3,4
 21.9999 24 21.9999 24 15 24 c 132,-1,5
 8 24 8 24 8 14 c 4,0,1
0 13 m 4,6,7
 0 21 0 21 4.5 26.5 c 132,-1,8
 9 32 9 32 15 32 c 132,-1,9
 21 31.9999 21 31.9999 25.5 26.5 c 132,-1,10
 30 21 30 21 30 13 c 4,11,12
 30 0 30 0 15 0 c 132,-1,13
 0 0 0 0 0 13 c 4,6,7
EndSplineSet
Fore
SplineSet
27 8 m 2,0,1
 34 8 34 8 34 14 c 0,2,3
 34 22 34 22 30 23 c 1,4,-1
 30 32 l 17,5,6
 42 28 42 28 42 13 c 0,7,8
 42 0 42 0 24 0 c 2,9,-1
 18 0 l 2,10,11
 0 0 0 0 0 13 c 0,12,13
 0 28 0 28 12 32 c 9,14,-1
 12 23 l 1,15,16
 8 21 8 21 8 14 c 0,17,18
 8 8 8 8 15 8 c 2,19,-1
 17 8 l 1,20,-1
 17 21 l 1,21,-1
 25 21 l 1,22,-1
 25 8 l 1,23,-1
 27 8 l 2,0,1
EndSplineSet
Validated: 1
EndChar

StartChar: phi
Encoding: 966 966 233
Width: 48
VWidth: 0
Flags: W
HStem: 0 21G<0 7.99902> 41.6973 8.3066<7.98926 17.5976>
VStem: 0 7.99121<0 10.8359 19.8418 41.6973>
LayerCount: 2
Fore
SplineSet
24 9 m 17,0,1
 32 9 32 9 32 16.5 c 128,-1,2
 32 24 32 24 24 24 c 9,3,-1
 24 9 l 17,0,1
11 32 m 1,4,-1
 11 24 l 1,5,6
 8 24 8 24 8 16.5 c 128,-1,7
 8 9 8 9 16 9 c 9,8,-1
 16 32 l 25,9,-1
 24 32 l 18,10,11
 40 32 40 32 40 16 c 128,-1,12
 40 0 40 0 24 0 c 1,13,-1
 24 -7 l 1,14,-1
 16 -7 l 1,15,-1
 16 0 l 1,16,17
 -0 0 -0 0 0 16 c 128,-1,18
 0 32 0 32 11 32 c 1,4,-1
EndSplineSet
Validated: 1
EndChar

StartChar: uni03CF
Encoding: 975 975 234
Width: 44
VWidth: 0
Flags: W
LayerCount: 2
Fore
SplineSet
26 0 m 21,14,-1
 8 25 l 5,1,-1
 8 0 l 5,2,-1
 0 0 l 5,3,-1
 0 50 l 5,4,-1
 8 50 l 5,5,-1
 8 38 l 5,6,-1
 23 50 l 5,7,-1
 36 50 l 5,8,-1
 13 32 l 5,9,-1
 36 0 l 13,11,-1
 28.1426 -9.14258 l 29,12,-1
 17.1406 -9.1416 l 29,13,-1
 26 0 l 21,14,-1
EndSplineSet
Validated: 1
EndChar

StartChar: afii10099
Encoding: 1106 1106 236
Width: 36
VWidth: 0
Flags: W
HStem: 0 21G<0 8 15 25.3333> 0 21G<0 8 15 25.3333> 24 8<8 15.2998>
VStem: 0 8<0 24> 20 8<7.28076 19.3086>
LayerCount: 2
Fore
SplineSet
8 32 m 17,0,1
 28 32 28 32 28 14 c 2,2,-1
 28 0 l 10,3,4
 28 -14 28 -14 14 -14 c 10,5,-1
 8 -14 l 9,6,-1
 8 -6 l 17,7,-1
 14 -6 l 18,8,9
 20 -6 20 -6 20 0 c 18,10,-1
 20 14 l 2,11,12
 20 24 20 24 8 24 c 1,13,-1
 8 0 l 1,14,-1
 0 0 l 1,15,-1
 0 24 l 1,16,-1
 -4 24 l 1,17,-1
 -6 31.875 l 1,18,-1
 0 31.875 l 1,19,-1
 0 50 l 9,20,-1
 8 50 l 25,21,-1
 8 32 l 17,0,1
EndSplineSet
Validated: 1
EndChar

StartChar: lambda
Encoding: 955 955 238
Width: 40
VWidth: 0
Flags: W
LayerCount: 2
Fore
SplineSet
0 0.000976562 m 25,0,-1
 13 28.998 l 1,1,-1
 5.99902 50.002 l 1,2,-1
 14 50 l 1,3,-1
 32 0 l 1,4,-1
 24.0029 0.000976562 l 1,5,-1
 17 19 l 1,6,-1
 9.00293 -0.000976562 l 1,7,-1
 0 0.000976562 l 25,0,-1
EndSplineSet
Validated: 1
EndChar

StartChar: afii10106
Encoding: 1113 1113 240
Width: 32
VWidth: 0
Flags: W
LayerCount: 2
Fore
SplineSet
33 13 m 2,0,1
 29 13 l 1,2,-1
 29 6 l 1,3,-1
 33 6 l 2,4,5
 37 6 37 6 37 10 c 4,6,7
 37 13 37 13 33 13 c 2,0,1
29 19 m 1,8,-1
 33 19 l 26,9,10
 45 19 45 19 45 10 c 4,11,12
 45 0 45 0 33 -0 c 26,13,-1
 21 0 l 17,14,-1
 21 24 l 1,15,-1
 15 24 l 1,16,-1
 15 16 l 2,17,18
 15 0 15 0 0 0 c 1,19,-1
 0 8 l 1,20,21
 7 8 7 8 7 16 c 2,22,-1
 7 32 l 1,23,-1
 29 32 l 1,24,-1
 29 19 l 1,8,-1
EndSplineSet
Validated: 1
EndChar

StartChar: afii10107
Encoding: 1114 1114 241
Width: 32
VWidth: 0
Flags: W
HStem: -0.00585938 21G<0 8 28 36.001> 27.999 7.9922<8.00195 28.002> 29.9902 20G<0 7.99902 27.998 36.001>
VStem: 0 8.00195<0 27.999 35.9912 49.9736> 28 8.001<-0.00585938 27.9941 35.9893 49.9893>
LayerCount: 2
Fore
SplineSet
33 13 m 2,0,1
 29 13 l 1,2,-1
 29 6 l 1,3,-1
 33 6 l 2,4,5
 37 6 37 6 37 10 c 0,6,7
 37 13 37 13 33 13 c 2,0,1
21 0 m 17,8,-1
 21 15 l 1,9,-1
 8 15 l 1,10,-1
 8 0 l 1,11,-1
 0 0 l 1,12,-1
 0 32 l 1,13,-1
 8 32 l 1,14,-1
 8 23 l 1,15,-1
 21 23 l 1,16,-1
 21 32 l 1,17,-1
 29 32 l 1,18,-1
 29 19 l 1,19,-1
 33 19 l 26,20,21
 45 19 45 19 45 10 c 0,22,23
 45 -0 45 -0 33 -0 c 26,24,-1
 21 0 l 17,8,-1
EndSplineSet
Validated: 8388609
EndChar

StartChar: afii10108
Encoding: 1115 1115 242
Width: 36
VWidth: 0
Flags: W
HStem: 0 21G<0 8 15 25.3333> 0 21G<0 8 15 25.3333> 24 8<8 15.2998>
VStem: 0 8<0 24> 20 8<7.28076 19.3086>
LayerCount: 2
Fore
SplineSet
28 0 m 9,0,-1
 20 0 l 17,1,-1
 20 14 l 2,2,3
 20 24 20 24 8 24 c 1,4,-1
 8 0 l 1,5,-1
 0 0 l 1,6,-1
 0 24 l 1,7,-1
 -4 24 l 1,8,-1
 -6 32 l 1,9,-1
 0 32 l 1,10,-1
 0 50 l 9,11,-1
 8 50 l 25,12,-1
 8 32 l 17,13,14
 28 32 28 32 28 14 c 2,15,-1
 28 0 l 9,0,-1
EndSplineSet
Validated: 8388609
EndChar

StartChar: afii10193
Encoding: 1119 1119 244
Width: 37
VWidth: 0
Flags: W
LayerCount: 2
Fore
SplineSet
0 -0.00585938 m 1,0,-1
 0 31.9932 l 1,1,-1
 7.99805 31.9932 l 1,2,-1
 8 7.99414 l 1,3,-1
 20.9951 7.99414 l 1,4,-1
 20.9902 31.999 l 1,5,-1
 28.9951 31.9902 l 1,6,-1
 28.9951 -0.00585938 l 1,7,-1
 18.9922 -0.00878906 l 1,8,-1
 18.9902 -6.01074 l 1,9,-1
 10.0029 -6.00684 l 1,10,-1
 10.0039 -0.00585938 l 1,11,-1
 0 -0.00585938 l 1,0,-1
EndSplineSet
Validated: 1
EndChar

StartChar: uni0460
Encoding: 1120 1120 246
Width: 60
VWidth: 0
Flags: W
HStem: 0 8<13.3101 26.6899> 42 8<14.9207 25.0625>
VStem: 0 8<13.3101 32.1594> 32 8<13.3101 31.5895>
LayerCount: 2
Fore
SplineSet
26 0 m 128,-1,1
 0 0 0 0 0 20 c 0,2,3
 0 45 0 45 17 50 c 9,4,-1
 17 42 l 17,5,6
 8 39 8 39 8 20 c 0,7,8
 8 8 8 8 22 8 c 1,9,-1
 22 32 l 25,10,-1
 30 32 l 1,11,-1
 30 8 l 1,12,13
 45 8 45 8 45 20 c 0,14,15
 45 39 45 39 35 42 c 9,16,-1
 35 50 l 17,17,18
 52 45 52 45 52 20 c 0,19,0
 52 0 52 0 26 0 c 128,-1,1
EndSplineSet
Validated: 1
EndChar

StartChar: Eng
Encoding: 330 330 248
Width: 44
VWidth: 0
Flags: W
LayerCount: 2
Fore
SplineSet
36 -0.00292969 m 25,0,1
 36 -14 36 -14 22 -14 c 10,2,-1
 16 -14 l 9,3,-1
 16 -6 l 17,4,-1
 22 -6 l 18,5,6
 28 -6 28 -6 28 -0.000976562 c 25,7,-1
 36 -0.00292969 l 25,0,1
EndSplineSet
Refer: 17 78 N 1 0 0 1 0 0 2
Validated: 1
EndChar

StartChar: chi
Encoding: 967 967 252
Width: 40
VWidth: 0
Flags: W
HStem: 0 21G<0 16 16 32> 0 21G<0 16 16 32> 12 20G<0 16 16 32>
LayerCount: 2
Fore
SplineSet
6 32 m 1,0,-1
 16 15 l 1,1,-1
 26 32 l 1,2,-1
 32 25 l 1,3,-1
 22 9 l 1,4,-1
 32 -6 l 1,5,-1
 27 -14 l 1,6,-1
 16 3 l 1,7,-1
 5 -14 l 1,8,-1
 0 -6 l 1,9,-1
 10 9 l 1,10,-1
 0 25 l 1,11,-1
 6 32 l 1,0,-1
EndSplineSet
Validated: 1
EndChar

StartChar: sigma
Encoding: 963 963 253
Width: 39
VWidth: 0
Flags: W
HStem: 0 8<9.88171 20.1183> 24 8<10.8078 19.1922>
VStem: 0 8<9.92578 20.8152> 22 8<9.92578 20.8152>
LayerCount: 2
Fore
SplineSet
26.9932 24.0088 m 17,0,1
 30 18.5146 30 18.5146 30 13 c 0,2,3
 30 0 30 0 15 0 c 128,-1,4
 0 0 0 0 0 13 c 0,5,6
 0 21 0 21 4.5 26.5 c 128,-1,7
 9 32 9 32 15 32 c 9,8,-1
 31 32 l 29,9,-1
 31 24 l 29,10,-1
 26.9932 24.0088 l 17,0,1
8 14 m 0,11,12
 8 8 8 8 15 8 c 128,-1,13
 22 8 22 8 22 14 c 0,14,15
 21.9999 24 21.9999 24 15 24 c 128,-1,16
 8 24 8 24 8 14 c 0,11,12
EndSplineSet
Validated: 1
EndChar

StartChar: sigma1
Encoding: 962 962 254
Width: 34
VWidth: 0
Flags: W
HStem: 0 8<15.4373 26.0332> 24 8<19.8228 26.0332>
VStem: 3.0332 8<11.105 17.1875>
LayerCount: 2
Fore
SplineSet
13 -12 m 9,0,1
 13 -5 l 17,2,3
 18 -5 18 -5 18 -3 c 128,-1,4
 18 -1 18 -1 9 5 c 128,-1,5
 0 11 0 11 0 20.5 c 128,-1,6
 0 30 0 30 15 32 c 1,7,-1
 26 32 l 1,8,-1
 26 24 l 1,9,-1
 15 24 l 1,10,11
 8 23 8 23 8 19 c 0,12,13
 8 14 8 14 17 8 c 128,-1,14
 26 2 26 2 26 -3 c 0,15,16
 26 -12 26 -12 13 -12 c 9,0,1
EndSplineSet
Validated: 1
EndChar

StartChar: gamma
Encoding: 947 947 255
Width: 37
VWidth: 0
Flags: W
HStem: -13.9922 21G<-0.00585938 13.9839> 0.666016 21G<8.16798 17.668> 12 20G<0 7.91667 19.167 27>
VStem: 0 7.83333<20.9528 32> 19.167 7.833<18.8984 32>
LayerCount: 2
Fore
SplineSet
11 5 m 17,0,1
 0 32 l 1,2,-1
 8 32 l 1,3,4
 15 15 l 1,5,-1
 21 32 l 1,6,-1
 29 32 l 1,7,-1
 19 5 l 9,8,-1
 19 -14 l 25,9,-1
 11 -14 l 25,10,-1
 11 5 l 17,0,1
EndSplineSet
Validated: 1
EndChar

StartChar: brokenbar
Encoding: 166 166 256
Width: 16
VWidth: 0
Flags: W
HStem: 0 21G<0 8> 0 21G<0 8> 30 20G<0 8>
VStem: 0 8<0 50>
LayerCount: 2
Fore
SplineSet
0 15 m 1,0,-1
 8 15 l 1,1,-1
 8 -14 l 1,2,-1
 0 -14 l 1,3,-1
 0 15 l 1,0,-1
0 50 m 1,4,-1
 8 50 l 1,5,-1
 8 22 l 1,6,-1
 0 22 l 1,7,-1
 0 50 l 1,4,-1
EndSplineSet
Validated: 1
EndChar

StartChar: zeta
Encoding: 950 950 258
Width: 37
VWidth: 0
Flags: W
LayerCount: 2
Fore
SplineSet
13 8 m 14,0,1
 18 8 l 6,2,3
 29 8 29 8 29 -3 c 132,-1,4
 29 -14 29 -14 16 -14 c 13,5,-1
 16 -7 l 21,6,7
 21 -7 21 -7 21 -3.5 c 132,-1,8
 21 0 21 0 18 -0 c 14,9,-1
 11 0 l 6,10,11
 0 0 0 0 0 11 c 4,12,13
 0 23 0 23 9 32 c 6,14,-1
 12 35 l 5,15,-1
 0 35 l 5,16,-1
 0 42 l 5,17,-1
 22 42 l 5,18,-1
 22 35 l 5,19,-1
 15 27 l 6,20,21
 8 19 8 19 8 11 c 4,22,23
 8 8 8 8 13 8 c 14,0,1
EndSplineSet
Validated: 1
EndChar

StartChar: nu
Encoding: 957 957 261
Width: 37
VWidth: 0
Flags: W
LayerCount: 2
Fore
SplineSet
21 32 m 8,0,-1
 29 32 l 17,1,2
 29 7 29 7 16 0 c 1,3,-1
 8 0 l 1,4,-1
 0 32 l 1,5,-1
 8 32 l 1,6,-1
 14 10 l 9,7,8
 21 14 21 14 21 32 c 8,0,-1
EndSplineSet
Validated: 1
EndChar

StartChar: mu
Encoding: 956 956 262
Width: 44
VWidth: 0
Flags: W
HStem: -0.00585938 21G<0 8 28 36.001> 27.999 7.9922<8.00195 28.002> 29.9902 20G<0 7.99902 27.998 36.001>
VStem: 0 8.00195<0 27.999 35.9912 49.9736> 28 8.001<-0.00585938 27.9941 35.9893 49.9893>
LayerCount: 2
Fore
SplineSet
36 0 m 5,0,-1
 8 0 l 5,1,-1
 8 -14 l 5,2,-1
 0 -14 l 5,3,-1
 0 32 l 5,4,-1
 8 32 l 5,5,-1
 8 8 l 5,6,-1
 21 8 l 5,7,-1
 21 32 l 5,8,-1
 29 32 l 5,9,-1
 29.0078 8 l 5,10,-1
 36.0078 7.99609 l 5,11,-1
 36 0 l 5,0,-1
EndSplineSet
Validated: 1
EndChar

StartChar: xi
Encoding: 958 958 263
Width: 37
VWidth: 0
Flags: W
LayerCount: 2
Fore
SplineSet
12 24 m 17,0,1
 8 20 8 20 8 13 c 0,2,3
 8 8 8 8 15 8 c 10,4,-1
 18 8 l 2,5,6
 29 8 29 8 29 -3 c 128,-1,7
 29 -14 29 -14 16 -14 c 9,8,-1
 16 -6 l 17,9,10
 21 -6 21 -6 21 -3 c 128,-1,11
 21 0 21 0 18 -0 c 10,12,-1
 13 0 l 2,13,14
 0 0 0 0 0 13 c 0,15,16
 0 21.0039 0 21.0039 4 26 c 1,17,18
 4.00195 50 4.00195 50 19 50 c 2,19,-1
 29 50 l 1,20,-1
 29 42 l 1,21,-1
 19 42 l 2,22,23
 12 42 12 42 12 32 c 9,24,-1
 29 32 l 17,25,-1
 29 24 l 1,26,-1
 12 24 l 17,0,1
EndSplineSet
Validated: 1
EndChar

StartChar: delta
Encoding: 948 948 264
Width: 38
VWidth: 0
Flags: W
HStem: 0 8<9.88171 20.1183> 24 8<10.8078 19.1922>
VStem: 0 8<9.92578 20.8152> 22 8<9.92578 20.8152>
LayerCount: 2
Back
SplineSet
4.67578 27.125 m 1,0,1
 1 31 1 31 1 35 c 0,2,3
 1 46 1 46 15 46 c 2,4,-1
 25 46 l 1,5,-1
 25 39 l 1,6,-1
 15 39 l 2,7,8
 10 39 10 39 10 35.5 c 128,-1,9
 10 32 10 32 15 32 c 0,10,11
 30 32 30 32 30 14 c 0,12,13
 30 0 30 0 15 0 c 128,-1,14
 0 0 0 0 0 13 c 0,15,16
 0 21.7295 0 21.7295 4.67578 27.125 c 1,0,1
8 14 m 0,17,18
 8 8 8 8 15 8 c 128,-1,19
 22 8 22 8 22 14 c 0,20,21
 22 24 22 24 15 24 c 128,-1,22
 8 24 8 24 8 14 c 0,17,18
61 21 m 2,10,11
 67 21 67 21 67 15 c 2,12,-1
 67 11 l 2,13,14
 67 0 67 0 38 0 c 1,15,-1
 38 8 l 1,16,17
 59 8 59 8 59 13 c 1,18,-1
 52 13 l 6,19,20
 38 13 38 13 38 22.5 c 132,-1,21
 38 32 38 32 52 32 c 6,22,-1
 67 32 l 5,23,-1
 67 25 l 5,24,-1
 52 25 l 6,25,26
 47 25 47 25 47 23 c 132,-1,27
 47 21 47 21 52 21 c 6,28,-1
 61 21 l 2,10,11
EndSplineSet
Fore
SplineSet
19 32 m 1,0,1
 22.0769 31 22.0769 31 26 26 c 0,2,3
 30 20 30 20 30 13 c 0,4,5
 30 0 30 0 15 0 c 128,-1,6
 0 0 0 0 0 13 c 0,7,8
 0 21 0 21 4 26 c 128,-1,9
 7.92308 31 7.92308 31 11 32 c 1,10,-1
 11 45 l 5,11,-1
 19 45 l 5,12,-1
 19 32 l 1,0,1
8 14 m 0,13,14
 8 8 8 8 15 8 c 128,-1,15
 22 8 22 8 22 14 c 0,16,17
 22 24 22 24 15 24 c 128,-1,18
 8 24 8 24 8 14 c 0,13,14
EndSplineSet
Validated: 1
EndChar

StartChar: beta
Encoding: 946 946 265
Width: 41
VWidth: 0
Flags: W
HStem: -0.000976562 21G<-0.00308681 17.9961> 24.1689 8<8.50195 15.625> 38.5439 9.125<8.50195 12.9997>
VStem: -0.00390625 8.33691<11.667 24.1689 32.1689 38.5439>
LayerCount: 2
Fore
SplineSet
8 41 m 1,0,1
 8 32 l 1,2,-1
 19 32 l 1,3,4
 19 41 19 41 8 41 c 1,0,1
8 9 m 1,5,6
 25 13 25 13 25 21 c 0,7,8
 25 23 25 23 22 24 c 1,9,-1
 8 24 l 1,10,-1
 8 9 l 1,5,6
0 50 m 17,11,12
 27 50 27 50 27 32 c 1,13,14
 33 26 33 26 33 21 c 0,15,16
 33 7 33 7 8 -0 c 1,17,-1
 8 -14 l 9,18,-1
 0 -14 l 25,19,-1
 0 50 l 17,11,12
EndSplineSet
Validated: 1
EndChar

StartChar: alpha
Encoding: 945 945 266
Width: 37
VWidth: 0
Flags: W
HStem: 0 21G<14 26> 24 8<11.3869 18> 30 20G<18 26>
VStem: -0 8<13.9967 21.231> 18 8<9 24 32 50>
LayerCount: 2
Fore
SplineSet
8 20 m 0,0,1
 8 12 8 12 21 9 c 1,2,-1
 21 24 l 1,3,4
 10 24 l 1,5,6
 8 22 8 22 8 20 c 0,0,1
29 32 m 1,7,-1
 29 0 l 9,8,-1
 21 0 l 1,9,10
 0 5 0 5 0 20 c 0,11,12
 0 27 0 27 6 32 c 1,13,-1
 29 32 l 1,7,-1
EndSplineSet
Validated: 8388609
EndChar

StartChar: uni03F1
Encoding: 1009 1009 268
Width: 37
VWidth: 0
Flags: W
HStem: -14 21G<0 8> 24 8<8 15.3313>
VStem: 0 8<-14 0.477417 10 24> 19 8<16.7054 22.029>
LayerCount: 2
Fore
SplineSet
0 0 m 18,0,-1
 0 11 l 10,1,2
 0 32 0 32 10 32 c 1,3,-1
 23 32 l 1,4,5
 29 27 29 27 29 20 c 0,6,7
 29 12 29 12 20 5 c 0,8,9
 16 2 16 2 8 0 c 9,10,11
 8 -6 8 -6 14 -6 c 10,12,-1
 20 -6 l 9,13,-1
 20 -14 l 17,14,-1
 14 -14 l 18,15,16
 0 -14 0 -14 0 0 c 18,0,-1
13 24 m 0,17,18
 8 24 8 24 8 9 c 17,19,20
 12 9 12 9 16 12 c 0,21,22
 21 16 21 16 21 19 c 128,-1,23
 21 22 21 22 19 24 c 1,24,-1
 13 24 l 0,17,18
EndSplineSet
Validated: 1
EndChar

StartChar: dotlessi
Encoding: 305 305 274
Width: 16
VWidth: 0
Flags: W
HStem: 0 21G<0 8> 0 21G<0 8> 12 20G<0 8> 42 8<0 8>
VStem: 0 8<0 32 42 50>
LayerCount: 2
Fore
SplineSet
0 32 m 1,0,-1
 8 32 l 1,1,-1
 8 0 l 1,2,-1
 0 0 l 1,3,-1
 0 32 l 1,0,-1
EndSplineSet
Validated: 1
EndChar

StartChar: phi1
Encoding: 981 981 278
Width: 48
VWidth: 0
Flags: W
LayerCount: 2
Fore
SplineSet
24 42 m 1,0,1
 29.1289 41 29.1289 41 34.5645 35.5 c 128,-1,2
 40 30 40 30 40 18 c 0,3,4
 40 2.28571 40 2.28571 24 0 c 1,5,-1
 24 -8 l 1,6,-1
 16 -8 l 1,7,-1
 16 0 l 17,8,9
 0 2 0 2 0 18 c 0,10,11
 0 27.0005 0 27.0005 5 34 c 0,12,13
 9.17363 40 9.17363 40 16 42 c 1,14,-1
 16 50 l 1,15,-1
 24 50 l 1,16,-1
 24 42 l 1,0,1
24 8 m 1,17,18
 32 10 32 10 32 18 c 0,19,20
 31 30.3333 31 30.3333 24 33 c 1,21,-1
 24 8 l 1,17,18
16 33 m 1,22,23
 9 31 9 31 8 18 c 0,24,25
 8 10.6667 8 10.6667 16 8 c 1,26,-1
 16 33 l 1,22,23
EndSplineSet
Validated: 1
EndChar

StartChar: Amacron
Encoding: 256 256 289
Width: 44
VWidth: 0
Flags: W
LayerCount: 2
Fore
SplineSet
11 61.0039 m 5,0,-1
 32 61.0039 l 5,1,-1
 32 54 l 5,2,-1
 11 54 l 5,3,-1
 11 61.0039 l 5,0,-1
EndSplineSet
Refer: 0 65 N 1 0 0 1 0 0 2
Validated: 1
EndChar

StartChar: amacron
Encoding: 257 257 290
Width: 37
VWidth: 0
Flags: W
LayerCount: 2
Fore
SplineSet
4 43.0039 m 5,0,-1
 25 43.0039 l 5,1,-1
 25 36 l 5,2,-1
 4 36 l 5,3,-1
 4 43.0039 l 5,0,-1
EndSplineSet
Refer: 2 97 N 1 0 0 1 0 0 2
Validated: 1
EndChar

StartChar: dcroat
Encoding: 273 273 308
Width: 51
VWidth: 0
Flags: W
LayerCount: 2
Fore
SplineSet
8 19.8574 m 0,0,1
 8 11.8574 8 11.8574 21 8.85742 c 1,2,-1
 21 23.8574 l 1,3,-1
 10 23.8574 l 1,4,5
 8 21.8574 8 21.8574 8 19.8574 c 0,0,1
29 -0.142578 m 9,6,-1
 21 -0.142578 l 1,7,8
 0 4.85742 0 4.85742 0 19.8574 c 0,9,10
 0 26.8574 0 26.8574 6 31.8574 c 1,11,-1
 21 31.8574 l 1,12,-1
 21 37.8477 l 1,13,-1
 13.0049 37.8447 l 1,14,-1
 12.9961 43.8516 l 1,15,-1
 20.9961 43.8545 l 1,16,-1
 21 49.8574 l 1,17,-1
 29 49.8574 l 1,18,-1
 29 -0.142578 l 9,6,-1
EndSplineSet
Validated: 1
EndChar

StartChar: Emacron
Encoding: 274 274 309
Width: 44
VWidth: 0
Flags: W
LayerCount: 2
Fore
SplineSet
8 61.0039 m 5,0,-1
 29 61.0039 l 5,1,-1
 29 54 l 5,2,-1
 8 54 l 5,3,-1
 8 61.0039 l 5,0,-1
EndSplineSet
Refer: 9 69 N 1 0 0 1 0 0 2
Validated: 1
EndChar

StartChar: emacron
Encoding: 275 275 310
Width: 38
VWidth: 0
Flags: W
LayerCount: 2
Fore
SplineSet
6 44.0039 m 1,0,-1
 27 44.0039 l 1,1,-1
 27 37 l 1,2,-1
 6 37 l 1,3,-1
 6 44.0039 l 1,0,-1
EndSplineSet
Refer: 32 101 N 1 0 0 1 0 0 2
Validated: 1
EndChar

StartChar: sterling
Encoding: 163 163 320
Width: 44
VWidth: 0
Flags: W
LayerCount: 2
Fore
SplineSet
10 13 m 17,0,1
 9 8 l 1,2,-1
 36 8 l 1,3,-1
 36 0 l 1,4,-1
 0 0 l 1,5,6
 0 42 0 42 36 50 c 1,7,-1
 36 41 l 1,8,9
 24 39 24 39 15 26 c 1,10,-1
 36 26 l 1,11,-1
 36 21 l 1,12,-1
 12 21 l 1,13,-1
 11 18 l 1,14,-1
 36 18 l 1,15,-1
 36 13 l 1,16,-1
 10 13 l 17,0,1
EndSplineSet
Validated: 1
EndChar

StartChar: Gcommaaccent
Encoding: 290 290 339
Width: 44
VWidth: 0
LayerCount: 2
Fore
SplineSet
16.9941 1 m 1,0,-1
 24.0068 1 l 1,1,-1
 24.0068 -9.86621 l 1,2,-1
 16.9941 -9.86621 l 1,3,-1
 16.9941 1 l 1,0,-1
EndSplineSet
Refer: 12 71 N 1 0 0 1 0 0 3
Validated: 1
EndChar

StartChar: Hbar
Encoding: 294 294 343
Width: 44
VWidth: 0
Flags: W
HStem: 3.23222 19.2242G<-0.10828 7.9981 28.264 36.3714> 28.8689 7.31635<8.00008 28.2661> 30.6917 18.3087G<-0.10828 7.99711 28.262 36.3714>
VStem: -0.10828 8.10836<3.23758 28.8689 36.1852 48.9852> 28.264 8.10739<3.23222 28.8644 36.1835 48.9996>
LayerCount: 2
Fore
SplineSet
8 34 m 1,0,-1
 8 30 l 1,1,-1
 28 30 l 1,2,-1
 28 34 l 1,3,-1
 8 34 l 1,0,-1
8 41 m 1,4,-1
 28 41 l 1,5,-1
 28 50 l 1,6,-1
 36 50 l 1,7,-1
 36 -0 l 1,8,-1
 28 -0 l 1,9,-1
 28 23 l 1,10,-1
 8 23 l 1,11,-1
 8 0 l 1,12,-1
 0 0 l 1,13,-1
 0 50 l 1,14,-1
 8 50 l 1,15,-1
 8 41 l 1,4,-1
EndSplineSet
Validated: 1
EndChar

StartChar: hbar
Encoding: 295 295 344
Width: 36
VWidth: 0
Flags: W
LayerCount: 2
Fore
SplineSet
28 0 m 5,0,-1
 20 0 l 5,1,-1
 20 14 l 6,2,3
 20 24 20 24 8 24 c 5,4,-1
 8 0 l 5,5,-1
 0 0 l 5,6,-1
 0.00390625 34 l 5,7,-1
 -3.99609 34.002 l 5,8,-1
 -3.99902 40.9912 l 5,9,-1
 0 40.8571 l 5,10,-1
 0 50 l 5,11,-1
 8 50 l 5,12,-1
 8 41 l 5,13,-1
 15.999 40.998 l 5,14,-1
 15.999 34.002 l 5,15,-1
 8 34.001 l 5,16,-1
 8 32 l 5,17,18
 28 32 28 32 28 14 c 6,19,-1
 28 0 l 5,0,-1
16 41 m 1029,20,-1
EndSplineSet
Validated: 1
EndChar

StartChar: Imacron
Encoding: 298 298 347
Width: 16
VWidth: 0
Flags: W
LayerCount: 2
Fore
SplineSet
-7 61.0039 m 5,0,-1
 14 61.0039 l 5,1,-1
 14 54 l 5,2,-1
 -7 54 l 5,3,-1
 -7 61.0039 l 5,0,-1
EndSplineSet
Refer: 8 73 N 1 0 0 1 0 0 2
Validated: 1
EndChar

StartChar: imacron
Encoding: 299 299 348
Width: 16
VWidth: 0
Flags: W
LayerCount: 2
Fore
SplineSet
-7 44.0039 m 5,0,-1
 14 44.0039 l 5,1,-1
 14 37 l 5,2,-1
 -7 37 l 5,3,-1
 -7 44.0039 l 5,0,-1
EndSplineSet
Refer: 274 305 N 1 0 0 1 0 0 2
Validated: 1
EndChar

StartChar: IJ
Encoding: 306 306 354
Width: 40
VWidth: 0
Flags: W
HStem: 0 21G<0 8> 0 21G<0 8> 30 20G<0 8>
VStem: 0 8<0 50>
LayerCount: 2
Fore
SplineSet
0 50.0039 m 17,0,-1
 8 50 l 1,1,-1
 8 15.9951 l 25,2,-1
 -0.000976562 16.001 l 25,3,-1
 0 50.0039 l 17,0,-1
EndSplineSet
Refer: 13 74 N 1 0 0 1 0 0 2
Validated: 1
EndChar

StartChar: ij
Encoding: 307 307 355
Width: 48
VWidth: 0
LayerCount: 2
Fore
SplineSet
0 32 m 1,0,-1
 8 32 l 1,1,-1
 8 5 l 1,2,-1
 0 0 l 1,3,-1
 0 32 l 1,0,-1
0 50 m 1,4,-1
 8 50 l 1,5,-1
 8 42 l 1,6,-1
 0 42 l 1,7,-1
 0 50 l 1,4,-1
EndSplineSet
Refer: 38 106 N 1 0 0 1 0 0 2
Validated: 1
EndChar

StartChar: jcircumflex
Encoding: 309 309 357
Width: 32
VWidth: 0
LayerCount: 2
Fore
SplineSet
16 32 m 17,0,-1
 24 32 l 1,1,-1
 24 13 l 2,2,3
 24 -14 24 -14 0 -14 c 1,4,-1
 0 -6 l 1,5,6
 16 -6 16 -6 16 13 c 2,7,-1
 16 32 l 17,0,-1
EndSplineSet
Refer: 88 94 N 1 0 0 1 8 2 2
Validated: 1
EndChar

StartChar: Kcommaaccent
Encoding: 310 310 358
Width: 44
VWidth: 0
LayerCount: 2
Fore
SplineSet
19.9971 -10 m 5,0,-1
 12 -10 l 5,1,-1
 12 0 l 5,2,-1
 19.9971 0 l 5,3,-1
 19.9971 -10 l 5,0,-1
EndSplineSet
Refer: 14 75 N 1 0 0 1 0 0 3
Validated: 1
EndChar

StartChar: kcommaaccent
Encoding: 311 311 359
Width: 40
VWidth: 0
LayerCount: 2
Fore
SplineSet
17.9971 -10 m 1,0,-1
 10 -10 l 1,1,-1
 10 0 l 1,2,-1
 17.9971 0 l 1,3,-1
 17.9971 -10 l 1,0,-1
EndSplineSet
Refer: 39 107 N 1 0 0 1 0 0 3
Validated: 1
EndChar

StartChar: Lcommaaccent
Encoding: 315 315 363
Width: 44
VWidth: 0
LayerCount: 2
Fore
SplineSet
21.9971 -14 m 1,0,-1
 14 -14 l 1,1,-1
 14 -4 l 1,2,-1
 21.9971 -4 l 1,3,-1
 21.9971 -14 l 1,0,-1
EndSplineSet
Refer: 15 76 N 1 0 0 1 0 0 3
Validated: 1
EndChar

StartChar: lcommaaccent
Encoding: 316 316 364
Width: 15
VWidth: 0
Flags: W
LayerCount: 2
Fore
SplineSet
7.99707 -14 m 5,0,-1
 0 -14 l 5,1,-1
 0 -4 l 5,2,-1
 7.99707 -4 l 5,3,-1
 7.99707 -14 l 5,0,-1
EndSplineSet
Refer: 30 108 N 1 0 0 1 0 0 3
Validated: 1
EndChar

StartChar: Lslash
Encoding: 321 321 369
Width: 44
VWidth: 0
Flags: W
LayerCount: 2
Fore
SplineSet
8 8 m 1,0,-1
 32 8 l 1,1,-1
 36 0 l 1,2,-1
 0 0 l 1,3,-1
 0 16.8571 l 1,4,-1
 -7.99902 13 l 1,5,-1
 -7.99512 21.0029 l 1,6,-1
 0 24.8652 l 1,7,-1
 0 50 l 1,8,-1
 8 50 l 1,9,-1
 8 28.2861 l 1,10,-1
 15.7109 31.9902 l 1,11,-1
 15.7119 24 l 1,12,-1
 8 20.4286 l 1,13,-1
 8 8 l 1,0,-1
EndSplineSet
Validated: 1
EndChar

StartChar: lslash
Encoding: 322 322 370
Width: 44
VWidth: 0
Flags: W
LayerCount: 2
Fore
SplineSet
0 50 m 1,0,-1
 8 44 l 1,1,-1
 8 28.5714 l 1,2,-1
 15.7168 31.9922 l 1,3,-1
 15.7139 24 l 1,4,-1
 8 20.4286 l 1,5,-1
 8 0 l 1,6,-1
 0 0 l 1,7,-1
 0 16.7143 l 1,8,-1
 -7.99316 13.0107 l 1,9,-1
 -7.99609 20.998 l 1,10,-1
 0 24.7143 l 1,11,-1
 0 50 l 1,0,-1
EndSplineSet
Validated: 1
EndChar

StartChar: uni00B2
Encoding: 178 178 372
Width: 27
VWidth: 0
Flags: W
LayerCount: 2
Fore
SplineSet
11.7129 38.5693 m 14,0,1
 9 36 l 5,2,-1
 15 36 l 5,3,-1
 19 32 l 5,4,-1
 3 32 l 5,5,-1
 0 36 l 5,6,-1
 6.01758 40.1426 l 22,7,8
 8 41.5073 8 41.5073 8 43 c 4,9,10
 8 45 8 45 5 45 c 6,11,-1
 3 45 l 5,12,-1
 0 50 l 5,13,-1
 5 50 l 6,14,15
 14 50 14 50 14 43 c 4,16,17
 14 40.7354 14 40.7354 11.7129 38.5693 c 14,0,1
EndSplineSet
Validated: 1
EndChar

StartChar: uni00B3
Encoding: 179 179 373
Width: 26
VWidth: 0
Flags: W
LayerCount: 2
Fore
SplineSet
2 46 m 10,0,-1
 0 46 l 1,1,-1
 0 50 l 1,2,3
 14 50 14 50 14 45 c 0,4,5
 14 44 14 44 13 43 c 1,6,7
 18 42 18 42 18 38 c 0,8,9
 18 32 18 32 9 32 c 10,10,-1
 0 32 l 1,11,-1
 0 36 l 1,12,-1
 9 36 l 18,13,14
 13 36 13 36 13 38 c 0,15,16
 13 39 13 39 11 39 c 1,17,-1
 0 39 l 1,18,-1
 0 43 l 1,19,-1
 8 43 l 1,20,21
 9 43 9 43 9 44 c 0,22,23
 9 46 9 46 2 46 c 10,0,-1
EndSplineSet
Validated: 1
EndChar

StartChar: eth
Encoding: 240 240 374
Width: 38
VWidth: 0
Flags: W
LayerCount: 2
Back
SplineSet
11 49 m 5,0,-1
 19 49 l 5,1,-1
 19 41 l 5,2,-1
 27 41 l 5,3,-1
 27 33 l 5,4,-1
 19 33 l 5,5,-1
 19 25 l 5,6,-1
 11 25 l 5,7,-1
 11 33 l 5,8,-1
 3 33 l 5,9,-1
 3 41 l 5,10,-1
 11 41 l 5,11,-1
 11 49 l 5,0,-1
EndSplineSet
Fore
SplineSet
19 32 m 1,0,1
 22.0771 31 22.0771 31 26 26 c 0,2,3
 30 20 30 20 30 13 c 0,4,5
 30 0 30 0 15 0 c 128,-1,6
 0 0 0 0 0 13 c 0,7,8
 0 21 0 21 4 26 c 128,-1,9
 7.92285 31 7.92285 31 11 32 c 1,10,-1
 11 33 l 1,11,-1
 3 33 l 1,12,-1
 3 39 l 1,13,-1
 11 39.125 l 1,14,-1
 11 45 l 1,15,-1
 19 45 l 1,16,-1
 19 39 l 1,17,-1
 27.125 39 l 1,18,-1
 27.125 33 l 1,19,-1
 19.125 33 l 1,20,-1
 19 32 l 1,0,1
8 14 m 0,21,22
 8 8 8 8 15 8 c 128,-1,23
 22 8 22 8 22 14 c 0,24,25
 22 24 22 24 15 24 c 128,-1,26
 8 24 8 24 8 14 c 0,21,22
EndSplineSet
Validated: 1
EndChar

StartChar: uni00B9
Encoding: 185 185 377
Width: 14
VWidth: 0
Flags: W
HStem: 0 21G<0 7.99805> 30.0039 20G<0 7.99805>
VStem: 0 7.99805<0 50.0039>
LayerCount: 2
Fore
SplineSet
0 46 m 1,0,-1
 6 50 l 1,1,-1
 6 32 l 1,2,-1
 0 32 l 1,3,-1
 0 46 l 1,0,-1
EndSplineSet
Validated: 1
EndChar

StartChar: macron
Encoding: 175 175 385
Width: 48
VWidth: 0
Flags: W
LayerCount: 2
Fore
SplineSet
8 61.0039 m 5,0,-1
 29 61.0039 l 5,1,-1
 29 54 l 5,2,-1
 8 54 l 5,3,-1
 8 61.0039 l 5,0,-1
EndSplineSet
Validated: 1
EndChar

StartChar: Ncommaaccent
Encoding: 325 325 388
Width: 44
VWidth: 0
LayerCount: 2
Fore
SplineSet
13.9951 0 m 5,0,-1
 22.1943 0 l 5,1,-1
 22.1992 -10.0029 l 5,2,-1
 14 -10.0029 l 5,3,-1
 13.9951 0 l 5,0,-1
EndSplineSet
Refer: 17 78 N 1 0 0 1 0 0 3
Validated: 1
EndChar

StartChar: ncommaaccent
Encoding: 326 326 389
Width: 36
VWidth: 0
LayerCount: 2
Fore
SplineSet
10.9951 0 m 5,0,-1
 19.1943 0 l 5,1,-1
 19.1992 -10.0029 l 5,2,-1
 11 -10.0029 l 5,3,-1
 10.9951 0 l 5,0,-1
EndSplineSet
Refer: 34 110 N 1 0 0 1 0 0 3
Validated: 1
EndChar

StartChar: uni00AD
Encoding: 173 173 390
Width: 37
VWidth: 0
Flags: W
LayerCount: 2
Fore
SplineSet
0 19.0039 m 1,0,-1
 29 19.0039 l 1,1,-1
 29 12 l 1,2,-1
 0 12 l 1,3,-1
 0 19.0039 l 1,0,-1
EndSplineSet
Validated: 1
EndChar

StartChar: logicalnot
Encoding: 172 172 391
Width: 37
VWidth: 0
Flags: W
LayerCount: 2
Fore
SplineSet
0 23.0039 m 1,0,-1
 29 23.0039 l 1,1,-1
 29 9 l 1,2,-1
 21.002 9.00098 l 1,3,-1
 21.002 16.002 l 1,4,-1
 0 16 l 1,5,-1
 0 23.0039 l 1,0,-1
EndSplineSet
Validated: 1
EndChar

StartChar: cent
Encoding: 162 162 392
Width: 34
VWidth: 0
Flags: W
HStem: 0 8<15.4373 26.0332> 24 8<19.8228 26.0332>
VStem: 3.0332 8<11.105 17.1875>
LayerCount: 2
Fore
SplineSet
21.999 7.00488 m 13,0,1
 21.9971 -0.00292969 l 29,2,-1
 14.9971 -0.00292969 l 29,3,-1
 15.0029 7.99609 l 5,4,5
 10.6377 9.49805 10.6377 9.49805 7.5 12 c 4,6,7
 0 17.833 0 17.833 0 27 c 4,8,9
 0.306641 37.041 0.306641 37.041 15 39 c 5,10,-1
 15.0029 46 l 5,11,-1
 22 46 l 5,12,-1
 21.999 39.0039 l 5,13,-1
 26 39 l 5,14,-1
 26 31 l 5,15,-1
 15 31 l 5,16,17
 8 30 8 30 8 26 c 132,-1,18
 8 22 8 22 14 18 c 4,19,20
 18 15 18 15 26 15 c 5,21,-1
 26 7 l 5,22,23
 24 7.00195 24 7.00195 21.999 7.00488 c 13,0,1
EndSplineSet
Validated: 1
EndChar

StartChar: Rcommaaccent
Encoding: 342 342 393
Width: 49
VWidth: 0
LayerCount: 2
Fore
SplineSet
13.7959 -10.001 m 5,0,-1
 13.7959 -0.00292969 l 5,1,-1
 22.0996 -0.000976562 l 5,2,-1
 22.0996 -10 l 5,3,-1
 13.7959 -10.001 l 5,0,-1
EndSplineSet
Refer: 21 82 N 1 0 0 1 0 0 3
Validated: 1
EndChar

StartChar: rcommaaccent
Encoding: 343 343 394
Width: 34
VWidth: 0
LayerCount: 2
Fore
SplineSet
11.7959 -10.001 m 5,0,-1
 11.7959 -0.00292969 l 5,1,-1
 20.0996 -0.000976562 l 5,2,-1
 20.0996 -10 l 5,3,-1
 11.7959 -10.001 l 5,0,-1
EndSplineSet
Refer: 44 114 N 1 0 0 1 0 0 3
Validated: 1
EndChar

StartChar: Tcommaaccent
Encoding: 354 354 405
Width: 44
VWidth: 0
LayerCount: 2
Fore
SplineSet
10.9951 -3 m 1,0,-1
 19.1943 -3 l 1,1,-1
 19.1992 -12.0029 l 1,2,-1
 11 -12.0029 l 1,3,-1
 10.9951 -3 l 1,0,-1
EndSplineSet
Refer: 23 84 N 1 0 0 1 0 0 3
Validated: 1
EndChar

StartChar: tcaron
Encoding: 357 357 407
Width: 30
VWidth: 0
Flags: W
LayerCount: 2
Fore
SplineSet
12.7959 39.999 m 1,0,-1
 12.7959 49.9971 l 1,1,-1
 21.0996 49.999 l 1,2,-1
 21.0996 40 l 1,3,-1
 12.7959 39.999 l 1,0,-1
EndSplineSet
Refer: 49 116 N 1 0 0 1 0 0 2
Validated: 1
EndChar

StartChar: tcommaaccent
Encoding: 355 355 408
Width: 30
VWidth: 0
LayerCount: 2
Fore
SplineSet
8.99512 0 m 1,0,-1
 17.1943 0 l 1,1,-1
 17.1992 -10.0029 l 1,2,-1
 9 -10.0029 l 1,3,-1
 8.99512 0 l 1,0,-1
EndSplineSet
Refer: 49 116 N 1 0 0 1 0 0 3
Validated: 1
EndChar

StartChar: Tbar
Encoding: 358 358 409
Width: 44
VWidth: 0
Flags: W
LayerCount: 2
Fore
SplineSet
11 0.00390625 m 1,0,-1
 11 24.7143 l 1,1,-1
 3.00098 24.7188 l 1,2,-1
 3.00293 32 l 1,3,-1
 11 31.8571 l 1,4,-1
 11 42.0039 l 1,5,-1
 0 42.0039 l 1,6,-1
 0 50.0039 l 1,7,-1
 36 50.0039 l 1,8,-1
 32 42.0039 l 1,9,-1
 19 42.0039 l 1,10,-1
 19 31.8571 l 1,11,-1
 26.0029 32 l 1,12,-1
 26 24.7168 l 1,13,-1
 19 24.5714 l 1,14,-1
 19 0.00390625 l 1,15,-1
 11 0.00390625 l 1,0,-1
EndSplineSet
Validated: 1
EndChar

StartChar: tbar
Encoding: 359 359 410
Width: 30
VWidth: 0
Flags: W
HStem: 0 8<16.5531 22> 24 8<8 17> 30 20G<0 8>
VStem: -0 8<17.7246 24 32 50>
LayerCount: 2
Fore
SplineSet
17 24 m 9,0,-1
 8 24 l 1,1,2
 8 17 8 17 12.5 12.5 c 128,-1,3
 17 8 17 8 22 8 c 1,4,-1
 22 0 l 1,5,6
 15 0 15 0 7.5 6.5 c 128,-1,7
 0 13 0 13 0 24 c 2,8,-1
 0 50 l 1,9,-1
 8 50 l 1,10,-1
 8 40 l 1,11,-1
 17 40 l 1,12,-1
 17.001 33.9971 l 1,13,-1
 7.99219 34.0049 l 1,14,-1
 7.99609 30.002 l 1,15,-1
 17 30.001 l 1,16,-1
 17 24 l 9,0,-1
EndSplineSet
Validated: 1
EndChar

StartChar: Uogonek
Encoding: 370 370 419
Width: 44
VWidth: 0
Flags: W
LayerCount: 2
Fore
SplineSet
25.002 1 m 5,0,1
 25.002 -5.0293 25.002 -5.0293 33.0029 -5.0293 c 5,2,-1
 33.0029 -13.0684 l 5,3,4
 17.0029 -13.0684 17.0029 -13.0684 17.0029 0.995117 c 5,5,-1
 17.1667 4.08391 l 5,6,7
 13.2638 6.06261 13.2638 6.06261 10 9 c 4,8,9
 0 18 0 18 0 32 c 4,10,-1
 0 50 l 5,11,-1
 8 50 l 5,12,-1
 8 32 l 4,13,14
 8 14 8 14 28 9 c 5,15,-1
 28 50 l 5,16,-1
 36 50 l 5,17,-1
 36 0 l 21,18,19
 25.002 1 l 5,0,1
EndSplineSet
Validated: 1
EndChar

StartChar: uni0258
Encoding: 600 600 436
Width: 38
VWidth: 0
Flags: W
LayerCount: 2
Fore
SplineSet
8 20 m 13,0,-1
 21 20 l 5,1,2
 21 25 21 25 8 25 c 4,3,-1
 8 20 l 13,0,-1
0 14 m 17,4,-1
 0 32 l 1,5,-1
 13 32 l 0,6,7
 30 32 30 32 30 17 c 0,8,9
 30 0 30 0 5 0 c 2,10,11
 0 0 l 1,12,-1
 0 8 l 1,13,-1
 5 8 l 2,14,15
 19 8 19 8 21 14 c 1,16,-1
 0 14 l 17,4,-1
EndSplineSet
Validated: 1
EndChar

StartChar: uni000D
Encoding: 13 13 437
Width: 46
VWidth: 0
Flags: W
LayerCount: 2
Fore
SplineSet
19 50 m 1,0,-1
 38 43 l 1,1,-1
 38 0 l 1,2,-1
 19 -7 l 1,3,-1
 0 -0 l 1,4,-1
 0 43 l 1,5,-1
 19 50 l 1,0,-1
25 21 m 2,6,7
 31 27 31 27 31 33 c 0,8,9
 31 42 31 42 16 42 c 2,10,-1
 10 42 l 1,11,-1
 10 36 l 1,12,-1
 16 36 l 2,13,14
 24 36 24 36 24 32 c 0,15,16
 24 30 24 30 20 25 c 2,17,-1
 14 18 l 1,18,-1
 19 14 l 1,19,-1
 25 21 l 2,6,7
13 2 m 1,20,-1
 20 2 l 1,21,-1
 20 9 l 1,22,-1
 13 9 l 1,23,-1
 13 2 l 1,20,-1
EndSplineSet
Validated: 1
EndChar

StartChar: ogonek
Encoding: 731 731 442
Width: 24
VWidth: 0
Flags: W
LayerCount: 2
Fore
SplineSet
0.00292969 -0.00585938 m 13,0,1
 8.00195 -0.000976562 l 21,2,3
 8.00195 -6.00098 8.00195 -6.00098 16.0029 -6.00098 c 5,4,-1
 16.0029 -14.001 l 5,5,6
 0.00292969 -14.001 0.00292969 -14.001 0.00292969 -0.00585938 c 13,0,1
EndSplineSet
Validated: 1
EndChar

StartChar: breve
Encoding: 728 728 443
Width: 30
VWidth: 0
Flags: W
LayerCount: 2
Fore
SplineSet
22 13 m 17,0,1
 22 3 22 3 11 3 c 128,-1,2
 0 3 0 3 0 13 c 9,3,-1
 7 13 l 17,4,5
 7 9 7 9 11 9 c 128,-1,6
 15 9 15 9 15 13 c 9,7,-1
 22 13 l 17,0,1
EndSplineSet
Validated: 1
EndChar

StartChar: uni0181
Encoding: 385 385 446
Width: 44
VWidth: 0
Flags: W
LayerCount: 2
Fore
SplineSet
8 24 m 25,0,-1
 8 10 l 1,1,2
 28 15 28 15 28 20 c 0,3,4
 28 23 28 23 24 24 c 1,5,-1
 8 24 l 25,0,-1
8 41 m 9,6,7
 8 32 l 1,8,-1
 16 32 l 1,9,10
 18 34 18 34 18 37 c 0,11,12
 18 41 18 41 8 41 c 9,6,7
0 0 m 1,13,14
 0 42 l 1,15,16
 -8 42 -8 42 -8 36 c 9,17,-1
 -16 36 l 17,18,19
 -16 50 -16 50 0 50 c 1,20,21
 26 50 26 50 26 38 c 0,22,23
 26 35 26 35 24 32 c 1,24,25
 36 28 36 28 36 20 c 0,26,27
 36 6 36 6 0 0 c 1,13,14
EndSplineSet
Validated: 1
EndChar

StartChar: uni0180
Encoding: 384 384 447
Width: 37
VWidth: 0
Flags: W
LayerCount: 2
Fore
SplineSet
0 0 m 1,0,-1
 0 50 l 1,1,-1
 8 50 l 1,2,-1
 8 43.8571 l 1,3,-1
 19.8525 44.002 l 1,4,-1
 19.8525 38.0039 l 1,5,-1
 8 37.8571 l 1,6,-1
 8 32 l 1,7,-1
 23 32 l 1,8,9
 29 27 29 27 29 19 c 0,10,11
 29 8 29 8 8 0 c 1,12,-1
 0 0 l 1,0,-1
21 19 m 0,13,14
 21 22 21 22 19 24 c 1,15,-1
 8 24 l 1,16,-1
 8 10 l 1,17,18
 21 14 21 14 21 19 c 0,13,14
EndSplineSet
Validated: 1
EndChar

StartChar: uni019D
Encoding: 413 413 448
Width: 44
VWidth: 0
Flags: W
LayerCount: 2
Fore
SplineSet
8 0 m 1,0,1
 8 -14 8 -14 -8 -14 c 1,2,-1
 -8 -6 l 1,3,4
 0 -6 0 -6 0 0 c 1,5,-1
 0 50 l 1,6,-1
 8 50 l 1,7,8
 24 42 24 42 28 29 c 1,9,-1
 28 50 l 1,10,-1
 36 50 l 1,11,-1
 36 0 l 1,12,-1
 28 0 l 1,13,14
 28 28 28 28 8 41 c 1,15,-1
 8 0 l 1,0,1
EndSplineSet
Validated: 1
EndChar

StartChar: uni019F
Encoding: 415 415 449
Width: 48
VWidth: 0
Flags: W
LayerCount: 2
Fore
SplineSet
8.1053 17.8571 m 5,0,1
 9.12408 8 9.12408 8 20 8 c 128,-1,2
 31.0324 8 31.0324 8 31.922 18.1429 c 5,3,4
 8.1053 17.8571 l 5,0,1
31.8244 25 m 1,5,6
 30.5486 42 30.5486 42 20 42 c 128,-1,7
 9.40744 42 9.40744 42 8.16504 24.8574 c 1,8,9
 31.8244 25 l 1,5,6
0 20 m 0,10,11
 0 34 0 34 5 41 c 0,12,13
 11 50 11 50 20 50 c 0,14,15
 31 50 31 50 35 41 c 0,16,17
 40 32 40 32 40 20 c 0,18,19
 40 0 40 0 20 0 c 128,-1,20
 0 0 0 0 0 20 c 0,10,11
EndSplineSet
Validated: 1
EndChar

StartChar: yen
Encoding: 165 165 467
Width: 48
VWidth: 0
Flags: W
HStem: -0.00585938 21G<14 22.0022> 29.9902 20G<7.99902 14.002 22.0029 27.998>
VStem: 14 8.00098<0 31.9922>
LayerCount: 2
Fore
SplineSet
20 39 m 1,0,-1
 30 50 l 1,1,-1
 40 50 l 1,2,-1
 24 32 l 1,3,-1
 33 31.998 l 1,4,-1
 33 26.9941 l 1,5,-1
 24.001 26.9932 l 1,6,-1
 24.002 22.9863 l 1,7,-1
 32.9971 22.9902 l 1,8,-1
 33 17.9805 l 1,9,-1
 23.998 17.9805 l 1,10,-1
 24 0 l 1,11,-1
 16 0 l 1,12,-1
 16.0049 17.9932 l 1,13,-1
 6.99805 18.001 l 1,14,-1
 6.99805 22.998 l 1,15,-1
 16 22.9961 l 1,16,-1
 16 27.001 l 1,17,-1
 6.99902 27.002 l 1,18,-1
 7 32 l 1,19,-1
 16 32 l 1,20,-1
 0 50 l 1,21,-1
 10 50 l 1,22,-1
 20 39 l 1,0,-1
EndSplineSet
Validated: 1
EndChar

StartChar: copyright
Encoding: 169 169 468
Width: 58
VWidth: 0
Flags: W
LayerCount: 2
Fore
SplineSet
5 25 m 0,0,1
 5 17 5 17 11 11 c 0,2,3
 17 5 17 5 25 5 c 0,4,5
 33 5 33 5 39 11 c 0,6,7
 45 17 45 17 45 25 c 0,8,9
 45 33 45 33 39 39 c 0,10,11
 33 45 33 45 25 45 c 0,12,13
 17 45 17 45 11 39 c 0,14,15
 5 33 5 33 5 25 c 0,0,1
0 25 m 0,16,17
 0 35 0 35 7.5 42.5 c 0,18,19
 15 50 15 50 25 50 c 0,20,21
 35 50 35 50 42.5 42.5 c 0,22,23
 50 35 50 35 50 25 c 0,24,25
 50 15 50 15 42.5 7.5 c 0,26,27
 35 0 35 0 25 0 c 0,28,29
 15 0 15 0 7.5 7.5 c 0,30,31
 0 15 0 15 0 25 c 0,16,17
EndSplineSet
Refer: 4 99 N 0.8 0 0 0.8 12.2742 11.2651 2
Validated: 1
EndChar

StartChar: registered
Encoding: 174 174 469
Width: 58
VWidth: 0
Flags: W
LayerCount: 2
Fore
SplineSet
5 25 m 0,0,1
 5 17 5 17 11 11 c 0,2,3
 17 5 17 5 25 5 c 0,4,5
 33 5 33 5 39 11 c 0,6,7
 45 17 45 17 45 25 c 0,8,9
 45 33 45 33 39 39 c 0,10,11
 33 45 33 45 25 45 c 0,12,13
 17 45 17 45 11 39 c 0,14,15
 5 33 5 33 5 25 c 0,0,1
0 25 m 0,16,17
 0 35 0 35 7.5 42.5 c 0,18,19
 15 50 15 50 25 50 c 0,20,21
 35 50 35 50 42.5 42.5 c 0,22,23
 50 35 50 35 50 25 c 0,24,25
 50 15 50 15 42.5 7.5 c 0,26,27
 35 0 35 0 25 0 c 0,28,29
 15 0 15 0 7.5 7.5 c 0,30,31
 0 15 0 15 0 25 c 0,16,17
EndSplineSet
Refer: 21 82 N 0.553136 0 0 0.53 16.0714 12.5 2
Validated: 1
EndChar

StartChar: uni01C8
Encoding: 456 456 500
Width: 48
VWidth: 0
Flags: W
LayerCount: 2
Fore
SplineSet
29 0 m 1,0,-1
 0 0 l 1,1,-1
 0 50 l 1,2,-1
 8 50 l 1,3,-1
 8 8 l 17,4,-1
 32 8 l 1,5,-1
 32 32 l 17,6,-1
 40 32 l 1,7,-1
 40 13 l 2,8,9
 40 -14 40 -14 16 -14 c 1,10,-1
 16 -6 l 1,11,12
 25.0656 -6 25.0656 -6 29 0 c 1,0,-1
32 50.0039 m 1,13,-1
 39.998 50.0039 l 1,14,-1
 39.998 42 l 1,15,-1
 32 42 l 1,16,-1
 32 50.0039 l 1,13,-1
EndSplineSet
Validated: 1
EndChar

StartChar: uni01C7
Encoding: 455 455 501
Width: 69
VWidth: 0
Flags: W
LayerCount: 2
Fore
SplineSet
0 0 m 5,0,-1
 0 50 l 5,1,-1
 8 50 l 5,2,-1
 8 8 l 21,3,-1
 29 8 l 5,4,5
 54 8 54 8 54 22 c 6,6,-1
 54 50 l 5,7,-1
 61 50 l 29,8,-1
 61 22 l 6,9,10
 61 10 61 10 51 5 c 4,11,12
 42.667 0 42.667 0 29 0 c 5,13,-1
 0 0 l 5,0,-1
EndSplineSet
Validated: 1
EndChar

StartChar: uni01C9
Encoding: 457 457 502
Width: 32
VWidth: 0
Flags: W
HStem: 0 21G<0 8> 0 21G<0 8> 30 20G<0 8>
VStem: 0 8<0 44>
LayerCount: 2
Fore
SplineSet
0 50 m 1,0,-1
 8 44 l 1,1,-1
 8 6 l 1,2,-1
 0 0 l 1,3,-1
 0 50 l 1,0,-1
EndSplineSet
Refer: 38 106 N 1 0 0 1 0 0 2
Validated: 1
EndChar

StartChar: uni01CA
Encoding: 458 458 503
Width: 76
VWidth: 0
Flags: W
LayerCount: 2
Fore
SplineSet
36 0 m 1,0,-1
 28 0 l 1,1,2
 28 28 28 28 8 41 c 1,3,-1
 8 0 l 1,4,-1
 0 0 l 1,5,-1
 0 50 l 1,6,-1
 8 50 l 1,7,8
 24 42 24 42 28 29 c 1,9,-1
 28 50 l 1,10,-1
 36 50 l 1,11,-1
 36 8 l 1,12,13
 61 8 61 8 61 22 c 2,14,-1
 61 50 l 1,15,-1
 68 50 l 25,16,-1
 68 22 l 2,17,18
 68 11 68 11 58 5 c 0,19,20
 50 0 50 0 36 0 c 1,0,-1
EndSplineSet
Validated: 1
EndChar

StartChar: uni01F1
Encoding: 497 497 524
Width: 77
VWidth: 0
Flags: W
LayerCount: 2
Fore
SplineSet
36 30 m 0,0,1
 36 20 36 20 26 11 c 0,2,3
 15 1 15 1 0 0 c 1,4,-1
 0 50 l 1,5,-1
 64 50 l 1,6,-1
 42 8 l 1,7,-1
 65 8 l 1,8,-1
 69 0 l 1,9,-1
 29 0 l 1,10,-1
 51 42 l 1,11,-1
 33 42 l 1,12,13
 36 39 36 39 36 30 c 0,0,1
28 30 m 8,14,15
 28 38 28 38 23 42 c 1,16,-1
 8 42 l 9,17,-1
 8 10 l 1,18,19
 16 11 16 11 22 18 c 128,-1,20
 28 25 28 25 28 30 c 8,14,15
EndSplineSet
Validated: 1
EndChar

StartChar: uni01F2
Encoding: 498 498 526
Width: 67
VWidth: 0
Flags: W
LayerCount: 2
Fore
SplineSet
35.9912 32.001 m 9,0,1
 57 32 l 1,2,-1
 41 8 l 1,3,-1
 59 8 l 1,4,-1
 59 0 l 1,5,-1
 26 0 l 1,6,-1
 42 24 l 1,7,-1
 35 24 l 1,8,9
 32.7539 18.2857 32.7539 18.2857 26.5 10.5 c 0,10,11
 18.4289 1.35742 18.4289 1.35742 0 0 c 1,12,-1
 0 50 l 1,13,-1
 27 50 l 1,14,15
 35.9892 44.501 35.9892 44.501 35.9912 32.001 c 9,0,1
8 42 m 9,16,-1
 8 10 l 1,17,18
 16 11 16 11 22 18 c 128,-1,19
 28 25 28 25 28 32 c 0,20,21
 28 38 28 38 23 42 c 1,22,-1
 8 42 l 9,16,-1
EndSplineSet
Validated: 1
EndChar

StartChar: uni01F3
Encoding: 499 499 527
Width: 68
VWidth: 0
Flags: W
LayerCount: 2
Fore
SplineSet
8 20 m 0,0,1
 8 12 8 12 21 9 c 1,2,-1
 21 24 l 1,3,-1
 10 24 l 1,4,5
 8 22 8 22 8 20 c 0,0,1
21 0 m 1,6,7
 0 5 0 5 0 20 c 0,8,9
 0 27 0 27 6 32 c 1,10,-1
 21 32 l 1,11,-1
 21 50 l 1,12,-1
 29 50 l 1,13,-1
 29 32 l 9,14,-1
 58 32 l 1,15,-1
 42 8 l 1,16,-1
 60 8 l 1,17,-1
 60 0 l 1,18,-1
 21 0 l 1,6,7
29 3.14258 m 5,19,-1
 43 24 l 5,20,-1
 29 24 l 5,21,-1
 29 3.14258 l 5,19,-1
EndSplineSet
Validated: 1
EndChar

StartChar: uni0284
Encoding: 644 644 530
Width: 32
VWidth: 0
Flags: W
LayerCount: 2
Fore
SplineSet
16 32 m 17,0,-1
 24 32 l 1,1,-1
 24 13 l 2,2,3
 24 -14 24 -14 0 -14 c 1,4,-1
 0 -6 l 1,5,6
 16 -6 16 -6 16 13 c 2,7,-1
 16 32 l 17,0,-1
EndSplineSet
Validated: 1
EndChar

StartChar: uni01E5
Encoding: 485 485 545
Width: 34
VWidth: 0
Flags: W
LayerCount: 2
Fore
SplineSet
18.7412 0 m 1,0,1
 12.7412 2 12.7412 2 6.74121 5 c 0,2,3
 -2.25879 10 -2.25879 10 -2.25879 19 c 0,4,5
 -2.25879 27 -2.25879 27 3.74121 32 c 1,6,-1
 26.7412 32 l 1,7,-1
 26.7412 0 l 2,8,9
 26.7412 -14 26.7412 -14 8.74121 -14 c 2,10,-1
 -2.25879 -14 l 1,11,-1
 -2.25879 -6 l 1,12,-1
 8.74121 -6 l 2,13,14
 18.7412 -6 18.7412 -6 18.7412 0 c 1,0,1
18.7412 20.7754 m 1,15,-1
 18.7412 24 l 1,16,-1
 7.74121 24 l 1,17,18
 6.33062 22.8875 6.33062 22.8875 6.13477 20.7754 c 1,19,20
 18.7412 20.7754 l 1,15,-1
8.74121 14 m 17,21,22
 12.7412 9.5 12.7412 9.5 18.7412 9 c 1,23,-1
 18.7412 13.9004 l 9,24,-1
 8.74121 14 l 17,21,22
EndSplineSet
Validated: 1
EndChar

StartChar: uni01E4
Encoding: 484 484 546
Width: 44
VWidth: 0
Flags: W
LayerCount: 2
Fore
SplineSet
28 10 m 1,0,-1
 28 16 l 1,1,-1
 20.0078 16.0078 l 1,2,-1
 20.0039 24.8955 l 1,3,-1
 28.0107 24.8994 l 1,4,-1
 28 28 l 1,5,-1
 20 28 l 1,6,-1
 20 36 l 1,7,-1
 36 36 l 1,8,-1
 36 24.8571 l 1,9,-1
 43.9961 24.8955 l 1,10,-1
 43.9961 16.0029 l 1,11,-1
 36 15.8574 l 1,12,-1
 36 0 l 1,13,14
 20 3 20 3 10 12 c 128,-1,15
 0 21 0 21 0 30 c 0,16,17
 0 47 0 47 17 50 c 1,18,-1
 36 50 l 1,19,-1
 36 42 l 1,20,-1
 18 42 l 1,21,22
 8 40 8 40 8 30 c 0,23,24
 8 17 8 17 28 10 c 1,0,-1
EndSplineSet
Validated: 1
EndChar

StartChar: uni01B7
Encoding: 439 439 547
Width: 44
VWidth: 0
Flags: W
HStem: 0 7.99805<3.78523 34> 41.999 8.00488<7 27>
LayerCount: 2
Fore
SplineSet
36 32 m 1,0,1
 36 3 36 3 0 0 c 1,2,-1
 0 7 l 1,3,4
 21.0029 8 21.0029 8 28 24 c 1,5,-1
 0 24 l 1,6,-1
 16 42 l 1,7,-1
 4 42 l 1,8,-1
 0 50 l 9,9,-1
 31 50 l 1,10,-1
 15 32 l 1,11,-1
 36 32 l 1,0,1
EndSplineSet
Validated: 1
EndChar

StartChar: uni01B8
Encoding: 440 440 548
Width: 44
VWidth: 0
Flags: W
LayerCount: 2
Fore
SplineSet
0 32 m 5,0,1
 21 32 l 5,2,-1
 5 50 l 5,3,-1
 36 50 l 21,4,-1
 32 42 l 5,5,-1
 20 42 l 5,6,-1
 36 24 l 5,7,-1
 8 24 l 5,8,9
 14.9971 8 14.9971 8 36 7 c 5,10,-1
 36 0 l 5,11,12
 0 3 0 3 0 32 c 5,0,1
EndSplineSet
Validated: 1
EndChar

StartChar: uni01B5
Encoding: 437 437 549
Width: 48
VWidth: 0
Flags: W
LayerCount: 2
Fore
SplineSet
36 8.00391 m 1,0,-1
 40 0.00390625 l 1,1,-1
 0 0.00390625 l 1,2,-1
 14.9912 27.8828 l 1,3,-1
 8.99512 27.8828 l 1,4,-1
 8.99414 36.0029 l 1,5,-1
 18.8551 36 l 1,6,-1
 22 42.0039 l 1,7,-1
 9 42.0039 l 1,8,-1
 5 50.0039 l 1,9,-1
 35 50.0039 l 1,10,-1
 27.5599 35.8 l 1,11,-1
 34.0039 36.0029 l 1,12,-1
 34.0068 27.8818 l 1,13,-1
 23.3694 27.8 l 1,14,-1
 13 8.00391 l 1,15,-1
 36 8.00391 l 1,0,-1
EndSplineSet
Validated: 1
EndChar

StartChar: uni01B6
Encoding: 438 438 550
Width: 39
VWidth: 0
Flags: W
LayerCount: 2
Fore
SplineSet
0 32 m 9,0,-1
 29 32 l 1,1,-1
 21 20 l 1,2,-1
 29.0068 20.002 l 1,3,-1
 29.0049 13.8818 l 1,4,-1
 17.0088 13.8818 l 1,5,-1
 13 8 l 1,6,-1
 31 8 l 1,7,-1
 31 0 l 1,8,-1
 -2 0 l 1,9,-1
 7.2 13.8 l 1,10,-1
 -0 13.8818 l 1,11,-1
 -0.00292969 20.0029 l 1,12,-1
 11.3333 20 l 1,13,-1
 14 24 l 1,14,-1
 0 24 l 1,15,-1
 0 32 l 9,0,-1
EndSplineSet
Validated: 1
EndChar

StartChar: uni01B9
Encoding: 441 441 551
Width: 44
VWidth: 0
Flags: W
HStem: 0 7.99805<3.78523 34> 41.999 8.00488<7 27>
LayerCount: 2
Fore
SplineSet
0 11 m 5,0,1
 21 11 l 5,2,-1
 5 32 l 5,3,-1
 36 32 l 21,4,-1
 32 24 l 5,5,-1
 20 24 l 5,6,-1
 36 4 l 5,7,-1
 8 4 l 5,8,9
 11.0986 -7 11.0986 -7 36 -7 c 5,10,-1
 36 -14 l 5,11,12
 0 -14 0 -14 0 11 c 5,0,1
EndSplineSet
Validated: 1
EndChar

StartChar: uni0292
Encoding: 658 658 552
Width: 44
VWidth: 0
Flags: W
HStem: 0 7.99805<3.78523 34> 41.999 8.00488<7 27>
LayerCount: 2
Fore
SplineSet
36 11 m 1,0,1
 36 -14 36 -14 0 -14 c 1,2,-1
 0 -7 l 1,3,4
 24.9018 -7 24.9018 -7 28 4 c 1,5,-1
 0 4 l 1,6,-1
 16 24 l 1,7,-1
 4 24 l 1,8,-1
 0 32 l 9,9,-1
 31 32 l 1,10,-1
 15 11 l 1,11,-1
 36 11 l 1,0,1
EndSplineSet
Validated: 1
EndChar

StartChar: uni0224
Encoding: 548 548 555
Width: 48
VWidth: 0
Flags: W
LayerCount: 2
Fore
SplineSet
40 0 m 18,13,-1
 40 -14 40 -14 23 -14 c 1,2,-1
 23 -6 l 17,3,4
 32 -6 32 -6 32 0 c 1,5,-1
 0 0 l 1,6,-1
 22 42 l 1,7,-1
 9 42 l 1,8,-1
 5 50 l 1,9,-1
 35 50 l 1,10,-1
 13 8 l 1,11,-1
 40 8 l 1,12,-1
 40 0 l 18,13,-1
EndSplineSet
Validated: 1
EndChar

StartChar: uni0225
Encoding: 549 549 556
Width: 39
VWidth: 0
Flags: W
LayerCount: 2
Fore
SplineSet
31 0 m 18,0,1
 31 -14 31 -14 14 -14 c 1,2,-1
 14 -6 l 17,3,4
 23 -6 23 -6 23 0 c 1,5,-1
 -2 0 l 1,6,-1
 14 24 l 1,7,-1
 0 24 l 1,8,-1
 0 32 l 9,9,-1
 29 32 l 1,10,-1
 13 8 l 1,11,-1
 31 8 l 1,12,-1
 31 0 l 18,0,1
EndSplineSet
Validated: 1
EndChar

StartChar: uni0228
Encoding: 552 552 559
Width: 44
VWidth: 0
LayerCount: 2
Fore
SplineSet
15.499 -0.000976562 m 9,0,1
 0 0 l 17,2,-1
 0 50 l 1,3,-1
 36 50 l 1,4,-1
 36 42 l 1,5,-1
 8 42 l 1,6,-1
 8 36 l 1,7,-1
 36 36 l 1,8,-1
 36 28 l 1,9,-1
 8 28 l 1,10,-1
 8 8 l 1,11,-1
 36 8 l 1,12,-1
 36 0 l 9,13,-1
 23.6699 -0.00585938 l 17,14,15
 27 -1.66714 27 -1.66714 27 -4.53613 c 0,16,17
 27 -12.8906 27 -12.8906 15.9941 -12.8906 c 2,18,-1
 10.9941 -12.8906 l 1,19,-1
 11 -7.53613 l 1,20,-1
 16 -7.53613 l 2,21,22
 21 -7.53613 21 -7.53613 21 -5.03613 c 0,23,24
 21 -2 21 -2 15.499 -0.000976562 c 9,0,1
EndSplineSet
Validated: 1
EndChar

StartChar: uni0229
Encoding: 553 553 560
Width: 38
VWidth: 0
LayerCount: 2
Fore
SplineSet
20 -5 m 0,0,1
 20 -2 20 -2 16 0 c 0,2,3
 0 5 0 5 0 17 c 0,4,5
 0 32 0 32 17 32 c 0,6,-1
 30 32 l 1,7,-1
 30 14 l 9,8,-1
 9 14 l 1,9,10
 11 8 11 8 25 8 c 2,11,-1
 30 8 l 1,12,-1
 30 0 l 9,13,-1
 23 0 l 17,14,15
 27 -3 27 -3 27 -5 c 0,16,17
 27 -12 27 -12 16 -12 c 2,18,-1
 11 -12 l 1,19,-1
 11 -7 l 1,20,-1
 16 -7 l 2,21,22
 20 -7 20 -7 20 -5 c 0,0,1
22 20 m 17,23,-1
 22 25 l 0,24,25
 9 25 9 25 9 20 c 1,26,-1
 22 20 l 17,23,-1
EndSplineSet
Validated: 1
EndChar

StartChar: uni018F
Encoding: 399 399 563
Width: 44
VWidth: 0
Flags: W
LayerCount: 2
Fore
SplineSet
0.000976562 0.00683594 m 9,0,1
 -0.00292969 36.1426 l 25,2,-1
 27 36.1426 l 17,3,4
 24.8571 40.9996 24.8571 40.9996 18.001 42 c 1,5,-1
 0.000976562 42 l 1,6,-1
 0.000976562 50 l 1,7,-1
 18.001 50 l 1,8,9
 36.001 47 36.001 47 36.001 34 c 128,-1,10
 36.001 21 36.001 21 26.001 11 c 128,-1,11
 16.001 1 16.001 1 0.000976562 0.00683594 c 9,0,1
7.92773 9.71484 m 1,12,13
 14.8771 11.9248 14.8771 11.9248 20.001 17 c 0,14,15
 26.5988 22.5068 26.5988 22.5068 27 28 c 1,16,-1
 7.99902 28.002 l 1,17,-1
 7.92773 9.71484 l 1,12,13
27 36.1426 m 1025,18,-1
EndSplineSet
Validated: 1
EndChar

StartChar: uni0190
Encoding: 400 400 564
Width: 44
VWidth: 0
Flags: W
LayerCount: 2
Fore
SplineSet
36 7 m 5,0,1
 36 0 l 5,2,3
 0 6 0 6 0 20 c 4,4,5
 0 28 0 28 12 32 c 5,6,7
 10 34 10 34 10 38 c 4,8,9
 10 50 10 50 36 50 c 5,10,-1
 36 43 l 5,11,12
 18 43 18 43 18 37 c 4,13,14
 18 34 18 34 20 32 c 5,15,-1
 36 32 l 5,16,-1
 36 24 l 5,17,-1
 12 24 l 5,18,19
 8 23 8 23 8 20 c 4,20,21
 8 14 8 14 36 7 c 5,0,1
EndSplineSet
Validated: 1
EndChar

StartChar: uni018E
Encoding: 398 398 565
Width: 44
VWidth: 0
Flags: W
LayerCount: 2
Fore
SplineSet
0 50 m 5,0,-1
 36 50 l 5,1,-1
 36 0 l 5,2,-1
 0 0 l 5,3,-1
 0 8 l 5,4,-1
 28 8 l 5,5,-1
 28 28 l 5,6,-1
 0 28 l 5,7,-1
 0 36 l 5,8,-1
 28 36 l 5,9,-1
 28 42 l 5,10,-1
 0 42 l 5,11,-1
 0 50 l 5,0,-1
EndSplineSet
Validated: 1
EndChar

StartChar: uni018B
Encoding: 395 395 566
Width: 44
VWidth: 0
Flags: W
LayerCount: 2
Fore
SplineSet
28 41 m 29,0,-1
 7 40.9941 l 29,1,-1
 7.00098 49.9971 l 29,2,-1
 36 50 l 5,3,-1
 36 0 l 5,4,5
 0 6 0 6 0 20 c 4,6,7
 0 28 0 28 11.999 32 c 5,8,-1
 28 32 l 5,9,-1
 28 41 l 29,0,-1
28 24 m 29,10,-1
 12 24 l 5,11,12
 8 23 8 23 8 20 c 4,13,14
 8 15 8 15 28 10 c 5,15,-1
 28 24 l 29,10,-1
EndSplineSet
Validated: 1
EndChar

StartChar: uni018C
Encoding: 396 396 567
Width: 37
VWidth: 0
Flags: W
LayerCount: 2
Fore
SplineSet
29 0 m 5,0,-1
 21 0 l 5,1,2
 0 8 0 8 0 19 c 4,3,4
 0 27 0 27 6 32 c 5,5,-1
 21 32 l 5,6,-1
 21 42 l 5,7,-1
 8 42 l 5,8,-1
 8 50 l 5,9,-1
 29 50 l 5,10,-1
 29 0 l 5,0,-1
8 19 m 4,11,12
 8 14 8 14 21 10 c 5,13,-1
 21 24 l 5,14,-1
 10 24 l 5,15,16
 8 22 8 22 8 19 c 4,11,12
EndSplineSet
Validated: 1
EndChar

StartChar: uni0189
Encoding: 393 393 568
Width: 44
VWidth: 0
Flags: W
LayerCount: 2
Fore
SplineSet
0 50 m 5,0,-1
 27 50 l 5,1,2
 36 45 36 45 36 32.5 c 132,-1,3
 36 20 36 20 25.5 10.5 c 128,-1,4
 15 1 15 1 0 0 c 5,5,-1
 0 50 l 5,0,-1
8 10 m 1,6,7
 16 11 16 11 22 18 c 128,-1,8
 28 25 28 25 28 32 c 0,9,10
 28 38 28 38 23 42 c 1,11,-1
 8 42 l 1,12,-1
 8.14258 36 l 1,13,-1
 21.6426 36 l 1,14,-1
 21.6426 28.2861 l 1,15,-1
 7.85742 28.2861 l 1,16,-1
 8 10 l 1,6,7
EndSplineSet
Validated: 1
EndChar

StartChar: uni018A
Encoding: 394 394 569
Width: 44
VWidth: 0
Flags: W
LayerCount: 2
Fore
SplineSet
0 0 m 1,0,1
 0 42 l 1,2,3
 -6 42 -6 42 -6 36 c 1,4,-1
 -14 36 l 1,5,6
 -14 50 -14 50 0 50 c 1,7,-1
 27 50 l 1,8,9
 36 45 36 45 36 32.5 c 128,-1,10
 36 20 36 20 25.5 10.5 c 128,-1,11
 15 1 15 1 0 0 c 1,0,1
8 42 m 9,12,-1
 8 10 l 1,13,14
 16 11 16 11 22 18 c 128,-1,15
 28 25 28 25 28 32 c 0,16,17
 28 38 28 38 23 42 c 1,18,-1
 8 42 l 9,12,-1
EndSplineSet
Validated: 1
EndChar

StartChar: uni0187
Encoding: 391 391 570
Width: 44
VWidth: 0
Flags: W
LayerCount: 2
Fore
SplineSet
18 50 m 5,0,1
 28.002 50.0078 l 5,2,3
 28 56.0039 28 56.0039 22 56.0039 c 5,4,-1
 22.0078 64.0039 l 5,5,6
 36 64.0039 36 64.0039 36 50 c 5,7,-1
 36 42 l 5,8,-1
 18 42 l 5,9,10
 8 40 8 40 8 34 c 4,11,12
 8 25 8 25 16 17 c 132,-1,13
 24 9 24 9 36 8 c 5,14,-1
 36 0 l 5,15,16
 20 1 20 1 10 11 c 132,-1,17
 0 21 0 21 0 34 c 132,-1,18
 0 47 0 47 18 50 c 5,0,1
EndSplineSet
Validated: 1
EndChar

StartChar: uni0188
Encoding: 392 392 571
Width: 33
VWidth: 0
Flags: W
LayerCount: 2
Fore
SplineSet
15 32 m 1,0,1
 18.002 32.0078 l 1,2,3
 18 38.0039 18 38.0039 12 38.0039 c 1,4,-1
 12.0078 46.0039 l 1,5,6
 26 46.0039 26 46.0039 26 32 c 1,7,-1
 26 24 l 1,8,-1
 15 24 l 1,9,10
 8 23 8 23 8 19 c 128,-1,11
 8 15 8 15 14 11 c 0,12,13
 18 8 18 8 26 8 c 1,14,-1
 26 0 l 1,15,16
 15 0 15 0 7.5 5 c 128,-1,17
 0 10 0 10 0 20 c 128,-1,18
 0 30 0 30 15 32 c 1,0,1
EndSplineSet
Validated: 1
EndChar

StartChar: uni0186
Encoding: 390 390 572
Width: 48
VWidth: 0
Flags: W
HStem: 0 8<13.3101 26.6899> 42 8<14.9207 25.0625>
VStem: 0 8<13.3101 32.1594> 32 8<13.3101 31.5895>
LayerCount: 2
Fore
SplineSet
9 13 m 1,0,1
 12 8 12 8 20 8 c 0,2,3
 32 8 32 8 32 20 c 0,4,5
 32 42 32 42 20 42 c 0,6,7
 12 42 12 42 9 32 c 1,8,9
 1 32 l 1,10,11
 2 37 2 37 5 41 c 0,12,13
 12 50 12 50 20 50 c 0,14,15
 31 50 31 50 35 41 c 0,16,17
 40 32 40 32 40 20 c 0,18,19
 40 0 40 0 20 0 c 0,20,21
 4 0 4 0 1 13 c 1,22,23
 9 13 l 1,0,1
EndSplineSet
Validated: 1
EndChar

StartChar: florin
Encoding: 402 402 575
Width: 28
VWidth: 0
Flags: W
HStem: 13 8<8 16> 30 20G<17.5 20>
VStem: 0 8<-7 13 21 33.9071>
LayerCount: 2
Fore
SplineSet
-7 -14 m 9,0,1
 -7 -6 l 25,2,3
 0 -6 0 -6 0 -0 c 2,4,-1
 0 26 l 2,5,6
 0 37 0 37 7.5 43.5 c 128,-1,7
 15 50 15 50 20 50 c 1,8,-1
 20 42 l 1,9,-1
 16 41 l 2,10,11
 14 40 14 40 11 36 c 128,-1,13
 8 32 8 32 8 26 c 2,14,-1
 8 21 l 1,15,-1
 16 21 l 1,16,-1
 16 13 l 1,17,-1
 8 13 l 1,18,-1
 8 0 l 2,19,20
 8 -14 8 -14 -7 -14 c 9,0,1
EndSplineSet
Validated: 1
EndChar

StartChar: uni0191
Encoding: 401 401 576
Width: 44
VWidth: 0
Flags: W
LayerCount: 2
Fore
SplineSet
0 0 m 1,0,-1
 0 50 l 1,1,-1
 36 50 l 1,2,-1
 36 42 l 1,3,-1
 8 42 l 1,4,-1
 8 36 l 1,5,-1
 36 36 l 1,6,-1
 36 28 l 1,7,-1
 8 28 l 1,8,-1
 8 0 l 1,9,10
 8 -14 8 -14 -7 -14 c 9,11,-1
 -7 -6 l 25,12,13
 0 -6 0 -6 0 0 c 1,0,-1
EndSplineSet
Validated: 1
EndChar

StartChar: uni018D
Encoding: 397 397 577
Width: 38
VWidth: 0
Flags: W
HStem: 0 8<9.88171 20.1183> 24 8<10.8078 19.1922>
VStem: 0 8<9.92578 20.8152> 22 8<9.92578 20.8152>
LayerCount: 2
Fore
SplineSet
20.125 -8.00098 m 25,0,-1
 9.95703 -7.9834 l 25,1,-1
 9.95801 0.0166016 l 1,2,3
 0 2.00586 0 2.00586 0 13 c 0,4,5
 0 21 0 21 4.5 26.5 c 128,-1,6
 9 32 9 32 15 32 c 128,-1,7
 21 31.9999 21 31.9999 25.5 26.5 c 128,-1,8
 30 21 30 21 30 13 c 0,9,10
 30 1.94459 30 1.94459 20.125 0 c 1,11,12
 20.125 -8.00098 l 25,0,-1
8 14 m 0,13,14
 8 8 8 8 15 8 c 128,-1,15
 22 8 22 8 22 14 c 0,16,17
 21.9999 24 21.9999 24 15 24 c 128,-1,18
 8 24 8 24 8 14 c 0,13,14
EndSplineSet
Validated: 1
EndChar

StartChar: uni0193
Encoding: 403 403 578
Width: 44
VWidth: 0
Flags: W
LayerCount: 2
Fore
SplineSet
36 50 m 1,0,-1
 36 42 l 1,1,-1
 18 42 l 1,2,3
 8 40 8 40 8 30 c 0,4,5
 8 17 8 17 28 10 c 1,6,-1
 28 28 l 1,7,-1
 20 28 l 1,8,-1
 20 36 l 1,9,-1
 36 36 l 1,10,-1
 36 0 l 1,11,12
 20 3 20 3 10 12 c 128,-1,13
 0 21 0 21 0 30 c 0,14,15
 0 47 0 47 17 50 c 1,16,-1
 28.002 50.0078 l 1,17,18
 28 56.0039 28 56.0039 22 56.0039 c 1,19,-1
 22.0078 64.0039 l 1,20,21
 36 64.0039 36 64.0039 36 50 c 1,0,-1
EndSplineSet
Validated: 1
EndChar

StartChar: uni0194
Encoding: 404 404 579
Width: 48
VWidth: 0
Flags: W
HStem: -0.00585938 21G<14 22.0022> 29.9902 20G<7.99902 14.002 22.0029 27.998>
VStem: 14 8.00098<0 31.9922>
LayerCount: 2
Fore
SplineSet
20 26 m 1,0,1
 13 18 13 18 13 14 c 0,2,3
 13 8 13 8 20 8 c 128,-1,4
 27 8 27 8 27 14 c 0,5,6
 27 18 27 18 20 26 c 1,0,1
30 27 m 18,23,-1
 35 21 35 21 35 13 c 0,9,10
 35 0 35 0 20 0 c 128,-1,11
 5 0 5 0 5 13 c 0,12,13
 5 21 5 21 10 27 c 2,14,15
 15 33 l 1,16,-1
 0 50 l 1,17,-1
 10 50 l 1,18,-1
 20 39 l 1,19,-1
 30 50 l 1,20,-1
 40 50 l 1,21,-1
 25 33 l 1,22,-1
 30 27 l 18,23,-1
EndSplineSet
Validated: 1
EndChar

StartChar: uni0197
Encoding: 407 407 580
Width: 24
VWidth: 0
Flags: W
LayerCount: 2
Fore
SplineSet
-8 31.9004 m 1,0,-1
 0 31.9014 l 1,1,-1
 0 49.8984 l 1,2,-1
 7.99805 49.8926 l 1,3,-1
 7.99707 31.8916 l 1,4,-1
 16 31.9004 l 1,5,-1
 16 23 l 1,6,-1
 7.99707 22.999 l 1,7,-1
 8.00195 0 l 1,8,-1
 -0.00390625 0.000976562 l 1,9,-1
 0.00195312 23 l 1,10,-1
 -8 23 l 1,11,-1
 -8 31.9004 l 1,0,-1
EndSplineSet
Validated: 1
EndChar

StartChar: uni0195
Encoding: 405 405 582
Width: 57
VWidth: 0
Flags: W
LayerCount: 2
Fore
SplineSet
28.166 9.83301 m 1,0,1
 33.2607 12.9492 33.2607 12.9492 37.1313 20.0498 c 128,-1,2
 41.002 27.1504 41.002 27.1504 41.0088 32 c 1,3,-1
 49.001 31.998 l 1,4,5
 49.001 20.9824 49.001 20.9824 41.8081 11.5732 c 128,-1,6
 34.6152 2.16406 34.6152 2.16406 26.5 0 c 1,7,-1
 20 0 l 1,8,-1
 20 14 l 2,9,10
 20 24 20 24 8 24 c 1,11,-1
 8 0 l 1,12,-1
 0 0 l 1,13,-1
 0 50 l 1,14,-1
 8 50 l 1,15,-1
 8 32 l 1,16,17
 27.2829 32 27.2829 32 28 14 c 2,18,-1
 28.166 9.83301 l 1,0,1
EndSplineSet
Validated: 1
EndChar

StartChar: uni0198
Encoding: 408 408 583
Width: 49
VWidth: 0
Flags: W
LayerCount: 2
Fore
SplineSet
13 32 m 1,0,-1
 36 0 l 1,1,-1
 26 0 l 1,2,-1
 8 25 l 1,3,-1
 8 0 l 1,4,-1
 0 0 l 1,5,-1
 0 50 l 1,6,-1
 8 50 l 1,7,-1
 8 38 l 1,8,-1
 23 50 l 1,9,-1
 36 50 l 1,10,11
 41 45 41 45 41 40 c 128,-1,12
 41 35 41 35 36 30 c 9,13,-1
 31 36 l 17,14,15
 33 38 33 38 33 40 c 0,16,17
 33 43 33 43 30 45 c 1,18,-1
 13 32 l 1,0,-1
EndSplineSet
Validated: 1
EndChar

StartChar: uni0199
Encoding: 409 409 584
Width: 40
VWidth: 0
Flags: W
LayerCount: 2
Fore
SplineSet
8 50 m 1,0,1
 22 50 22 50 22 36 c 9,2,-1
 14 36 l 17,3,4
 14 42 14 42 8 42 c 1,5,-1
 8 24 l 1,6,-1
 24 32 l 1,7,-1
 27 25 l 1,8,-1
 13 18 l 1,9,-1
 32 0 l 1,10,-1
 21 0 l 1,11,-1
 8 12 l 1,12,-1
 8 0 l 1,13,-1
 0 0 l 1,14,-1
 0 50 l 1,15,-1
 8 50 l 1,0,1
EndSplineSet
Validated: 1
EndChar

StartChar: uni019A
Encoding: 410 410 585
Width: 24
VWidth: 0
Flags: W
LayerCount: 2
Fore
SplineSet
0 50 m 1,0,-1
 8 44 l 1,1,-1
 7.99512 31.8975 l 1,2,-1
 15.9961 31.8965 l 1,3,-1
 16.002 23.0039 l 1,4,-1
 7.99805 22.999 l 1,5,-1
 8 0 l 1,6,-1
 0 0 l 1,7,-1
 0.0175781 23.002 l 1,8,-1
 -7.98828 23.0039 l 1,9,-1
 -7.99414 31.8936 l 1,10,-1
 0 32.002 l 1,11,-1
 0 50 l 1,0,-1
EndSplineSet
Validated: 1
EndChar

StartChar: uni019B
Encoding: 411 411 586
Width: 40
VWidth: 0
Flags: W
LayerCount: 2
Fore
SplineSet
0 0.000976562 m 17,0,-1
 10.3105 22.999 l 1,1,-1
 5 23.0029 l 1,2,-1
 5.00195 31.8975 l 1,3,-1
 11.9998 31.9987 l 1,4,-1
 5.99902 50.002 l 1,5,-1
 14 50 l 1,6,-1
 20.5319 31.8559 l 1,7,-1
 29 32 l 1,8,-1
 29.001 23.0059 l 1,9,-1
 23.7205 22.9987 l 1,10,-1
 32 0 l 1,11,-1
 24.0029 0.000976562 l 1,12,-1
 17 19 l 1,13,-1
 9.00293 -0.000976562 l 1,14,-1
 0 0.000976562 l 17,0,-1
EndSplineSet
Validated: 1
EndChar

StartChar: uni01BB
Encoding: 443 443 588
Width: 48
VWidth: 0
Flags: W
LayerCount: 2
Fore
SplineSet
25.5704 23 m 5,0,1
 20.5968 16.6328 20.5968 16.6328 13 8 c 5,2,-1
 36 8 l 5,3,-1
 40 0 l 5,4,-1
 3 0 l 5,5,-1
 0 7 l 5,6,7
 9.40657 16.4066 9.40657 16.4066 15.536 23.1429 c 5,8,9
 9 23 l 5,10,-1
 9 31.9004 l 5,11,-1
 23.1929 32.1429 l 5,12,13
 27 37.1225 27 37.1225 27 39 c 4,14,15
 27 42 27 42 19 42 c 6,16,-1
 7 42 l 5,17,-1
 4 50 l 5,18,-1
 19 50 l 6,19,20
 35 50 35 50 35 39 c 4,21,22
 35 36.7566 35 36.7566 31.9245 31.8571 c 5,23,24
 35 31.9004 l 5,25,-1
 35 23 l 5,26,-1
 25.5704 23 l 5,0,1
EndSplineSet
Validated: 1
EndChar

StartChar: uni01BD
Encoding: 445 445 590
Width: 37
VWidth: 0
Flags: W
HStem: 0 8<13.7456 22> 12 20G<26 30>
VStem: 0 8<10.6768 16.2263> 22 8<8 23>
LayerCount: 2
Fore
SplineSet
21 13 m 9,0,1
 0 13 l 17,2,-1
 0 32 l 9,3,-1
 29 32 l 1,4,-1
 29 25 l 1,5,-1
 8 25 l 9,6,-1
 8 20 l 1,7,-1
 29 20 l 9,8,-1
 29 13 l 2,9,10
 29 0 29 0 11 0 c 2,11,-1
 0 0 l 1,12,-1
 0 7 l 1,13,-1
 11 7 l 2,14,15
 21 7 21 7 21 13 c 9,0,1
EndSplineSet
Validated: 1
EndChar

StartChar: uni01BE
Encoding: 446 446 591
Width: 38
VWidth: 0
Flags: W
LayerCount: 2
Fore
SplineSet
25 43 m 1,0,-1
 25 36 l 1,1,-1
 16 36 l 25,2,-1
 16 33 l 17,3,-1
 22 26 l 2,4,5
 30 17 30 17 30 11 c 0,6,7
 30 -0 30 -0 11 -0 c 2,8,-1
 0 -0 l 1,9,-1
 0 8 l 1,10,-1
 11 8 l 2,11,12
 21 8 21 8 21 12 c 0,13,14
 21 15 21 15 16 21 c 2,15,-1
 8 30 l 1,16,-1
 8 36 l 17,17,-1
 0 36 l 1,18,-1
 0 43 l 9,19,-1
 8 43 l 25,20,-1
 8 50 l 1,21,-1
 16 50 l 9,22,-1
 16 43 l 25,23,-1
 25 43 l 1,0,-1
EndSplineSet
Validated: 1
EndChar

StartChar: uni01BF
Encoding: 447 447 592
Width: 37
VWidth: 0
Flags: W
HStem: -14 21G<0 8> 24 8<8 15.3313>
VStem: 0 8<-14 0.477417 10 24> 19 8<16.7054 22.029>
LayerCount: 2
Fore
SplineSet
21 20 m 128,-1,1
 21 22 21 22 19 24 c 1,2,-1
 8 24 l 9,3,-1
 8 5 l 1,4,5
 18 15 l 2,6,7
 21 18 21 18 21 20 c 128,-1,1
29 19 m 0,8,9
 29 15 29 15 23 9 c 2,10,11
 8 -6 l 1,12,-1
 8 -14 l 25,13,-1
 -0 -14 l 1,14,-1
 -0 32 l 1,15,-1
 23 32 l 1,16,17
 29 27 29 27 29 19 c 0,8,9
EndSplineSet
Validated: 1
EndChar

StartChar: uni01F7
Encoding: 503 503 593
Width: 44
VWidth: 0
Flags: W
HStem: 0 21G<0 7.99902> 41.6973 8.3066<7.98926 17.5976>
VStem: 0 7.99121<0 10.8359 19.8418 41.6973>
LayerCount: 2
Fore
SplineSet
23.3571 28.7143 m 26,0,1
 28 31.962 28 31.962 28 38 c 0,2,3
 28 42 28 42 22 42 c 0,4,-1
 8 42 l 9,5,-1
 8 18 l 9,6,-1
 23.3571 28.7143 l 26,0,1
36 38 m 0,7,8
 35.8752 27.6275 35.8752 27.6275 27.0714 21.4286 c 26,9,-1
 8 8 l 17,10,-1
 8 0 l 1,11,-1
 0 0 l 1,12,-1
 0 50 l 1,13,14
 11 50 11 50 22 50 c 1,15,16
 36 50 36 50 36 38 c 0,7,8
EndSplineSet
Validated: 1
EndChar

StartChar: uni021C
Encoding: 540 540 594
Width: 44
VWidth: 0
Flags: W
HStem: -0.000976562 21G<-0.00308681 17.9961> 24.1689 8<8.50195 15.625> 38.5439 9.125<8.50195 12.9997>
VStem: -0.00390625 8.33691<11.667 24.1689 32.1689 38.5439>
LayerCount: 2
Fore
SplineSet
0 7 m 1,0,1
 28 13 28 13 28 20 c 0,2,3
 28 23 28 23 19 25 c 1,4,-1
 5 20 l 17,5,-1
 5 28 l 1,6,-1
 16 32 l 1,7,8
 18 34 18 34 18 37 c 0,9,10
 18 41 18 41 7 41 c 1,11,-1
 7 35 l 25,12,-1
 -0 32 l 25,13,-1
 0 50 l 17,14,15
 26 50 26 50 26 38 c 0,16,17
 26 35 26 35 24 32 c 1,18,19
 36 28 36 28 36 20 c 0,20,21
 36 6 36 6 0 0 c 1,22,-1
 0 7 l 1,0,1
EndSplineSet
Validated: 1
EndChar

StartChar: uni021D
Encoding: 541 541 595
Width: 37
VWidth: 0
Flags: W
LayerCount: 2
Fore
SplineSet
26 15 m 1,0,1
 29 11 29 11 29 5 c 0,2,3
 29 -6 29 -6 0 -14 c 1,4,-1
 0 -6 l 1,5,6
 21 -1 21 -1 21 5 c 0,7,8
 21 9 21 9 20 10 c 1,9,-1
 7 5 l 1,10,-1
 7 13 l 1,11,-1
 17 17 l 2,12,13
 21 19 21 19 21 21 c 0,14,15
 21 22 21 22 19 24 c 1,16,-1
 7 24 l 1,17,-1
 7 20 l 25,18,-1
 0 18 l 25,19,-1
 0 32 l 17,20,-1
 23 32 l 1,21,22
 29 27 29 27 29 21 c 0,23,24
 29 18 29 18 26 15 c 1,0,1
EndSplineSet
Validated: 1
EndChar

StartChar: uni0220
Encoding: 544 544 596
Width: 44
VWidth: 0
Flags: W
LayerCount: 2
Fore
SplineSet
36 -0 m 2,0,1
 36 -10 l 1,2,-1
 28 -10 l 1,3,-1
 28 -0 l 2,4,5
 28 28 28 28 8 41 c 1,6,7
 8 0 l 1,8,-1
 0 0 l 1,9,-1
 0 50 l 1,10,-1
 8 50 l 1,11,12
 36 37 36 37 36 -0 c 2,0,1
EndSplineSet
Validated: 1
EndChar

StartChar: uni0222
Encoding: 546 546 597
Width: 46
VWidth: 0
Flags: W
LayerCount: 2
Back
SplineSet
14 28 m 21,0,1
 8 23 8 23 8 15 c 4,2,3
 8 8 8 8 19 8 c 132,-1,4
 30 8 30 8 30 15 c 4,5,6
 30 23 30 23 24 28 c 5,7,-1
 14 28 l 21,0,1
15 36 m 13,8,-1
 23 36 l 5,9,10
 22.9999 42 22.9999 42 19 42 c 132,-1,11
 15 42 15 42 15 36 c 13,8,-1
6 32 m 5,12,13
 6 50 6 50 19 50 c 132,-1,14
 32 50 32 50 32 32 c 5,15,16
 38 27 38 27 38 14 c 4,17,18
 38 0 38 0 19 0 c 132,-1,19
 0 0 0 0 0 13.5 c 132,-1,20
 0 27 0 27 6 32 c 5,12,13
EndSplineSet
Fore
SplineSet
14 28 m 17,0,1
 8 23 8 23 8 15.5 c 128,-1,2
 8 8 8 8 19 8 c 128,-1,3
 30 8 30 8 30 15.5 c 128,-1,4
 30 23 30 23 24 28 c 1,5,-1
 14 28 l 17,0,1
6 35 m 0,6,7
 6 50 6 50 16 50 c 1,8,-1
 16 42 l 1,9,10
 14 42 14 42 14 36 c 9,11,-1
 24 36 l 1,12,13
 24 42 24 42 22 42 c 1,14,-1
 22 50 l 1,15,16
 32 50 32 50 32 35 c 0,17,18
 32 34 32 34 32 32 c 1,19,20
 38 27 38 27 38 14 c 0,21,22
 38 0 38 0 19 0 c 128,-1,23
 0 0 0 0 0 13.5 c 128,-1,24
 0 27 0 27 6 32 c 1,25,-1
 6 35 l 0,6,7
EndSplineSet
Validated: 1
EndChar

StartChar: uni0223
Encoding: 547 547 598
Width: 39
VWidth: 0
Flags: W
LayerCount: 2
Fore
SplineSet
12 36 m 9,0,-1
 20 36 l 1,1,2
 22 39 22 39 22 44 c 1,3,-1
 29 44 l 1,4,5
 29 39 29 39 27 34 c 1,6,7
 31 25 31 25 31 16 c 0,8,9
 31 0 31 0 15.5 0 c 128,-1,10
 0 0 0 0 0 16 c 0,11,12
 0 26 0 26 5 34 c 1,13,14
 3 39 3 39 3 44 c 1,15,-1
 10 44 l 1,16,17
 10 39 10 39 12 36 c 9,0,-1
10 28 m 17,18,19
 7 23 7 23 7 15.5 c 128,-1,20
 7 8 7 8 15.5 8 c 128,-1,21
 24 8 24 8 24 16 c 128,-1,22
 24 24 24 24 22 28 c 1,23,-1
 10 28 l 17,18,19
EndSplineSet
Validated: 1
EndChar

StartChar: uni01C0
Encoding: 448 448 599
Width: 16
VWidth: 0
Flags: W
HStem: 0 21G<0 8> 0 21G<0 8> 30 20G<0 8>
VStem: 0 8<0 50>
LayerCount: 2
Fore
SplineSet
0 50 m 1,0,-1
 8 50 l 1,1,-1
 8 -14 l 5,2,-1
 0 -14 l 5,3,-1
 0 50 l 1,0,-1
EndSplineSet
Validated: 1
EndChar

StartChar: uni01C1
Encoding: 449 449 600
Width: 32
VWidth: 0
Flags: W
HStem: 0 21G<0 8> 0 21G<0 8> 30 20G<0 8>
VStem: 0 8<0 50>
LayerCount: 2
Fore
SplineSet
16 64 m 1,0,-1
 24 64 l 1,1,-1
 24 0 l 1,2,-1
 16 0 l 1,3,-1
 16 64 l 1,0,-1
0 64 m 1,4,-1
 8 64 l 1,5,-1
 8 0 l 1,6,-1
 0 0 l 1,7,-1
 0 64 l 1,4,-1
EndSplineSet
Validated: 1
EndChar

StartChar: uni01C2
Encoding: 450 450 601
Width: 32
VWidth: 0
Flags: W
HStem: 0 21G<0 8> 0 21G<0 8> 30 20G<0 8>
VStem: 0 8<0 50>
LayerCount: 2
Fore
SplineSet
8 50 m 1,0,-1
 16 50 l 1,1,-1
 16.002 32.0049 l 1,2,-1
 24.002 32.0039 l 1,3,-1
 24.001 26.0088 l 1,4,-1
 16.001 26.0068 l 1,5,-1
 16.001 22.0059 l 1,6,-1
 24.001 22.0029 l 1,7,-1
 24.002 16.0068 l 1,8,-1
 16 16.0039 l 1,9,-1
 16 0 l 1,10,-1
 8 0 l 1,11,-1
 8.00098 16.0039 l 1,12,-1
 0.000976562 16.0039 l 1,13,-1
 0.000976562 22.0039 l 1,14,-1
 8.00098 22.0039 l 1,15,-1
 8 25.8623 l 1,16,-1
 0.000976562 25.8623 l 1,17,-1
 0.00195312 31.8633 l 1,18,-1
 8 31.8613 l 1,19,-1
 8 50 l 1,0,-1
EndSplineSet
Validated: 1
EndChar

StartChar: uni01BA
Encoding: 442 442 602
Width: 39
VWidth: 0
Flags: W
HStem: 12.8369 7.8301<8.1009 16.1947> 23.8418 8.1514<7.96649 11.9883>
LayerCount: 2
Fore
SplineSet
15 11 m 6,0,1
 -2 11 l 5,2,-1
 11 24 l 5,3,-1
 -0 24 l 5,4,-1
 0 32 l 13,5,-1
 29 32 l 5,6,-1
 16 19 l 5,7,-1
 19 19 l 6,8,9
 29 19 29 19 29 9 c 132,-1,10
 29 -1 29 -1 15 -1 c 6,11,-1
 8 -1 l 5,12,13
 8 -6 8 -6 29 -6 c 5,14,-1
 29 -14 l 5,15,16
 0 -14 0 -14 0 -3 c 6,17,-1
 0 1 l 6,18,19
 0 7 0 7 6 7 c 6,20,-1
 15 7 l 6,21,22
 20 7 20 7 20 9 c 132,-1,23
 20 11 20 11 15 11 c 6,0,1
EndSplineSet
Validated: 1
EndChar

StartChar: uni01A7
Encoding: 423 423 607
Width: 51
VWidth: 0
Flags: W
LayerCount: 2
Fore
SplineSet
7 50 m 5,0,1
 40 50 40 50 40 38 c 132,-1,2
 40 26 40 26 23 26 c 4,3,4
 8 26 8 26 8 21 c 4,5,6
 8 8 8 8 43 8 c 5,7,-1
 43 0 l 5,8,9
 0 0 0 0 0 21 c 4,10,11
 0 34 0 34 20 34 c 4,12,13
 32 34 32 34 32 38 c 132,-1,14
 32 42 32 42 7 42 c 5,15,-1
 7 50 l 5,0,1
EndSplineSet
Validated: 1
EndChar

StartChar: uni01A8
Encoding: 424 424 608
Width: 37
VWidth: 0
Flags: W
LayerCount: 2
Fore
SplineSet
6 21 m 6,0,1
 15 21 l 6,2,3
 20 21 20 21 20 23 c 132,-1,4
 20 25 20 25 15 25 c 6,5,-1
 0 25 l 5,6,-1
 0 32 l 5,7,-1
 15 32 l 6,8,9
 29 32 29 32 29 22.5 c 132,-1,10
 29 13 29 13 15 13 c 6,11,-1
 8 13 l 5,12,13
 8 8 8 8 29 8 c 5,14,-1
 29 0 l 5,15,16
 0 0 0 0 0 11 c 6,17,-1
 0 15 l 6,18,19
 0 21 0 21 6 21 c 6,0,1
EndSplineSet
Validated: 1
EndChar

StartChar: divide
Encoding: 247 247 609
Width: 38
VWidth: 0
Flags: W
LayerCount: 2
Fore
SplineSet
0 19 m 1,0,-1
 30 19 l 1,1,-1
 30 13 l 1,2,-1
 0 13 l 1,3,-1
 0 19 l 1,0,-1
EndSplineSet
Refer: 46 46 N 1 0 0 1 11 24 2
Refer: 46 46 N 1 0 0 1 11 0 2
Validated: 1
EndChar

StartChar: onequarter
Encoding: 188 188 610
Width: 50
VWidth: 0
Flags: W
LayerCount: 2
Fore
SplineSet
30 16 m 0,0,1
 30 12 30 12 36 12 c 1,2,-1
 36 22 l 1,3,-1
 42 22 l 1,4,-1
 42 0 l 1,5,-1
 36 0 l 1,6,-1
 36 6 l 1,7,8
 24 8 24 8 24 16 c 0,9,-1
 24 22 l 1,10,-1
 30 22 l 1,11,-1
 30 16 l 0,0,1
7 0 m 1,12,-1
 -3 0 l 1,13,-1
 24 50 l 1,14,-1
 34 50 l 1,15,-1
 7 0 l 1,12,-1
EndSplineSet
Refer: 377 185 N 1 0 0 1 0 0 2
Validated: 1
EndChar

StartChar: onehalf
Encoding: 189 189 611
Width: 47
VWidth: 0
Flags: W
LayerCount: 2
Fore
SplineSet
7 0 m 1,0,-1
 -3 0 l 1,1,-1
 24 50 l 1,2,-1
 34 50 l 1,3,-1
 7 0 l 1,0,-1
EndSplineSet
Refer: 377 185 N 1 0 0 1 0 0 2
Refer: 372 178 N 1 0 0 1 23 -32 2
Validated: 1
EndChar

StartChar: threequarters
Encoding: 190 190 612
Width: 57
VWidth: 0
Flags: W
LayerCount: 2
Fore
SplineSet
37 16 m 0,0,1
 37 12 37 12 43 12 c 1,2,-1
 43 22 l 1,3,-1
 49 22 l 1,4,-1
 49 0 l 1,5,-1
 43 0 l 1,6,-1
 43 6 l 1,7,8
 31 8 31 8 31 16 c 0,9,-1
 31 22 l 1,10,-1
 37 22 l 1,11,-1
 37 16 l 0,0,1
14 0 m 1,12,-1
 4 0 l 1,13,-1
 31 50 l 1,14,-1
 41 50 l 1,15,-1
 14 0 l 1,12,-1
EndSplineSet
Refer: 373 179 N 1 0 0 1 0 0 2
Validated: 1
EndChar

StartChar: paragraph
Encoding: 182 182 613
Width: 42
VWidth: 0
Flags: W
HStem: 0 21G<0 7.99902> 41.6973 8.3066<7.98926 17.5976>
VStem: 0 7.99121<0 10.8359 19.8418 41.6973>
LayerCount: 2
Fore
SplineSet
24.9941 46.8623 m 1,0,-1
 24.9961 3.00195 l 1,1,-1
 27.9961 3.00293 l 1,2,-1
 27.9961 46.8604 l 1,3,-1
 24.9941 46.8623 l 1,0,-1
14 33 m 2,4,-1
 19 33 l 1,5,-1
 19 42 l 1,6,-1
 14 42 l 2,7,8
 8 42 8 42 8 38 c 0,9,10
 8 33 8 33 14 33 c 2,4,-1
19 24 m 1,11,-1
 15 24 l 2,12,13
 0 24 0 24 0 37 c 128,-1,14
 0 50 0 50 14 50 c 2,15,-1
 34 50 l 1,16,-1
 34 0 l 1,17,-1
 19 0 l 1,18,-1
 19 24 l 1,11,-1
EndSplineSet
Validated: 1
EndChar

StartChar: uni1FA0
Encoding: 8096 8096 622
Width: 50
VWidth: 0
Flags: W
LayerCount: 2
Fore
SplineSet
17 -3 m 1,0,-1
 25 -3 l 1,1,-1
 25 -14 l 1,2,-1
 17 -14 l 1,3,-1
 17 -3 l 1,0,-1
EndSplineSet
Refer: 230 969 N 1 0 0 1 0 0 3
Refer: 56 44 N 1 0 0 1 20 42 2
Validated: 1
EndChar

StartChar: uni1FFE
Encoding: 8190 8190 623
Width: 20
VWidth: 0
Flags: W
LayerCount: 2
Fore
SplineSet
0 50 m 1,0,1
 8 50 l 1,2,3
 8 41 8 41 12 37 c 1,4,-1
 7 31 l 1,5,6
 0 37 0 37 0 50 c 1,0,1
EndSplineSet
Validated: 1
EndChar
